<?xml version="1.0" encoding="UTF-8"?>
<svg version="1.1" xmlns="http://www.w3.org/2000/svg" width="1011" height="259">
<path d="M0 0 C8.7115504 8.16886366 12.5818905 15.9105175 13.13142776 27.85717106 C13.13440243 28.85241511 13.13737709 29.84765917 13.14044189 30.87306213 C13.14900711 32.59898338 13.14900711 32.59898338 13.15774536 34.35977173 C13.15886322 35.60817841 13.15998108 36.85658508 13.16113281 38.14282227 C13.16576663 39.48220454 13.17079204 40.82158551 13.17617798 42.16096497 C13.18925335 45.78946552 13.19573789 49.41794761 13.20018864 53.04646802 C13.20312841 55.31904103 13.20723498 57.5916091 13.21169281 59.86417961 C13.22535753 66.99062912 13.2350281 74.11706721 13.2388947 81.2435289 C13.24336723 89.43945491 13.26088188 97.63521347 13.2898953 105.8310886 C13.31160013 112.18550371 13.32160372 118.53987203 13.32293582 124.89432377 C13.32397796 128.68023601 13.3297579 132.46599064 13.34775543 136.25186348 C13.36438828 139.81997881 13.36631905 143.38782064 13.35761642 146.95596123 C13.35649436 148.86783739 13.37009527 150.77970511 13.3843689 152.69152832 C13.32528851 165.10722403 11.94338415 175.8725956 3 185 C-4.61028826 192.51313565 -11.89816895 194.2354089 -22.4765625 194.171875 C-24.8819086 194.00804338 -26.9369091 193.59331888 -29.25 192.9375 C-33.12855128 191.96786218 -35.1706041 192.08427489 -39 193 C-47.44078931 194.76667683 -55.79968262 194.68631086 -64 192 C-64.78375 191.401875 -65.5675 190.80375 -66.375 190.1875 C-70.17755559 188.46729628 -72.46553071 189.79537628 -76.3046875 191.09375 C-94.81733761 197.31829322 -118.52309239 195.87755475 -136.07666016 187.26318359 C-144.4791348 182.83689903 -151.86131332 177.28196769 -158.5 170.5 C-159.325 169.675 -160.15 168.85 -161 168 C-161.66 168 -162.32 168 -163 168 C-164.46182159 169.52340515 -164.46182159 169.52340515 -166 171.5 C-177.21270746 184.52787937 -192.83012949 192.57838175 -210 194 C-232.74865228 195.26445849 -255.8315292 193.26566339 -273.6875 177.4375 C-274.81487984 176.31449833 -275.93071991 175.17845583 -277 174 C-279.9861363 175.33726973 -281.95277786 176.81704318 -284.25 179.125 C-299.72237504 192.84632703 -319.61082537 195.01865599 -339.46777344 194.16845703 C-348.60747836 193.56043578 -356.63791121 191.16453754 -364.6953125 186.79296875 C-366.95893065 185.75076615 -366.95893065 185.75076615 -369.0625 186.703125 C-369.701875 187.13109375 -370.34125 187.5590625 -371 188 C-371.63679688 188.41378906 -372.27359375 188.82757813 -372.9296875 189.25390625 C-373.57164062 189.68574219 -374.21359375 190.11757812 -374.875 190.5625 C-382.25543797 195.17527373 -391.37143159 194.84659061 -399.75 193.25 C-408.29127388 191.04002005 -413.80024607 184.840318 -419 178 C-421.24455044 174.0984297 -423.19421895 170.1214297 -425 166 C-427.11737081 167.85023699 -427.11737081 167.85023699 -427.89453125 170.28515625 C-431.58645492 179.3518946 -438.72415846 186.87756317 -447.0625 191.8125 C-455.61188479 195.26863428 -465.3493764 194.8835412 -474 192 C-479.55339416 188.9919115 -483.67380036 184.52384328 -488 180 C-489.43279297 180.79664063 -489.43279297 180.79664063 -490.89453125 181.609375 C-511.73051304 193.05563512 -534.82164344 198.28142321 -558.4609375 192.2421875 C-569.52797602 188.35773027 -579.83884955 183.35677627 -589 176 C-591.80994858 177.37277431 -594.27428594 178.86018613 -596.8125 180.6875 C-616.39308765 193.76258963 -639.09023874 196.99118153 -662.16040039 193.02148438 C-678.15070692 189.70743121 -690.70415754 181.48908393 -702 170 C-702.67417969 169.38382813 -703.34835937 168.76765625 -704.04296875 168.1328125 C-717.60131362 155.62202187 -724.40142272 136.84604936 -725.31640625 118.7890625 C-726.0580726 95.07663133 -720.1581918 74.6209907 -703.87109375 56.9296875 C-686.93634371 39.34337915 -666.32213687 30.52649388 -642 30 C-632.21957529 30.22419312 -622.93871636 31.92480046 -614 36 C-612.50533203 36.66708984 -612.50533203 36.66708984 -610.98046875 37.34765625 C-605.04635946 40.1467644 -599.89720162 43.3028724 -594.83984375 47.484375 C-592.86674768 49.16170611 -592.86674768 49.16170611 -590 51 C-589.05125 50.13375 -588.1025 49.2675 -587.125 48.375 C-576.17527591 39.06445616 -562.29680292 32.60205309 -548 31 C-547.01902344 30.86722656 -546.03804687 30.73445313 -545.02734375 30.59765625 C-525.09355674 28.39925843 -504.93092239 33.59296828 -489 46 C-488.27554688 45.24074219 -487.55109375 44.48148438 -486.8046875 43.69921875 C-485.82853791 42.694911 -484.85195205 41.69102717 -483.875 40.6875 C-483.400625 40.18798828 -482.92625 39.68847656 -482.4375 39.17382812 C-476.06449744 32.67164308 -469.62208095 31.0115993 -460.6875 30.8125 C-457.05692894 30.82721853 -453.93302171 31.1643513 -450.4375 32.125 C-446.10358663 33.2257986 -442.88143494 32.59966955 -438.578125 31.58984375 C-421.81694261 27.75508839 -405.25745307 31.50276931 -390.5625 40 C-386.76096329 42.39378983 -383.34586402 45.00633219 -380 48 C-377.10479187 46.67948751 -375.56617636 45.58545741 -373.1875 43.3125 C-364.97515779 36.12449295 -353.72963068 32.07912952 -343 31 C-341.53046875 30.80277344 -341.53046875 30.80277344 -340.03125 30.6015625 C-322.54223904 28.6535291 -303.70749923 32.07243802 -289 42 C-285.52032434 44.85763686 -282.22148757 47.85538089 -279 51 C-275.72379101 49.51897402 -273.1804153 47.61042616 -270.375 45.375 C-260.14874594 37.86295278 -247.70574234 32.1585206 -235 31 C-234.02417969 30.86980469 -233.04835938 30.73960938 -232.04296875 30.60546875 C-211.59642163 28.31121994 -191.77247009 34.01597809 -175.3125 46.375 C-170.8955425 49.93886282 -166.91259888 53.89550253 -163 58 C-161.576875 56.7625 -161.576875 56.7625 -160.125 55.5 C-158.75008189 54.33323682 -157.37507421 53.1665792 -156 52 C-155.28585937 51.37351563 -154.57171875 50.74703125 -153.8359375 50.1015625 C-136.63950753 35.55073714 -114.82450628 28.50434085 -92.32177734 30.32861328 C-78.0856913 31.88868768 -64.3384713 37.16957765 -53 46 C-52.95101562 44.69546875 -52.90203125 43.3909375 -52.8515625 42.046875 C-51.60809122 11.70385151 -51.60809122 11.70385151 -38.9609375 -0.30859375 C-28.27772791 -9.52339405 -10.58860993 -9.1002511 0 0 Z " fill="#57656D" transform="translate(996,29)"/>
<path d="M0 0 C7.8768337 6.35651305 14.30186105 12.74293006 18.91015625 21.83203125 C19.22025635 22.43901855 19.53035645 23.04600586 19.84985352 23.67138672 C25.6904387 36.16578253 26.1158164 49.95098903 26.92895508 63.47338867 C27.48622468 77.94191799 27.48622468 77.94191799 33.79077148 90.61791992 C35.40863282 92.16077329 35.40863282 92.16077329 38.34765625 92.39453125 C41.51799218 92.21298222 41.51799218 92.21298222 43.16015625 89.58203125 C45.28022836 84.78397331 45.53888336 80.69116938 45.53515625 75.51953125 C45.53652588 74.71314209 45.53789551 73.90675293 45.53930664 73.07592773 C45.50061212 68.26490904 45.13102006 63.70644225 44.28515625 58.95703125 C42.98337392 51.46706625 42.57985003 44.36553517 46.47265625 37.58203125 C50.57543119 31.79057792 56.00959164 26.90338348 63.03515625 25.26953125 C74.67574161 23.95172913 83.01810286 25.55265622 92.34765625 32.89453125 C93.28506784 33.85385635 94.20534038 34.83062347 95.09765625 35.83203125 C97.13841198 38.16904438 97.13841198 38.16904438 99.78515625 37.89453125 C102.41022555 36.93339549 102.41022555 36.93339549 104.97265625 35.45703125 C114.27018991 31.15261752 124.64343524 31.01158348 134.41015625 33.89453125 C140.95391183 36.64695628 147.00396383 42.38893611 150.91015625 48.26953125 C153.81186487 55.58688342 154.42785957 63.54178784 151.34765625 70.89453125 C148.65818342 76.30874869 145.49427143 80.87666114 141.34765625 85.26953125 C130.68301412 96.93143954 128.43159589 112.20237251 125.54663086 127.17358398 C122.60351216 142.35655421 118.54555008 155.69094171 111.97265625 169.70703125 C111.52647949 170.6623877 111.08030273 171.61774414 110.62060547 172.60205078 C105.89002729 182.39127095 99.9379323 190.70085202 92.41015625 198.51953125 C91.80042969 199.16124268 91.19070312 199.8029541 90.5625 200.46411133 C88.83106111 202.28097094 87.09039305 204.08851807 85.34765625 205.89453125 C84.53167969 206.75175781 83.71570313 207.60898438 82.875 208.4921875 C79.26340566 212.21512193 75.73024478 215.07212257 71.34765625 217.89453125 C70.36667969 218.53132812 69.38570312 219.168125 68.375 219.82421875 C56.95927916 227.01136032 45.40092102 232.318514 32.34765625 235.89453125 C31.36023438 236.17167969 30.3728125 236.44882813 29.35546875 236.734375 C-4.20779368 245.68161074 -37.23943291 239.14126541 -66.9140625 222.01171875 C-82.83116428 211.82637131 -96.04125989 197.05952686 -105.65234375 180.89453125 C-106.05243652 180.23163086 -106.4525293 179.56873047 -106.86474609 178.88574219 C-127.40073261 144.30144411 -132.3044697 98.63787701 -122.45703125 59.89672852 C-117.75175529 42.85887419 -109.05404214 26.46213865 -96.65234375 13.89453125 C-95.88148437 13.05148438 -95.110625 12.2084375 -94.31640625 11.33984375 C-70.69672131 -13.80862338 -28.79357466 -20.64149181 0 0 Z " fill="#C2D2D8" transform="translate(128.65234375,16.10546875)"/>
<path d="M0 0 C1.04800781 -0.02900391 2.09601562 -0.05800781 3.17578125 -0.08789062 C10.76550259 -0.14887108 16.68960972 1.28800092 23.625 4.3125 C24.6931897 4.75408447 24.6931897 4.75408447 25.78295898 5.20458984 C28.09990755 6.17223738 30.37900848 7.18950424 32.625 8.3125 C32.625 8.9725 32.625 9.6325 32.625 10.3125 C33.2025 10.539375 33.78 10.76625 34.375 11 C38.18583774 13.22298868 40.24429664 16.17038992 41.625 20.3125 C42.01773833 25.189762 42.23006815 30.01413755 39.625 34.3125 C37.5 35.625 37.5 35.625 35.625 36.3125 C35.625 36.9725 35.625 37.6325 35.625 38.3125 C24.53676817 39.0970447 24.53676817 39.0970447 20.9375 36 C19.625 33.3125 19.625 33.3125 18.625 30.3125 C12.28925403 25.62955733 7.83223302 25.10803894 0.25 25.0625 C-0.60078125 25.041875 -1.4515625 25.02125 -2.328125 25 C-7.19576433 24.96967203 -10.39981671 25.17669805 -14.375 28.3125 C-15.66112676 29.37228933 -15.66112676 29.37228933 -15.47265625 31.81640625 C-15.46105469 32.82574219 -15.44945312 33.83507812 -15.4375 34.875 C-15.42847656 35.88691406 -15.41945313 36.89882812 -15.41015625 37.94140625 C-15.39855469 38.72386719 -15.38695312 39.50632813 -15.375 40.3125 C-13.395 40.9725 -11.415 41.6325 -9.375 42.3125 C-9.375 42.9725 -9.375 43.6325 -9.375 44.3125 C-8.68277344 44.34988281 -7.99054687 44.38726562 -7.27734375 44.42578125 C3.24390778 45.13274282 13.65729293 46.79179613 23.625 50.3125 C23.625 50.9725 23.625 51.6325 23.625 52.3125 C24.25148438 52.49425781 24.87796875 52.67601562 25.5234375 52.86328125 C26.74933594 53.24033203 26.74933594 53.24033203 28 53.625 C28.81210937 53.86863281 29.62421875 54.11226562 30.4609375 54.36328125 C32.625 55.3125 32.625 55.3125 34.625 58.3125 C35.3675 58.68375 36.11 59.055 36.875 59.4375 C40.9556915 62.21978966 43.08213174 66.14429326 45.625 70.3125 C45.66238281 69.08015625 45.69976563 67.8478125 45.73828125 66.578125 C46.52363101 45.1458866 51.79162239 30.87225036 67.40234375 15.5703125 C74.97565005 8.69196843 83.22288513 4.78776397 93.03515625 2.07421875 C95.532981 1.56413638 95.532981 1.56413638 96.625 0.3125 C98.18888233 0.21319994 99.75718831 0.18170002 101.32421875 0.1796875 C102.28650391 0.17839844 103.24878906 0.17710938 104.24023438 0.17578125 C105.25408203 0.17964844 106.26792969 0.18351562 107.3125 0.1875 C108.30701172 0.18363281 109.30152344 0.17976563 110.32617188 0.17578125 C115.20202926 0.18226942 119.83363001 0.28402876 124.625 1.3125 C124.625 1.9725 124.625 2.6325 124.625 3.3125 C125.20765625 3.3640625 125.7903125 3.415625 126.390625 3.46875 C134.55311517 4.59815116 140.11256948 8.45417012 146.625 13.3125 C147.23472656 13.74820313 147.84445312 14.18390625 148.47265625 14.6328125 C159.80888686 23.27857772 166.06689777 36.95915162 169.625 50.3125 C169.8725 49.36375 170.12 48.415 170.375 47.4375 C175.32237496 30.47994582 185.56799742 16.70098396 200.625 7.3125 C204.86676477 5.2879146 209.14691235 3.72477469 213.625 2.3125 C214.93017578 1.75949219 214.93017578 1.75949219 216.26171875 1.1953125 C221.32731208 -0.13433221 226.28884936 0.10407025 231.5 0.1875 C232.56992187 0.19652344 233.63984375 0.20554687 234.7421875 0.21484375 C237.37002439 0.23830658 239.99739406 0.27113541 242.625 0.3125 C242.625 0.9725 242.625 1.6325 242.625 2.3125 C243.78 2.415625 244.935 2.51875 246.125 2.625 C252.0321363 3.35815521 257.40437616 5.48466209 262.625 8.3125 C262.625 8.9725 262.625 9.6325 262.625 10.3125 C263.3159375 10.52519531 264.006875 10.73789063 264.71875 10.95703125 C268.49980691 12.72050806 271.11048453 15.1568433 274.125 18 C274.68058594 18.50466797 275.23617188 19.00933594 275.80859375 19.52929688 C281.74583937 25.0544278 285.68115171 30.48229208 288.25 38.25 C290.01970189 43.5273694 290.01970189 43.5273694 292.17578125 48.65405273 C294.44850157 54.73028468 294.05344116 61.04179454 294.0234375 67.4453125 C294.02546235 68.80956172 294.0283772 70.17380987 294.03213501 71.53805542 C294.0365361 74.38403729 294.03019756 77.22973498 294.01611328 80.07568359 C293.99898954 83.7116249 294.0088961 87.34690325 294.02683067 90.98282051 C294.03770106 93.79508408 294.03420793 96.60719189 294.0264473 99.4194603 C294.02349295 101.40799138 294.03255145 103.39652869 294.0418396 105.38504028 C294.03238312 106.60005219 294.02292664 107.81506409 294.01318359 109.06689453 C294.01079681 110.13086456 294.00841003 111.19483459 294.00595093 112.29104614 C293.38427005 117.22181269 291.64078229 120.41483193 287.9375 123.6875 C284.01754135 125.61049858 280.85908054 126.3791626 276.625 125.3125 C273.73064167 123.73730114 271.59750394 121.95588464 269.625 119.3125 C268.6875 115.4375 268.6875 115.4375 268.625 112.3125 C267.67625 112.8075 266.7275 113.3025 265.75 113.8125 C262.625 115.3125 262.625 115.3125 260.625 115.3125 C260.625 115.9725 260.625 116.6325 260.625 117.3125 C258.96523188 118.2827321 257.296747 119.23805673 255.625 120.1875 C254.696875 120.72117187 253.76875 121.25484375 252.8125 121.8046875 C246.26872524 124.90014958 240.05593184 125.65494168 232.875 125.5625 C232.08641602 125.55355713 231.29783203 125.54461426 230.48535156 125.53540039 C214.8646937 125.22764345 200.75227108 120.76723532 189.02734375 109.90625 C178.20616765 98.22289889 170.35003621 85.5353635 170.625 69.3125 C169.635 69.3125 168.645 69.3125 167.625 69.3125 C167.356875 69.93125 167.08875 70.55 166.8125 71.1875 C165.625 73.3125 165.625 73.3125 162.625 75.3125 C159.75516956 75.49707316 156.98380738 75.56466782 154.11450195 75.53955078 C153.24599609 75.53984283 152.37749023 75.54013489 151.48266602 75.54043579 C148.60943644 75.53904147 145.73646558 75.52347544 142.86328125 75.5078125 C140.87216839 75.50408273 138.8810537 75.50123559 136.88993835 75.49923706 C131.64723653 75.49159775 126.40464538 75.47194666 121.1619873 75.4498291 C115.81308489 75.42937712 110.46416461 75.42023673 105.11523438 75.41015625 C94.61844094 75.38870108 84.12172967 75.3545615 73.625 75.3125 C74.38983993 76.89160378 75.16053147 78.46787397 75.93359375 80.04296875 C76.36212646 80.92106201 76.79065918 81.79915527 77.23217773 82.70385742 C82.019124 91.66941761 88.15496066 95.07806949 97.625 98.3125 C97.625 98.9725 97.625 99.6325 97.625 100.3125 C110.99373643 101.15506742 121.37254935 99.18921545 132.625 91.3125 C137.30511512 88.14682715 140.84817456 86.57726767 146.625 87.3125 C150.14232742 88.59767733 152.1020624 89.68497488 154.5 92.5625 C156.3370842 97.05315027 156.12291494 100.64092841 154.75 105.25 C151.50056538 109.93300871 147.20119155 112.9783227 142.625 116.3125 C141.43197266 117.19035156 141.43197266 117.19035156 140.21484375 118.0859375 C130.4562549 124.94875299 120.08117091 125.48958922 108.5 125.4375 C107.19869141 125.44330078 107.19869141 125.44330078 105.87109375 125.44921875 C101.34170202 125.4423247 97.08186057 125.23309743 92.625 124.3125 C92.625 123.6525 92.625 122.9925 92.625 122.3125 C91.96113281 122.19132812 91.29726563 122.07015625 90.61328125 121.9453125 C81.20364358 120.15954185 81.20364358 120.15954185 77.625 118.3125 C77.295 117.6525 76.965 116.9925 76.625 116.3125 C75.51125 115.85875 74.3975 115.405 73.25 114.9375 C61.45156288 109.16514636 55.02434766 96.63720628 49.625 85.3125 C49.56505859 86.51132813 49.56505859 86.51132813 49.50390625 87.734375 C48.4365159 98.96174018 43.26833452 106.3928505 34.9375 113.8125 C33.84569236 114.66196132 32.74234424 115.49692026 31.625 116.3125 C30.67625 117.055 29.7275 117.7975 28.75 118.5625 C24.82056371 120.76298432 21.03383021 121.56789756 16.625 122.3125 C16.625 122.9725 16.625 123.6325 16.625 124.3125 C3.74768282 126.12268287 -9.43840051 127.2035402 -21.375 121.3125 C-22.66277344 120.76916016 -22.66277344 120.76916016 -23.9765625 120.21484375 C-33.16381376 116.12082695 -39.89292598 109.31562259 -44.375 100.3125 C-45.90589162 95.48430335 -46.2868074 90.27288591 -44.125 85.625 C-43.5475 84.861875 -42.97 84.09875 -42.375 83.3125 C-41.859375 82.549375 -41.34375 81.78625 -40.8125 81 C-37.48321854 78.69511283 -34.90656383 78.63199294 -30.9140625 78.796875 C-26.63001361 79.66686647 -24.07383072 81.96564496 -21.375 85.3125 C-20.35877342 87.30430409 -19.35787008 89.30402635 -18.375 91.3125 C-15.98547164 93.7280015 -13.42772893 95.78613553 -10.375 97.3125 C-10.375 97.9725 -10.375 98.6325 -10.375 99.3125 C-2.35093875 101.00177605 5.57307789 100.50537735 13.625 99.3125 C13.625 98.6525 13.625 97.9925 13.625 97.3125 C14.73875 96.755625 15.8525 96.19875 17 95.625 C19.38552435 94.23424896 20.53984693 93.43668155 22.125 91.125 C22.87166613 86.92500299 23.03421173 83.38914822 21.625 79.3125 C16.31406048 72.08025 6.8363533 71.61356437 -1.375 70.3125 C-3.35619196 69.92693143 -5.33574837 69.5327226 -7.3125 69.125 C-8.10527344 68.96644531 -8.89804687 68.80789062 -9.71484375 68.64453125 C-10.26269531 68.53496094 -10.81054688 68.42539063 -11.375 68.3125 C-11.375 67.6525 -11.375 66.9925 -11.375 66.3125 C-12.48875 66.250625 -13.6025 66.18875 -14.75 66.125 C-23.54103425 64.99117403 -31.54599137 59.87013471 -37.375 53.3125 C-42.32108302 45.27511509 -42.55887519 34.80249119 -40.62109375 25.81640625 C-37.92280976 16.49409961 -33.92457448 10.17507049 -25.375 5.3125 C-21.95851775 4.06295325 -18.54471003 3.02917196 -15.03515625 2.07421875 C-9.7976824 0.57450157 -5.83428947 0.05190649 0 0 Z " fill="#ACC2CD" transform="translate(664.375,78.6875)"/>
<path d="M0 0 C7.8768337 6.35651305 14.30186105 12.74293006 18.91015625 21.83203125 C19.22025635 22.43901855 19.53035645 23.04600586 19.84985352 23.67138672 C25.6904387 36.16578253 26.1158164 49.95098903 26.92895508 63.47338867 C27.48622468 77.94191799 27.48622468 77.94191799 33.79077148 90.61791992 C35.40863282 92.16077329 35.40863282 92.16077329 38.34765625 92.39453125 C41.51799218 92.21298222 41.51799218 92.21298222 43.16015625 89.58203125 C45.28022836 84.78397331 45.53888336 80.69116938 45.53515625 75.51953125 C45.53652588 74.71314209 45.53789551 73.90675293 45.53930664 73.07592773 C45.50061212 68.26490904 45.13102006 63.70644225 44.28515625 58.95703125 C42.98337392 51.46706625 42.57985003 44.36553517 46.47265625 37.58203125 C50.57543119 31.79057792 56.00959164 26.90338348 63.03515625 25.26953125 C74.67574161 23.95172913 83.01810286 25.55265622 92.34765625 32.89453125 C93.28506784 33.85385635 94.20534038 34.83062347 95.09765625 35.83203125 C97.13841198 38.16904438 97.13841198 38.16904438 99.78515625 37.89453125 C102.41022555 36.93339549 102.41022555 36.93339549 104.97265625 35.45703125 C114.27018991 31.15261752 124.64343524 31.01158348 134.41015625 33.89453125 C140.95391183 36.64695628 147.00396383 42.38893611 150.91015625 48.26953125 C153.81186487 55.58688342 154.42785957 63.54178784 151.34765625 70.89453125 C148.65818342 76.30874869 145.49427143 80.87666114 141.34765625 85.26953125 C130.68301412 96.93143954 128.43159589 112.20237251 125.54663086 127.17358398 C122.60351216 142.35655421 118.54555008 155.69094171 111.97265625 169.70703125 C111.52647949 170.6623877 111.08030273 171.61774414 110.62060547 172.60205078 C105.89002729 182.39127095 99.9379323 190.70085202 92.41015625 198.51953125 C91.80042969 199.16124268 91.19070312 199.8029541 90.5625 200.46411133 C88.83106111 202.28097094 87.09039305 204.08851807 85.34765625 205.89453125 C84.53167969 206.75175781 83.71570313 207.60898438 82.875 208.4921875 C79.26340566 212.21512193 75.73024478 215.07212257 71.34765625 217.89453125 C70.36667969 218.53132812 69.38570312 219.168125 68.375 219.82421875 C56.95927916 227.01136032 45.40092102 232.318514 32.34765625 235.89453125 C31.36023438 236.17167969 30.3728125 236.44882813 29.35546875 236.734375 C-4.20779368 245.68161074 -37.23943291 239.14126541 -66.9140625 222.01171875 C-82.83116428 211.82637131 -96.04125989 197.05952686 -105.65234375 180.89453125 C-106.05243652 180.23163086 -106.4525293 179.56873047 -106.86474609 178.88574219 C-127.40073261 144.30144411 -132.3044697 98.63787701 -122.45703125 59.89672852 C-117.75175529 42.85887419 -109.05404214 26.46213865 -96.65234375 13.89453125 C-95.88148437 13.05148438 -95.110625 12.2084375 -94.31640625 11.33984375 C-70.69672131 -13.80862338 -28.79357466 -20.64149181 0 0 Z M-69.65234375 16.89453125 C-70.36003906 17.23742188 -71.06773438 17.5803125 -71.796875 17.93359375 C-74.6151865 19.39318244 -76.47288293 21.60875527 -78.65234375 23.89453125 C-79.80863281 25.00828125 -79.80863281 25.00828125 -80.98828125 26.14453125 C-83.87936112 29.12887176 -86.35427251 32.26166906 -88.83984375 35.58203125 C-93.42768159 41.66986909 -93.42768159 41.66986909 -95.65234375 43.89453125 C-108.76733023 72.97946724 -110.56347521 107.29332662 -101.65234375 137.89453125 C-101.25170276 139.3513149 -100.85203581 140.80836663 -100.453125 142.265625 C-100.02091967 143.80898324 -99.58732927 145.35195428 -99.15234375 146.89453125 C-98.95084717 147.62551025 -98.74935059 148.35648926 -98.54174805 149.10961914 C-97.41920466 152.98106442 -96.13972573 155.75552526 -93.65234375 158.89453125 C-93.203125 160.89453125 -93.203125 160.89453125 -92.96484375 162.89453125 C-92.29966343 165.96676129 -92.29966343 165.96676129 -90.03125 167.984375 C-88.64782033 168.56956845 -87.25941592 169.14309062 -85.8671875 169.70703125 C-82.30912671 171.61470405 -80.16350455 174.65059856 -77.59375 177.703125 C-73.39312923 182.44467078 -69.1446385 185.41948529 -62.65234375 185.89453125 C-62.65234375 186.55453125 -62.65234375 187.21453125 -62.65234375 187.89453125 C-59.35234375 188.55453125 -56.05234375 189.21453125 -52.65234375 189.89453125 C-52.65234375 190.55453125 -52.65234375 191.21453125 -52.65234375 191.89453125 C-48.16555124 193.16070372 -43.84875449 193.11642565 -39.21484375 193.14453125 C-38.36857422 193.16515625 -37.52230469 193.18578125 -36.65039062 193.20703125 C-31.79728091 193.23743444 -28.61779125 193.01643425 -24.65234375 189.89453125 C-23.21051868 188.68055806 -23.21051868 188.68055806 -23.52734375 185.08203125 C-23.5736837 180.902857 -23.5736837 180.902857 -24.65234375 176.89453125 C-25.31234375 176.56453125 -25.97234375 176.23453125 -26.65234375 175.89453125 C-27.06484375 174.71890625 -27.47734375 173.54328125 -27.90234375 172.33203125 C-32.5313491 159.51675536 -44.48559309 151.67264767 -55.08984375 144.01953125 C-74.70774564 129.82382604 -74.70774564 129.82382604 -77.65234375 120.89453125 C-76.93046875 121.84328125 -76.20859375 122.79203125 -75.46484375 123.76953125 C-72.36484969 127.40349558 -68.86569792 130.25539448 -65.08984375 133.14453125 C-64.53594971 133.56847168 -63.98205566 133.99241211 -63.41137695 134.42919922 C-60.26255586 136.7956258 -57.04592416 138.90101882 -53.65234375 140.89453125 C-52.55880835 141.67204495 -51.47445896 142.46273748 -50.40234375 143.26953125 C-47.73478656 145.22225285 -45.03227342 146.76617222 -42.08984375 148.26953125 C-38.17551629 150.37673309 -35.65022455 152.74522332 -32.94140625 156.24609375 C-31.68261505 157.93182892 -31.68261505 157.93182892 -30.12109375 159.38671875 C-27.0080593 162.58254667 -25.05275164 166.69330759 -23.65234375 170.89453125 C-22.99234375 170.89453125 -22.33234375 170.89453125 -21.65234375 170.89453125 C-18.56993405 178.32534036 -17.29196436 185.69352277 -19.359375 193.59765625 C-20.65234375 195.89453125 -20.65234375 195.89453125 -22.7890625 197.18359375 C-36.19671569 200.5126427 -52.72005359 197.77092678 -64.46484375 190.70703125 C-65.21378906 190.19785156 -65.96273437 189.68867188 -66.734375 189.1640625 C-68.72816161 187.72485032 -68.72816161 187.72485032 -71.65234375 186.89453125 C-71.65234375 186.23453125 -71.65234375 185.57453125 -71.65234375 184.89453125 C-72.31234375 184.89453125 -72.97234375 184.89453125 -73.65234375 184.89453125 C-73.65234375 184.23453125 -73.65234375 183.57453125 -73.65234375 182.89453125 C-75.63234375 182.23453125 -77.61234375 181.57453125 -79.65234375 180.89453125 C-78.10873305 184.48799056 -75.92616041 186.97641329 -73.27734375 189.83203125 C-70.94899457 192.35116489 -68.70784425 194.82142518 -66.6328125 197.5546875 C-64.6242682 199.92770138 -63.09519952 201.02419446 -60.33984375 202.39453125 C-57.4579876 203.84322016 -54.91612995 205.41939679 -52.34765625 207.35546875 C-48.71275863 209.98856145 -45.07166813 211.5765682 -40.83984375 213.01953125 C-40.11716309 213.27250977 -39.39448242 213.52548828 -38.64990234 213.78613281 C-32.35597182 215.8800569 -26.01891743 217.07316449 -19.45385742 217.95751953 C-15.85016414 218.45002022 -13.73292081 218.84081321 -10.65234375 220.89453125 C-7.983234 221.09398121 -5.44429838 221.17731568 -2.77734375 221.14453125 C-2.02590088 221.14066406 -1.27445801 221.13679687 -0.50024414 221.1328125 C6.2457701 221.0299181 12.72105272 220.18527837 19.34765625 218.89453125 C19.34765625 218.23453125 19.34765625 217.57453125 19.34765625 216.89453125 C20.52328125 216.83265625 21.69890625 216.77078125 22.91015625 216.70703125 C32.38858201 215.65554186 42.38930563 212.1353963 50.34765625 206.89453125 C50.34765625 206.23453125 50.34765625 205.57453125 50.34765625 204.89453125 C51.83265625 204.55421875 51.83265625 204.55421875 53.34765625 204.20703125 C60.38390842 202.15597799 65.25011934 198.65911879 69.19921875 192.5234375 C70.86412278 190.16199199 73.07048103 188.6462045 75.34765625 186.89453125 C76.27578125 185.71890625 76.27578125 185.71890625 77.22265625 184.51953125 C79.0766591 182.22929243 80.45832084 181.07306911 82.78515625 179.39453125 C87.16224121 175.80307692 88.41529707 171.19458589 90.21484375 165.96875 C91.51220696 162.44797467 93.15374734 159.90099902 95.34765625 156.89453125 C95.34765625 156.23453125 95.34765625 155.57453125 95.34765625 154.89453125 C96.00765625 154.89453125 96.66765625 154.89453125 97.34765625 154.89453125 C100.06557559 146.95187376 101.87513257 139.31029634 102.9140625 130.98046875 C103.4033071 127.49845765 104.37427959 124.26890366 105.34765625 120.89453125 C105.44537732 119.43709132 105.52690218 117.97852899 105.59765625 116.51953125 C106.92313708 101.03980871 115.27600415 84.06765597 126.09375 73.12890625 C130.16747571 68.94772015 131.09428748 65.75940635 131.4375 59.93359375 C131.57781994 57.89959642 131.57781994 57.89959642 130.34765625 56.89453125 C127.93624904 56.73991574 125.57315054 56.66282884 123.16015625 56.64453125 C121.84660156 56.61875 120.53304687 56.59296875 119.1796875 56.56640625 C111.16127208 57.2529984 105.63411802 62.13656426 100.5234375 67.98046875 C96.39168395 73.37594736 94.09440764 78.89936404 92.12939453 85.33862305 C90.6514808 90.16553114 88.74856953 94.50295843 86.36328125 98.94140625 C85.22052633 101.0140626 85.22052633 101.0140626 84.34765625 103.89453125 C82.28515625 104.58203125 82.28515625 104.58203125 80.34765625 104.89453125 C81.32421875 103.10416667 82.30078125 101.31380208 83.27734375 99.5234375 C87.89912234 88.17140469 88.76472426 71.48965677 84.46484375 59.94140625 C81.73090092 54.93236414 77.89659434 49.79811207 72.34765625 47.89453125 C69.65651115 47.73681793 67.04824645 47.80451158 64.34765625 47.89453125 C64.37794922 48.5179541 64.40824219 49.14137695 64.43945312 49.78369141 C64.73088141 55.86669649 64.99075403 61.95026928 65.22753906 68.03564453 C65.32582846 70.37501216 65.45036777 72.70975821 65.58984375 75.046875 C65.93389704 83.8809492 63.82908546 90.81479813 60.34765625 98.89453125 C59.86425781 100.12236328 59.86425781 100.12236328 59.37109375 101.375 C57.19177874 106.42532565 54.17965635 109.2823363 49.34765625 111.89453125 C42.88635302 114.04829899 33.25429691 114.24845314 26.91015625 111.45703125 C19.62805219 106.96719367 14.50418438 99.704316 11.34765625 91.89453125 C11.09338867 91.26796631 10.83912109 90.64140137 10.57714844 89.99584961 C7.20265131 80.32015355 7.3201934 69.90050837 6.76635742 59.76220703 C6.03090405 45.88005512 6.03090405 45.88005512 1.34765625 32.89453125 C0.87328125 31.67765625 0.39890625 30.46078125 -0.08984375 29.20703125 C-2.82944075 23.39908561 -6.15980562 18.41538903 -11.65234375 14.89453125 C-12.97234375 14.89453125 -14.29234375 14.89453125 -15.65234375 14.89453125 C-16.14734375 13.40953125 -16.14734375 13.40953125 -16.65234375 11.89453125 C-18.68898355 11.08698247 -18.68898355 11.08698247 -21.08984375 10.70703125 C-21.89292969 10.54847656 -22.69601563 10.38992187 -23.5234375 10.2265625 C-25.62258831 9.84316447 -25.62258831 9.84316447 -27.65234375 9.89453125 C-27.65234375 9.23453125 -27.65234375 8.57453125 -27.65234375 7.89453125 C-43.01634444 7.29851398 -56.34377488 8.54177561 -69.65234375 16.89453125 Z " fill="#57656D" transform="translate(128.65234375,16.10546875)"/>
<path d="M0 0 C0.91265625 -0.00128906 1.8253125 -0.00257812 2.765625 -0.00390625 C3.72726562 -0.00003906 4.68890625 0.00382812 5.6796875 0.0078125 C6.618125 0.00394531 7.5565625 0.00007813 8.5234375 -0.00390625 C13.64217408 0.00326285 18.510751 0.25256873 23.5546875 1.1328125 C23.5546875 1.7928125 23.5546875 2.4528125 23.5546875 3.1328125 C24.13734375 3.184375 24.72 3.2359375 25.3203125 3.2890625 C33.48694245 4.41903645 39.05013633 8.25439912 45.5546875 13.1328125 C46.5446875 13.844375 46.5446875 13.844375 47.5546875 14.5703125 C60.24811447 24.44297792 66.28485007 38.67788999 68.5546875 54.1328125 C68.838024 58.49417084 68.7706709 62.76994782 68.5546875 67.1328125 C68.52375 68.15375 68.4928125 69.1746875 68.4609375 70.2265625 C67.6861131 85.25815589 60.43533422 98.80058548 49.5546875 109.1328125 C42.19905836 115.08441108 33.23066711 121.36891937 23.5546875 122.1328125 C23.5546875 122.7928125 23.5546875 123.4528125 23.5546875 124.1328125 C11.84860845 125.78043316 -0.39064398 126.86197575 -11.4453125 122.1328125 C-13.60889233 121.435659 -15.77574991 120.74861837 -17.9453125 120.0703125 C-21.0390625 119.09765625 -21.0390625 119.09765625 -23.4453125 118.1328125 C-23.9403125 117.1428125 -23.9403125 117.1428125 -24.4453125 116.1328125 C-25.5590625 115.6790625 -26.6728125 115.2253125 -27.8203125 114.7578125 C-37.20162404 110.15945944 -43.48082662 100.71705422 -48.5078125 91.8828125 C-48.87769287 91.2340918 -49.24757324 90.58537109 -49.62866211 89.91699219 C-54.24277221 81.37162127 -54.78657718 73.44419064 -54.7578125 63.8828125 C-54.77392578 62.82707031 -54.79003906 61.77132812 -54.80664062 60.68359375 C-54.8179216 42.25047273 -47.48625533 29.26267144 -34.8828125 16.3203125 C-26.88379099 8.55060527 -18.04128125 4.68169893 -7.4140625 1.74609375 C-1.81669327 0.00246881 -1.81669327 0.00246881 0 0 Z " fill="#ACC2CD" transform="translate(452.4453125,78.8671875)"/>
<path d="M0 0 C1.04800781 -0.02900391 2.09601562 -0.05800781 3.17578125 -0.08789062 C10.76550259 -0.14887108 16.68960972 1.28800092 23.625 4.3125 C24.6931897 4.75408447 24.6931897 4.75408447 25.78295898 5.20458984 C28.09990755 6.17223738 30.37900848 7.18950424 32.625 8.3125 C32.625 8.9725 32.625 9.6325 32.625 10.3125 C33.2025 10.539375 33.78 10.76625 34.375 11 C38.18583774 13.22298868 40.24429664 16.17038992 41.625 20.3125 C42.01773833 25.189762 42.23006815 30.01413755 39.625 34.3125 C37.5 35.625 37.5 35.625 35.625 36.3125 C35.625 36.9725 35.625 37.6325 35.625 38.3125 C24.53676817 39.0970447 24.53676817 39.0970447 20.9375 36 C19.625 33.3125 19.625 33.3125 18.625 30.3125 C12.28925403 25.62955733 7.83223302 25.10803894 0.25 25.0625 C-0.60078125 25.041875 -1.4515625 25.02125 -2.328125 25 C-7.19576433 24.96967203 -10.39981671 25.17669805 -14.375 28.3125 C-15.66112676 29.37228933 -15.66112676 29.37228933 -15.47265625 31.81640625 C-15.46105469 32.82574219 -15.44945312 33.83507812 -15.4375 34.875 C-15.42847656 35.88691406 -15.41945313 36.89882812 -15.41015625 37.94140625 C-15.39855469 38.72386719 -15.38695312 39.50632813 -15.375 40.3125 C-13.395 40.9725 -11.415 41.6325 -9.375 42.3125 C-9.375 42.9725 -9.375 43.6325 -9.375 44.3125 C-8.68277344 44.34988281 -7.99054687 44.38726562 -7.27734375 44.42578125 C3.24390778 45.13274282 13.65729293 46.79179613 23.625 50.3125 C23.625 50.9725 23.625 51.6325 23.625 52.3125 C24.25148438 52.49425781 24.87796875 52.67601562 25.5234375 52.86328125 C26.74933594 53.24033203 26.74933594 53.24033203 28 53.625 C28.81210937 53.86863281 29.62421875 54.11226562 30.4609375 54.36328125 C32.625 55.3125 32.625 55.3125 34.625 58.3125 C35.3675 58.68375 36.11 59.055 36.875 59.4375 C40.9556915 62.21978966 43.08213174 66.14429326 45.625 70.3125 C45.66238281 69.08015625 45.69976563 67.8478125 45.73828125 66.578125 C46.45390461 47.29334295 46.45390461 47.29334295 49.625 39.3125 C50.285 38.9825 50.945 38.6525 51.625 38.3125 C51.4084375 39.17488281 51.191875 40.03726563 50.96875 40.92578125 C47.58521858 55.76006019 47.62463493 70.39104158 50.625 85.3125 C50.295 85.3125 49.965 85.3125 49.625 85.3125 C49.56505859 86.51132813 49.56505859 86.51132813 49.50390625 87.734375 C48.4365159 98.96174018 43.26833452 106.3928505 34.9375 113.8125 C33.84569236 114.66196132 32.74234424 115.49692026 31.625 116.3125 C30.67625 117.055 29.7275 117.7975 28.75 118.5625 C24.82056371 120.76298432 21.03383021 121.56789756 16.625 122.3125 C16.625 122.9725 16.625 123.6325 16.625 124.3125 C3.74768282 126.12268287 -9.43840051 127.2035402 -21.375 121.3125 C-22.66277344 120.76916016 -22.66277344 120.76916016 -23.9765625 120.21484375 C-33.16381376 116.12082695 -39.89292598 109.31562259 -44.375 100.3125 C-45.90589162 95.48430335 -46.2868074 90.27288591 -44.125 85.625 C-43.5475 84.861875 -42.97 84.09875 -42.375 83.3125 C-41.859375 82.549375 -41.34375 81.78625 -40.8125 81 C-37.48321854 78.69511283 -34.90656383 78.63199294 -30.9140625 78.796875 C-26.63001361 79.66686647 -24.07383072 81.96564496 -21.375 85.3125 C-20.35877342 87.30430409 -19.35787008 89.30402635 -18.375 91.3125 C-15.98547164 93.7280015 -13.42772893 95.78613553 -10.375 97.3125 C-10.375 97.9725 -10.375 98.6325 -10.375 99.3125 C-2.35093875 101.00177605 5.57307789 100.50537735 13.625 99.3125 C13.625 98.6525 13.625 97.9925 13.625 97.3125 C14.73875 96.755625 15.8525 96.19875 17 95.625 C19.38552435 94.23424896 20.53984693 93.43668155 22.125 91.125 C22.87166613 86.92500299 23.03421173 83.38914822 21.625 79.3125 C16.31406048 72.08025 6.8363533 71.61356437 -1.375 70.3125 C-3.35619196 69.92693143 -5.33574837 69.5327226 -7.3125 69.125 C-8.10527344 68.96644531 -8.89804687 68.80789062 -9.71484375 68.64453125 C-10.26269531 68.53496094 -10.81054688 68.42539063 -11.375 68.3125 C-11.375 67.6525 -11.375 66.9925 -11.375 66.3125 C-12.48875 66.250625 -13.6025 66.18875 -14.75 66.125 C-23.54103425 64.99117403 -31.54599137 59.87013471 -37.375 53.3125 C-42.32108302 45.27511509 -42.55887519 34.80249119 -40.62109375 25.81640625 C-37.92280976 16.49409961 -33.92457448 10.17507049 -25.375 5.3125 C-21.95851775 4.06295325 -18.54471003 3.02917196 -15.03515625 2.07421875 C-9.7976824 0.57450157 -5.83428947 0.05190649 0 0 Z " fill="#ACC2CD" transform="translate(664.375,78.6875)"/>
<path d="M0 0 C1.43739513 -0.02712066 2.87493863 -0.04645067 4.3125 -0.0625 C5.51326172 -0.07990234 5.51326172 -0.07990234 6.73828125 -0.09765625 C9 0 9 0 12 1 C12.639375 1.70125 13.27875 2.4025 13.9375 3.125 C14.9584375 4.053125 14.9584375 4.053125 16 5 C17.88783114 4.70762065 17.88783114 4.70762065 20 4 C21.74821262 3.63711344 23.49831326 3.28322765 25.25 2.9375 C26.14203125 2.76089844 27.0340625 2.58429688 27.953125 2.40234375 C28.96632813 2.20318359 28.96632813 2.20318359 30 2 C30 1.34 30 0.68 30 0 C33.27081471 -0.02902429 36.5415963 -0.04680684 39.8125 -0.0625 C40.74126953 -0.07087891 41.67003906 -0.07925781 42.62695312 -0.08789062 C43.51962891 -0.09111328 44.41230469 -0.09433594 45.33203125 -0.09765625 C46.56530151 -0.10551147 46.56530151 -0.10551147 47.82348633 -0.11352539 C50 0 50 0 53 1 C53 1.66 53 2.32 53 3 C54.01191406 3.08378906 55.02382813 3.16757813 56.06640625 3.25390625 C60.23462869 3.85864961 63.46100444 5.63390332 66.9375 7.9375 C67.54650146 8.34009033 68.15550293 8.74268066 68.78295898 9.1574707 C78.27069326 15.69773103 82.67967062 23.45225087 86.08984375 34.19140625 C86.72471984 36.87628065 86.72471984 36.87628065 88 38 C88.11625878 40.43761328 88.16798479 42.84729319 88.17700195 45.28613281 C88.18357315 46.04877945 88.19014435 46.81142609 88.19691467 47.59718323 C88.21669759 50.13249804 88.22832251 52.66775344 88.23828125 55.203125 C88.24235678 56.0675396 88.2464323 56.93195419 88.25063133 57.82256317 C88.27151537 62.39944726 88.28580581 66.97630118 88.29516602 71.55322266 C88.30622338 76.28242525 88.34060859 81.01115637 88.38033772 85.74019241 C88.40648352 89.37419511 88.41485613 93.00808528 88.41844749 96.64217377 C88.42332032 98.38529385 88.43495412 100.12840868 88.45348549 101.87143707 C88.47782984 104.31343354 88.47692073 106.75420843 88.4699707 109.19628906 C88.48278076 109.91544998 88.49559082 110.6346109 88.50878906 111.37556458 C88.47138925 114.98501257 88.055226 116.91335707 86.09562683 119.98773193 C84 122 84 122 82 122 C81.505 123.485 81.505 123.485 81 125 C71.32311348 125.86059267 71.32311348 125.86059267 67.4375 122.6875 C63.67410961 118.53812085 63.8378981 114.91692526 63.79467773 109.59106445 C63.78477814 108.83960144 63.77487854 108.08813843 63.76467896 107.31390381 C63.73309504 104.83039499 63.70831884 102.34686704 63.68359375 99.86328125 C63.66302154 98.14120487 63.64202499 96.4191335 63.62062073 94.69706726 C63.56542766 90.16466334 63.51600618 85.63221406 63.46777344 81.09973145 C63.41753824 76.47464969 63.36186271 71.8496338 63.30664062 67.22460938 C63.19909287 58.14979586 63.09764036 49.07492514 63 40 C62.34 40 61.68 40 61 40 C60.608125 39.113125 60.21625 38.22625 59.8125 37.3125 C57.22033614 32.57509709 54.75799458 29.69656389 49.6875 27.6875 C48.800625 27.460625 47.91375 27.23375 47 27 C47 26.34 47 25.68 47 25 C38.4247637 24.9209135 31.64754555 25.00945393 24.83203125 30.72265625 C18.02101841 39.18922445 18.42677374 47.46399162 18.4609375 57.79296875 C18.45101944 59.42866829 18.43907399 61.06435668 18.42520142 62.70002747 C18.39296002 66.98722113 18.38245751 71.27415944 18.37835693 75.5614624 C18.36957288 82.43298641 18.33403975 89.30430212 18.2861824 96.17565346 C18.2736274 98.56926465 18.27435207 100.96260961 18.27645874 103.35624695 C18.26987737 104.82628585 18.2628709 106.29632292 18.25537109 107.76635742 C18.25411224 109.04572678 18.25285339 110.32509613 18.2515564 111.64323425 C17.8803544 116.59654953 16.7758805 119.14842384 13.4375 122.8125 C10.17237527 125.31310772 7.31727906 125.77954425 3.25390625 125.56640625 C-0.71687773 124.56854892 -3.35853734 122.03453746 -6 119 C-7.17377937 116.65244125 -7.12820917 115.2649812 -7.13371277 112.64834595 C-7.13797775 111.73423447 -7.14224274 110.82012299 -7.14663696 109.87831116 C-7.14618378 108.87255539 -7.14573059 107.86679962 -7.14526367 106.83056641 C-7.14862228 105.77356033 -7.1519809 104.71655426 -7.15544128 103.6275177 C-7.16497246 100.11885415 -7.16689551 96.61023821 -7.16796875 93.1015625 C-7.17117993 90.67019633 -7.17454389 88.23883036 -7.17805481 85.8074646 C-7.18405158 80.70464632 -7.18589416 75.60184499 -7.18530273 70.49902344 C-7.18520111 63.9527732 -7.19885175 57.4066314 -7.21607494 50.86040688 C-7.22718103 45.83675637 -7.22922237 40.8131322 -7.22869301 35.78947067 C-7.22987529 33.37569174 -7.23431087 30.96191218 -7.24202538 28.54814529 C-7.25179668 25.17476001 -7.24895839 21.80161156 -7.24291992 18.42822266 C-7.24853943 17.42651535 -7.25415894 16.42480804 -7.25994873 15.39274597 C-7.25575424 14.47299484 -7.25155975 13.55324371 -7.24723816 12.60562134 C-7.24778293 11.80810266 -7.24832769 11.01058399 -7.24888897 10.18889809 C-6.96507138 7.69281403 -6.35426806 6.11082109 -5 4 C-2.375 2.75 -2.375 2.75 0 2 C0 1.34 0 0.68 0 0 Z " fill="#ACC2CD" transform="translate(530,79)"/>
<path d="M0 0 C0 0.66 0 1.32 0 2 C0.825 2.185625 1.65 2.37125 2.5 2.5625 C7.23862368 4.50872044 10.36089483 7.45803727 14 11 C14.53496094 11.48726562 15.06992187 11.97453125 15.62109375 12.4765625 C18.40216296 15.29702363 19.40118522 17.71315688 19.6875 21.5625 C19.54648294 24.1757224 19.33592369 25.55595088 17.75 27.65234375 C13.36037596 31.43839448 9.10393129 32.51577654 3.4765625 32.48828125 C-1.26428175 31.55357221 -4.45870966 28.1046929 -8 25 C-17.15113861 18.82830187 -27.78425922 18.74983096 -38.359375 20.58203125 C-47.34503482 23.13107205 -54.72229443 28.76283912 -59.5625 36.8125 C-60.66495323 39.25707021 -61.57821542 41.36384637 -62 44 C-62.66 44 -63.32 44 -64 44 C-64 52.25 -64 60.5 -64 69 C-63.34 69 -62.68 69 -62 69 C-61.72027344 69.6290625 -61.44054687 70.258125 -61.15234375 70.90625 C-58.23021211 77.14514199 -55.12873402 82.34835752 -50 87 C-49.33484375 87.60328125 -48.6696875 88.2065625 -47.984375 88.828125 C-38.29067817 95.69716845 -25.28573513 93.50678603 -14 93 C-14 92.34 -14 91.68 -14 91 C-12.2675 90.2265625 -12.2675 90.2265625 -10.5 89.4375 C-7.10245243 87.7864111 -4.7803507 85.92160795 -2.125 83.25 C0.96335865 80.41748171 2.98002009 79.46833259 7.1875 79.3125 C11.54923855 79.6408029 14.02571274 80.65392683 17 84 C19.52935839 87.49292349 19.35682643 90.78944808 19 95 C17.16172726 101.86288488 12.94973684 105.28564816 7 109 C6.34 109 5.68 109 5 109 C4.505 110.485 4.505 110.485 4 112 C-9.6733522 120.48422023 -28.65113261 121.34004442 -44 118 C-44 117.34 -44 116.68 -44 116 C-44.78375 115.9175 -45.5675 115.835 -46.375 115.75 C-56.88599845 113.57531066 -64.68147965 108.70370563 -72 101 C-72.79019531 100.26007813 -73.58039063 99.52015625 -74.39453125 98.7578125 C-85.26045575 87.25654908 -90.19227796 71.47393036 -90.125 56 C-90.12886719 55.11054688 -90.13273437 54.22109375 -90.13671875 53.3046875 C-90.13041234 49.07939209 -90.08073173 45.11707324 -89 41 C-88.34 41 -87.68 41 -87 41 C-86.89042969 40.34773438 -86.78085937 39.69546875 -86.66796875 39.0234375 C-85.73206439 33.86455005 -84.68187314 29.5691172 -82 25 C-81.62746094 24.35160156 -81.25492187 23.70320313 -80.87109375 23.03515625 C-75.41139602 13.84437981 -66.98949881 5.93683373 -57 2 C-56.67 1.34 -56.34 0.68 -56 0 C-37.74639308 -8.17388894 -18.09721973 -9.00489678 0 0 Z " fill="#ACC2CC" transform="translate(380,85)"/>
<path d="M0 0 C0.85400391 0.00064453 1.70800781 0.00128906 2.58789062 0.00195312 C6.14790686 0.02712213 8.90604645 0.05201548 12.3125 1.1875 C12.3125 1.8475 12.3125 2.5075 12.3125 3.1875 C13.42625 3.373125 13.42625 3.373125 14.5625 3.5625 C21.7963692 5.20656118 26.04360241 10.33752923 30.3125 16.1875 C30.3125 16.8475 30.3125 17.5075 30.3125 18.1875 C30.9725 18.1875 31.6325 18.1875 32.3125 18.1875 C37.16646106 27.65272406 39.18363636 36.41678076 36.6484375 46.9453125 C32.46481479 58.55031811 24.80003309 67.75655275 13.6875 73 C4.09073285 77.24842557 -4.70197095 76.83142259 -14.6875 74.1875 C-14.6875 73.5275 -14.6875 72.8675 -14.6875 72.1875 C-15.3475 72.14625 -16.0075 72.105 -16.6875 72.0625 C-24.22099116 69.86523174 -29.78713281 63.79613403 -33.6875 57.1875 C-34.8813771 54.55181605 -35.94144252 51.91183608 -36.92578125 49.19140625 C-37.51859952 47.21982658 -37.51859952 47.21982658 -38.6875 46.1875 C-39.77015604 33.61322342 -37.71387297 23.91104179 -30.6875 13.1875 C-21.94005052 4.04071043 -12.59794631 -0.1831377 0 0 Z " fill="#57656D" transform="translate(460.6875,103.8125)"/>
<path d="M0 0 C0 0.66 0 1.32 0 2 C1.10021484 2.16628906 1.10021484 2.16628906 2.22265625 2.3359375 C9.62721346 4.10636609 15.77076985 9.84956469 20 16 C25.26506985 24.99449432 26.55492163 34.2825581 24.46875 44.63671875 C23.76333153 46.83348389 22.95110299 48.89863142 22 51 C21.69835937 51.69738281 21.39671875 52.39476562 21.0859375 53.11328125 C17.28616985 61.31521874 12.00975034 66.77013184 4 71 C3.01 71 2.02 71 1 71 C1 71.66 1 72.32 1 73 C-7.6880044 75.89600147 -19.66883367 75.57966814 -28.05493164 71.89916992 C-34.12771747 68.79233978 -39.40176129 64.88433774 -43 59 C-43 58.34 -43 57.68 -43 57 C-43.66 57 -44.32 57 -45 57 C-50.18228238 47.53670174 -51.00148488 33.5514789 -47.9375 23.0625 C-43.58966845 12.50055072 -35.89437813 4.53275467 -25.48828125 -0.05859375 C-17.81429185 -2.1296256 -7.60651953 -2.53550651 0 0 Z " fill="#56656D" transform="translate(908,105)"/>
<path d="M0 0 C1.70387433 -0.19100371 3.41410092 -0.32572126 5.125 -0.4375 C6.07632813 -0.51871094 7.02765625 -0.59992187 8.0078125 -0.68359375 C11.85483081 0.19529424 13.26561408 1.57687619 15.72169495 4.59295082 C18.43856237 9.7088138 17.79275299 15.57372554 17.71289062 21.2253418 C17.71447403 22.66814673 17.71867363 24.11095079 17.72528076 25.55374146 C17.73551415 29.4567743 17.70855336 33.35874543 17.67422676 37.26160789 C17.64407364 41.35030696 17.64650101 45.43899461 17.64489746 49.52778625 C17.63752259 56.38988285 17.60763739 63.25157808 17.5625 70.11352539 C17.50468495 78.92070124 17.48404502 87.7275547 17.4751358 96.53489971 C17.46717574 104.11178853 17.44217845 111.68860735 17.41444206 119.26544595 C17.40624948 121.69937433 17.40039565 124.13330024 17.39485168 126.56723595 C17.38505905 130.38979132 17.3646415 134.21215178 17.33597565 138.03461075 C17.32693855 139.43745602 17.3212544 140.84032748 17.31916046 142.2432003 C17.31566244 144.15730531 17.29862247 146.07137133 17.28088379 147.98539734 C17.2719598 149.59227181 17.2719598 149.59227181 17.26285553 151.23160839 C16.87976748 155.26628756 15.64786259 157.29324081 12.9375 160.25 C8.91658736 162.64543732 5.57613183 162.84406048 1 162 C-2.0625 160.125 -2.0625 160.125 -4 158 C-4 157.34 -4 156.68 -4 156 C-4.99 155.67 -5.98 155.34 -7 155 C-7 106.16 -7 57.32 -7 7 C-6.34 7 -5.68 7 -5 7 C-4.731875 6.360625 -4.46375 5.72125 -4.1875 5.0625 C-3 3 -3 3 0 2 C0 1.34 0 0.68 0 0 Z " fill="#ADC3CE" transform="translate(971,42)"/>
<path d="M0 0 C1.1240625 -0.00257812 2.248125 -0.00515625 3.40625 -0.0078125 C5.9720699 0.10233633 8.06266427 0.37229338 10.5 1.125 C10.5 1.785 10.5 2.445 10.5 3.125 C11.13808594 3.23457031 11.77617188 3.34414062 12.43359375 3.45703125 C13.25988281 3.61558594 14.08617187 3.77414063 14.9375 3.9375 C15.76121094 4.08832031 16.58492187 4.23914063 17.43359375 4.39453125 C18.45646484 4.75611328 18.45646484 4.75611328 19.5 5.125 C19.995 6.61 19.995 6.61 20.5 8.125 C21.0775 8.41375 21.655 8.7025 22.25 9 C26.97625287 11.36312644 30.45777753 15.8876187 33.5 20.125 C34.25 22.4375 34.25 22.4375 34.5 24.125 C35.16 24.125 35.82 24.125 36.5 24.125 C36.5 25.115 36.5 26.105 36.5 27.125 C12.74 27.125 -11.02 27.125 -35.5 27.125 C-33.63183837 19.65235348 -29.19069647 14.18339686 -23.5 9.125 C-22.84 9.125 -22.18 9.125 -21.5 9.125 C-21.5 8.465 -21.5 7.805 -21.5 7.125 C-19.75318707 6.14015892 -18.0024149 5.16233813 -16.25 4.1875 C-15.27546875 3.64222656 -14.3009375 3.09695312 -13.296875 2.53515625 C-8.70798333 0.22148322 -5.13701639 -0.01178215 0 0 Z " fill="#5A6871" transform="translate(772.5,102.875)"/>
<path d="M0 0 C1.1725131 0.95117134 2.33787015 1.91117009 3.5 2.875 C4.1496875 3.40867188 4.799375 3.94234375 5.46875 4.4921875 C5.9740625 4.98976562 6.479375 5.48734375 7 6 C7 6.66 7 7.32 7 8 C7.85271484 8.38865234 7.85271484 8.38865234 8.72265625 8.78515625 C11.21090372 10.1125061 13.24280814 11.66881419 15.4375 13.4375 C18.52887612 15.88336855 21.58583315 18.02337709 25 20 C26.08847323 20.78458476 27.17128761 21.57704837 28.25 22.375 C30.92000006 24.32369285 33.63394857 25.90677816 36.5625 27.4375 C40.84625208 29.75542064 43.81007445 32.31931668 47 36 C47 36.66 47 37.32 47 38 C47.99 38.33 48.98 38.66 50 39 C51.38671875 40.9609375 51.38671875 40.9609375 52.6875 43.375 C53.12449219 44.16648438 53.56148438 44.95796875 54.01171875 45.7734375 C55 48 55 48 55 51 C55.66 51 56.32 51 57 51 C60.67382758 57.64241147 61.98995552 63.41838945 61 71 C59.29051287 75.31870434 57.12387325 76.98849117 53 79 C50.29085582 79.32230976 47.88984375 79.47632943 45.1875 79.4375 C44.07459595 79.42614014 44.07459595 79.42614014 42.93920898 79.41455078 C30.85720892 79.06412546 19.92780215 76.07684471 10 69 C8.515 68.01 8.515 68.01 7 67 C7 66.34 7 65.68 7 65 C6.34 65 5.68 65 5 65 C5 64.34 5 63.68 5 63 C4.38125 62.855625 3.7625 62.71125 3.125 62.5625 C1 62 1 62 -1 61 C0.32 62.65 1.64 64.3 3 66 C2.505 66.99 2.505 66.99 2 68 C-1.35332656 64.99356929 -3.13013668 62.0797018 -5 58 C-5.391875 57.21625 -5.78375 56.4325 -6.1875 55.625 C-6.455625 55.08875 -6.72375 54.5525 -7 54 C-7.66 54 -8.32 54 -9 54 C-11 51 -11 51 -11 48 C-5.08123955 49.03578308 -2.69053579 52.38366521 0.98828125 56.7421875 C5.19837691 61.46730457 9.84075519 64.34751969 16 66 C16 66.66 16 67.32 16 68 C19.3 68.66 22.6 69.32 26 70 C26 70.66 26 71.32 26 72 C29.72901814 72.08736736 33.45777165 72.14051482 37.1875 72.1875 C38.24259766 72.21263672 39.29769531 72.23777344 40.38476562 72.26367188 C41.40634766 72.27333984 42.42792969 72.28300781 43.48046875 72.29296875 C44.41785889 72.3086792 45.35524902 72.32438965 46.32104492 72.34057617 C49.55399428 71.92957058 51.41711631 70.96659241 54 69 C54.60481772 66.03618482 54.60481772 66.03618482 54.3125 62.8125 C54.24482422 61.18248047 54.24482422 61.18248047 54.17578125 59.51953125 C54.11777344 58.68808594 54.05976562 57.85664063 54 57 C52.515 56.505 52.515 56.505 51 56 C50.29575696 54.08848317 49.59652294 52.17488581 48.9296875 50.25 C43.63158214 37.4276946 29.23049347 29.10816496 18.515625 21.15625 C11.65614894 15.99948076 4.78488472 10.17732709 0 3 C0 2.01 0 1.02 0 0 Z " fill="#8096A0" transform="translate(50,136)"/>
<path d="M0 0 C3 1 3 1 4 3 C4.53950709 12.20274593 4.17836059 21.06204652 2.5 30.125 C1.15471663 37.61733885 0.63752713 44.95076305 0.5625 52.5625 C0.54058594 53.54943848 0.51867187 54.53637695 0.49609375 55.55322266 C0.51816587 63.71301133 2.72583636 70.02021363 6.75 77.0625 C10.04880707 79.90313942 12.69873654 79.78493683 17 80 C17.27328125 79.26523438 17.5465625 78.53046875 17.828125 77.7734375 C18.93440705 75.15523664 20.20059878 72.99908252 21.75 70.625 C31.23831036 54.97393904 33.12623929 38.91209456 34 21 C34.66 21 35.32 21 36 21 C41.14384618 31.28769236 37.36970043 52.37145872 34 63 C30.42361111 72.05092593 30.42361111 72.05092593 26 75 C25.401875 76.11375 24.80375 77.2275 24.1875 78.375 C22.055197 82.1923814 20.09345718 84.1806857 16 86 C10.62619736 86.51517447 6.31159753 85.72438128 2.0625 82.3125 C-6.3090208 73.96063066 -6.19074392 62.16509205 -6.25 51 C-6.20744465 41.27564949 -5.28946596 32.2105047 -2 23 C-1.00813571 18.05548251 -0.69716543 13.14803614 -0.4375 8.125 C-0.39431641 7.34125 -0.35113281 6.5575 -0.30664062 5.75 C-0.20146649 3.83349351 -0.10032075 1.91676667 0 0 Z " fill="#7D939D" transform="translate(130,117)"/>
<path d="M0 0 C1.65 0.33 3.3 0.66 5 1 C4.59663662 4.83195212 3.6396819 7.9040272 2.0625 11.375 C-0.38808287 17.20508705 -0.90769448 22.92796612 -1.5078125 29.16796875 C-1.99423474 32.95511336 -2.90399371 36.34948878 -4 40 C-4.34005164 41.76574965 -4.65455832 43.53670414 -4.9375 45.3125 C-5.86882297 50.69182146 -7.31237507 55.81336606 -9 61 C-9.66 61 -10.32 61 -11 61 C-11.37125 62.0209375 -11.37125 62.0209375 -11.75 63.0625 C-12.94024723 65.85958098 -14.38556124 68.3651709 -15.9375 70.97265625 C-17.1549135 73.29558862 -17.99441945 75.65570539 -18.875 78.125 C-20.70301256 82.84795852 -22.90060351 84.94554772 -27 88 C-28.84058288 89.97903381 -30.58360246 92.02477447 -32.3359375 94.08203125 C-34.44076193 96.50801434 -36.72963655 98.72963655 -39 101 C-39.639375 101.86625 -40.27875 102.7325 -40.9375 103.625 C-44.93008514 108.22252229 -50.30632029 109.51964328 -56 111 C-56 111.66 -56 112.32 -56 113 C-62.04415464 116.48986816 -68.20603339 118.85103923 -74.875 120.8125 C-75.98089478 121.14060669 -75.98089478 121.14060669 -77.10913086 121.4753418 C-80.56805449 122.45913775 -83.37594757 123 -87 123 C-87 123.66 -87 124.32 -87 125 C-94.41217637 126.44376305 -101.58453981 127.21119416 -109.125 127.25 C-109.85904053 127.25902344 -110.59308105 127.26804687 -111.34936523 127.27734375 C-115.10597863 127.25633997 -116.79834179 127.13443881 -120 125 C-122.71145164 124.52185154 -125.39898519 124.11812507 -128.125 123.75 C-142.2030346 121.57977262 -154.05403068 117.47562492 -165.4609375 108.85546875 C-167.92830008 106.85477809 -167.92830008 106.85477809 -171 106 C-172.1875 103.9375 -172.1875 103.9375 -173 102 C-170.9637551 103.01812245 -168.93639045 104.03469612 -166.9375 105.125 C-164.89863452 106.20579336 -164.89863452 106.20579336 -162 106 C-162 106.66 -162 107.32 -162 108 C-160.68 108.33 -159.36 108.66 -158 109 C-158 109.66 -158 110.32 -158 111 C-156.68 111.33 -155.36 111.66 -154 112 C-154 112.66 -154 113.32 -154 114 C-152.02 113.505 -152.02 113.505 -150 113 C-149.505 113.99 -149.505 113.99 -149 115 C-145.3871899 116.44512404 -142.93312158 117 -139 117 C-138.01 117.99 -138.01 117.99 -137 119 C-135.04117876 119.29382319 -133.07984854 119.57988774 -131.109375 119.78125 C-128.38393596 120.06388812 -125.69817809 120.52781883 -123 121 C-123 121.66 -123 122.32 -123 123 C-122.443125 122.98839844 -121.88625 122.97679687 -121.3125 122.96484375 C-117.39510561 122.91852321 -113.62937056 122.98503644 -109.75 123.5625 C-106.30113478 123.96486761 -104.3048678 123.7626618 -101 123 C-98.66698014 122.96175377 -96.33288492 122.95425716 -94 123 C-94 122.34 -94 121.68 -94 121 C-93.39671875 120.93941406 -92.7934375 120.87882812 -92.171875 120.81640625 C-91.37265625 120.73261719 -90.5734375 120.64882812 -89.75 120.5625 C-88.96109375 120.48128906 -88.1721875 120.40007812 -87.359375 120.31640625 C-85.02508379 120.04935711 -85.02508379 120.04935711 -82.890625 119.46484375 C-81 119 -81 119 -78 119 C-78 118.34 -78 117.68 -78 117 C-76.95199219 116.83564453 -76.95199219 116.83564453 -75.8828125 116.66796875 C-74.97273438 116.50941406 -74.06265625 116.35085937 -73.125 116.1875 C-72.22007812 116.03667969 -71.31515625 115.88585937 -70.3828125 115.73046875 C-67.65587522 115.16948699 -67.65587522 115.16948699 -66 112 C-62.875 111.8125 -62.875 111.8125 -60 112 C-59.505 110.515 -59.505 110.515 -59 109 C-57.35 108.67 -55.7 108.34 -54 108 C-54 107.34 -54 106.68 -54 106 C-51 104 -51 104 -48 104 C-48 103.34 -48 102.68 -48 102 C-47.34 102 -46.68 102 -46 102 C-46 101.34 -46 100.68 -46 100 C-44.68 100 -43.36 100 -42 100 C-41.01 98.02 -41.01 98.02 -40 96 C-39.01 96 -38.02 96 -37 96 C-37 95.01 -37 94.02 -37 93 C-35.68 92.67 -34.36 92.34 -33 92 C-33 91.01 -33 90.02 -33 89 C-32.071875 88.319375 -32.071875 88.319375 -31.125 87.625 C-28.56057419 85.6639685 -28.09650834 83.97623693 -27 81 C-26.34 80.67 -25.68 80.34 -25 80 C-24.01 78.515 -24.01 78.515 -23 77 C-22.34 76.34 -21.68 75.68 -21 75 C-20.28591666 73.01643517 -19.61382258 71.01684563 -19 69 C-18.34 69 -17.68 69 -17 69 C-16.67 67.02 -16.34 65.04 -16 63 C-15.34 63 -14.68 63 -14 63 C-13.87882813 62.28972656 -13.75765625 61.57945312 -13.6328125 60.84765625 C-13.38144531 59.46900391 -13.38144531 59.46900391 -13.125 58.0625 C-12.96257812 57.14597656 -12.80015625 56.22945312 -12.6328125 55.28515625 C-12.31957031 54.15400391 -12.31957031 54.15400391 -12 53 C-11.34 52.67 -10.68 52.34 -10 52 C-9.30772968 49.19019327 -9.30772968 49.19019327 -8.875 45.9375 C-8.70742187 44.83277344 -8.53984375 43.72804687 -8.3671875 42.58984375 C-8.24601563 41.73519531 -8.12484375 40.88054687 -8 40 C-7.34 40 -6.68 40 -6 40 C-5.67 34.39 -5.34 28.78 -5 23 C-5.99 23.66 -6.98 24.32 -8 25 C-6.54335153 20.87282934 -4.43742385 17.61920511 -2 14 C-0.97069953 12.01492052 0.03863929 10.01885749 1 8 C0.67 7.67 0.34 7.34 0 7 C-0.04092937 4.66702567 -0.04241723 2.33294775 0 0 Z " fill="#97AAB3" transform="translate(235,110)"/>
<path d="M0 0 C2.5 1.4375 2.5 1.4375 4 3 C4 3.66 4 4.32 4 5 C4.598125 5.226875 5.19625 5.45375 5.8125 5.6875 C8.64869142 7.38921485 9.44627219 9.08676036 11 12 C11.35449219 12.56332031 11.70898438 13.12664062 12.07421875 13.70703125 C14.29162775 17.2782268 15.51229827 19.77353931 15 24 C18.82261094 23.4634932 20.1578257 21.98094911 22.5 19 C24.8421743 16.01905089 26.17738906 14.5365068 30 14 C30 13.34 30 12.68 30 12 C33.82989106 10.19769832 36.78121808 9.80377759 41 10 C41 9.34 41 8.68 41 8 C42.91750286 8.08743331 44.83406665 8.1956189 46.75 8.3125 C47.81734375 8.37050781 48.8846875 8.42851563 49.984375 8.48828125 C53.1821068 9.03090154 54.62598691 9.85071145 57 12 C56.625 14.9375 56.625 14.9375 56 18 C55.34 18.33 54.68 18.66 54 19 C54 16.69 54 14.38 54 12 C51.62429457 11.9183918 49.25144159 11.85922778 46.875 11.8125 C46.20984375 11.78736328 45.5446875 11.76222656 44.859375 11.73632812 C38.22054998 11.63869835 33.49310609 14.01806161 28.5703125 18.38671875 C22.54421334 24.57771118 19.27990451 31.27194675 16.77978516 39.44604492 C15.08016348 44.98427273 12.75509858 49.92481841 10 55 C9.3287554 56.33103452 8.66062672 57.66366376 8 59 C6.68 59 5.36 59 4 59 C4.53747431 56.31262846 5.37550251 54.15511935 6.5 51.625 C10.82648955 41.16931693 11.02227913 24.61504839 7.05078125 13.98046875 C4.43524961 9.05082362 1.22896041 5.14672951 -4 3 C-6.66353755 2.48479018 -9.29499131 2.27050087 -12 2 C-11.835 2.825 -11.67 3.65 -11.5 4.5 C-10.94103955 8.41272317 -10.93192813 12.05183173 -11 16 C-13 14 -13 14 -13.1953125 10.9609375 C-13.17210937 9.77757813 -13.14890625 8.59421875 -13.125 7.375 C-13.10695312 6.18648438 -13.08890625 4.99796875 -13.0703125 3.7734375 C-13.04710937 2.85820313 -13.02390625 1.94296875 -13 1 C-8.23973804 -1.14418756 -5.00444231 -1.29551325 0 0 Z " fill="#82939D" transform="translate(205,62)"/>
<path d="M0 0 C0.87527344 0.06703125 1.75054687 0.1340625 2.65234375 0.203125 C5.36750974 0.81920805 6.32984767 1.62278327 8.0625 3.75 C7.375 5.6875 7.375 5.6875 6.0625 7.75 C3.4375 8.5 3.4375 8.5 1.0625 8.75 C1.34491641 10.21015291 1.63876614 11.66809793 1.9375 13.125 C2.18113281 14.34316406 2.18113281 14.34316406 2.4296875 15.5859375 C2.92908932 17.93673923 2.92908932 17.93673923 5.0625 19.75 C7.49502661 20.21162427 7.49502661 20.21162427 10.1875 20.375 C11.09757812 20.44976562 12.00765625 20.52453125 12.9453125 20.6015625 C13.64398438 20.65054688 14.34265625 20.69953125 15.0625 20.75 C14.5675 22.235 14.5675 22.235 14.0625 23.75 C12.29175083 23.77705729 10.52088289 23.79642195 8.75 23.8125 C7.76386719 23.82410156 6.77773437 23.83570312 5.76171875 23.84765625 C3.0625 23.75 3.0625 23.75 0.0625 22.75 C-0.2675 21.76 -0.5975 20.77 -0.9375 19.75 C-5.8875 19.75 -10.8375 19.75 -15.9375 19.75 C-15.9375 19.09 -15.9375 18.43 -15.9375 17.75 C-16.576875 17.5025 -17.21625 17.255 -17.875 17 C-19.9375 15.75 -19.9375 15.75 -20.6875 13.625 C-20.77 13.00625 -20.8525 12.3875 -20.9375 11.75 C-17.0625 13.625 -17.0625 13.625 -15.9375 14.75 C-12.90387886 15.11862727 -9.96774499 15.15403267 -6.9375 14.75 C-4.75731316 13.09628384 -4.75731316 13.09628384 -3.9375 10.75 C-3.9375 9.76 -3.9375 8.77 -3.9375 7.75 C-4.4325 7.275625 -4.9275 6.80125 -5.4375 6.3125 C-6.9375 4.75 -6.9375 4.75 -6.9375 0.75 C-4.38134834 -0.52807583 -2.83395757 -0.24968789 0 0 Z " fill="#272C2E" transform="translate(88.9375,60.25)"/>
<path d="M0 0 C3.50373364 2.33582243 3.76338644 3.42567847 5.0625 7.3125 C6.36977756 11.25260207 6.36977756 11.25260207 8.00708008 15.05810547 C9.43559017 19.29059788 9.58316889 23.45469679 9.8515625 27.89453125 C9.94719986 29.31556404 9.94719986 29.31556404 10.04476929 30.76530457 C10.24592167 33.7805847 10.43561127 36.79646042 10.625 39.8125 C10.75966044 41.86137797 10.89506858 43.91020694 11.03125 45.95898438 C11.36283416 50.97212977 11.68414243 55.98584017 12 61 C11.67 60.34 11.34 59.68 11 59 C10.34 58.67 9.68 58.34 9 58 C9 52.39 9 46.78 9 41 C8.01 41 7.02 41 6 41 C6 40.34 6 39.68 6 39 C5.34 39 4.68 39 4 39 C3.38125 38.360625 2.7625 37.72125 2.125 37.0625 C-0.03520783 34.96582769 -1.08776721 34.41603326 -4 34 C-2.45468856 36.70429501 -0.95821178 39.04670449 1.125 41.375 C3.4202293 44.58832102 3.6948519 47.1093617 4 51 C1.84612338 48.38457838 -0.10319566 45.83144708 -1.875 42.9375 C-4.86300456 38.80702311 -8.18763212 36.60412263 -13 35 C-13 34.34 -13 33.68 -13 33 C-10.36 33.33 -7.72 33.66 -5 34 C-5 33.34 -5 32.68 -5 32 C-7.97 31.01 -10.94 30.02 -14 29 C-14 28.67 -14 28.34 -14 28 C-8.02462852 28.39293826 -3.384653 29.36046422 2 32 C2.804375 32.391875 3.60875 32.78375 4.4375 33.1875 C4.953125 33.455625 5.46875 33.72375 6 34 C6 33.34 6 32.68 6 32 C6.66 32 7.32 32 8 32 C7.67 26.72 7.34 21.44 7 16 C6.01 15.67 5.02 15.34 4 15 C3.4375 13.25 3.4375 13.25 3 11 C2.67 10.21625 2.34 9.4325 2 8.625 C0.90814525 5.75888129 0.42290178 3.0307961 0 0 Z " fill="#ADB7BD" transform="translate(125,41)"/>
<path d="M0 0 C2.0362449 1.01812245 4.06360955 2.03469612 6.0625 3.125 C8.10136548 4.20579336 8.10136548 4.20579336 11 4 C11 4.66 11 5.32 11 6 C12.32 6.33 13.64 6.66 15 7 C15 7.66 15 8.32 15 9 C16.32 9.33 17.64 9.66 19 10 C19 10.66 19 11.32 19 12 C20.32 11.67 21.64 11.34 23 11 C23.33 11.66 23.66 12.32 24 13 C27.6128101 14.44512404 30.06687842 15 34 15 C34.66 15.66 35.32 16.32 36 17 C37.95882124 17.29382319 39.92015146 17.57988774 41.890625 17.78125 C44.61606404 18.06388812 47.30182191 18.52781883 50 19 C50 19.66 50 20.32 50 21 C50.556875 20.98839844 51.11375 20.97679687 51.6875 20.96484375 C57.93832584 20.89093196 64.01546794 21.00515598 70 23 C62.99891547 26.50054226 52.31184636 23.81514278 45 22 C43.76121094 21.72027344 42.52242187 21.44054687 41.24609375 21.15234375 C29.21781186 18.38047121 18.7044789 14.48321426 8.375 7.55078125 C6.08008762 5.97892985 6.08008762 5.97892985 3.765625 4.92578125 C1.46380719 3.71885466 0.94590019 2.36475048 0 0 Z " fill="#ABB9C1" transform="translate(62,212)"/>
<path d="M0 0 C2.5 1.4375 2.5 1.4375 4 3 C4 3.66 4 4.32 4 5 C4.598125 5.226875 5.19625 5.45375 5.8125 5.6875 C8.64869142 7.38921485 9.44627219 9.08676036 11 12 C11.35449219 12.56332031 11.70898438 13.12664062 12.07421875 13.70703125 C14.29162775 17.2782268 15.51229827 19.77353931 15 24 C18.79588866 23.45773019 20.47211993 21.79872437 23 19 C22.34 21.31 21.68 23.62 21 26 C18.36 26 15.72 26 13 26 C13 24.68 13 23.36 13 22 C12.01 21.67 11.02 21.34 10 21 C9.24011699 19.31504202 8.4883793 17.625086 7.80859375 15.90625 C5.66885479 10.86184125 2.67720543 6.84699461 -2 4 C-5.30418704 3.10670212 -8.61555855 2.49945155 -12 2 C-11.835 2.825 -11.67 3.65 -11.5 4.5 C-10.94103955 8.41272317 -10.93192813 12.05183173 -11 16 C-13 14 -13 14 -13.1953125 10.9609375 C-13.17210937 9.77757813 -13.14890625 8.59421875 -13.125 7.375 C-13.10695312 6.18648438 -13.08890625 4.99796875 -13.0703125 3.7734375 C-13.04710937 2.85820313 -13.02390625 1.94296875 -13 1 C-8.23973804 -1.14418756 -5.00444231 -1.29551325 0 0 Z " fill="#7A8992" transform="translate(205,62)"/>
<path d="M0 0 C3 1 3 1 4 3 C4.12690999 5.80382544 4.18977664 8.57074599 4.1875 11.375 C4.1884668 12.58325439 4.1884668 12.58325439 4.18945312 13.81591797 C4.13212453 20.35268092 3.40387458 26.60735683 2 33 C1.67 33 1.34 33 1 33 C0.67 31.35 0.34 29.7 0 28 C-0.48509793 29.37291868 -0.96275513 30.74846703 -1.4375 32.125 C-1.70433594 32.89070313 -1.97117188 33.65640625 -2.24609375 34.4453125 C-3.98598913 40.3411238 -4.26573606 46.27431184 -4.5625 52.375 C-4.60568359 53.20644531 -4.64886719 54.03789062 -4.69335938 54.89453125 C-4.79861805 56.92953228 -4.89973072 58.96474703 -5 61 C-5.33 61 -5.66 61 -6 61 C-6.45406627 35.47138554 -6.45406627 35.47138554 -2 23 C-1.00813571 18.05548251 -0.69716543 13.14803614 -0.4375 8.125 C-0.39431641 7.34125 -0.35113281 6.5575 -0.30664062 5.75 C-0.20146649 3.83349351 -0.10032075 1.91676667 0 0 Z " fill="#8FA3AC" transform="translate(130,117)"/>
<path d="M0 0 C0.33 0 0.66 0 1 0 C1 34.65 1 69.3 1 105 C0.67 105 0.34 105 0 105 C-0.495 87.675 -0.495 87.675 -1 70 C-1.66 71.32 -2.32 72.64 -3 74 C-3.33 73.34 -3.66 72.68 -4 72 C-3.67 71.01 -3.34 70.02 -3 69 C-1.39224848 56.49526595 -1.50592311 44.35904172 -4 32 C-3.34 32.33 -2.68 32.66 -2 33 C-1.67 33.99 -1.34 34.98 -1 36 C-0.67 24.12 -0.34 12.24 0 0 Z " fill="#70808A" transform="translate(522,89)"/>
<path d="M0 0 C1.65 0.33 3.3 0.66 5 1 C4.59663662 4.83195212 3.6396819 7.9040272 2.0625 11.375 C-0.38808287 17.20508705 -0.90769448 22.92796612 -1.5078125 29.16796875 C-2.21128361 34.6449938 -3.86031282 39.72365152 -5.625 44.9375 C-5.88539063 45.70964844 -6.14578125 46.48179687 -6.4140625 47.27734375 C-6.60742188 47.84582031 -6.80078125 48.41429687 -7 49 C-7.66 48.67 -8.32 48.34 -9 48 C-8.67 45.36 -8.34 42.72 -8 40 C-7.34 40 -6.68 40 -6 40 C-5.67 34.39 -5.34 28.78 -5 23 C-5.99 23.66 -6.98 24.32 -8 25 C-6.54335153 20.87282934 -4.43742385 17.61920511 -2 14 C-0.97069953 12.01492052 0.03863929 10.01885749 1 8 C0.67 7.67 0.34 7.34 0 7 C-0.04092937 4.66702567 -0.04241723 2.33294775 0 0 Z " fill="#A7BAC4" transform="translate(235,110)"/>
<path d="M0 0 C0.70189453 0.00451172 1.40378906 0.00902344 2.12695312 0.01367188 C3.85550538 0.02543073 5.58401365 0.04336546 7.3125 0.0625 C7.6425 1.3825 7.9725 2.7025 8.3125 4.0625 C7.6525 4.0625 6.9925 4.0625 6.3125 4.0625 C6.3125 5.3825 6.3125 6.7025 6.3125 8.0625 C5.29929687 8.24425781 5.29929687 8.24425781 4.265625 8.4296875 C3.37359375 8.59726563 2.4815625 8.76484375 1.5625 8.9375 C0.23992188 9.18113281 0.23992188 9.18113281 -1.109375 9.4296875 C-3.58619419 10.03763403 -5.512402 10.74085974 -7.6875 12.0625 C-8.82100534 14.07919827 -8.82100534 14.07919827 -9.6875 16.0625 C-10.3475 16.3925 -11.0075 16.7225 -11.6875 17.0625 C-11.46880073 13.23526285 -10.77280916 12.14393147 -7.9375 9.4375 C-0.84996057 4.0625 -0.84996057 4.0625 4.3125 4.0625 C4.3125 3.4025 4.3125 2.7425 4.3125 2.0625 C-5.00225855 4.17413968 -5.00225855 4.17413968 -13.6875 8.0625 C-14.6775 8.3925 -15.6675 8.7225 -16.6875 9.0625 C-15.63875002 6.44062506 -15.03818687 5.26878639 -12.5625 3.8125 C-11.94375 3.565 -11.325 3.3175 -10.6875 3.0625 C-10.6875 2.4025 -10.6875 1.7425 -10.6875 1.0625 C-7.06882441 -0.1437252 -3.76243749 -0.04566918 0 0 Z " fill="#9AA5A9" transform="translate(58.6875,62.9375)"/>
<path d="M0 0 C4.34586828 -0.39507893 6.32003497 -0.45331002 10 2 C10.36328125 4.09375 10.36328125 4.09375 10.3125 6.5 C10.30863281 7.2940625 10.30476563 8.088125 10.30078125 8.90625 C10 11 10 11 8 13 C1.99541284 13.54587156 1.99541284 13.54587156 -0.9375 11.9375 C-2.5957539 8.91362524 -2.30144019 6.37613017 -2 3 C-1.34 2.01 -0.68 1.02 0 0 Z " fill="#2F3337" transform="translate(67,41)"/>
<path d="M0 0 C0.66 0 1.32 0 2 0 C7.13286116 10.26572233 3.39295867 31.39700416 0 42 C-1.45901741 45.47385097 -3.07305589 48.76303855 -5 52 C-6.2017388 48.39478361 -5.73243247 47.88710733 -4.1875 44.5625 C-1.74396458 38.83837032 -0.80223391 33.14342286 0 27 C-0.66 27 -1.32 27 -2 27 C-1.34 18.09 -0.68 9.18 0 0 Z " fill="#8BA1AB" transform="translate(164,138)"/>
<path d="M0 0 C2.3125 1.0625 2.3125 1.0625 4 3 C4.5 6.5 4.5 6.5 4 10 C1.73523555 12.70029608 0.37867037 12.96213296 -3.125 13.3125 C-6 13 -6 13 -8 11 C-8.30078125 8.90625 -8.30078125 8.90625 -8.3125 6.5 C-8.32925781 5.7059375 -8.34601563 4.911875 -8.36328125 4.09375 C-8.18345703 3.05734375 -8.18345703 3.05734375 -8 2 C-4.74236778 -0.17175481 -3.77560787 -0.46043998 0 0 Z " fill="#2A2E32" transform="translate(116,50)"/>
<path d="M0 0 C3.875 1.875 3.875 1.875 5 3 C6.34747084 3.23075082 7.70377565 3.41153063 9.0625 3.5625 C10.361875 3.706875 11.66125 3.85125 13 4 C11.02 4.99 11.02 4.99 9 6 C11.91652174 6.16681109 11.91652174 6.16681109 15 6 C15.66 5.34 16.32 4.68 17 4 C17 3.01 17 2.02 17 1 C17.99 0.67 18.98 0.34 20 0 C20 0.99 20 1.98 20 3 C20.99 3.33 21.98 3.66 23 4 C23.44988281 4.66515625 23.89976563 5.3303125 24.36328125 6.015625 C25.85453956 8.22612831 25.85453956 8.22612831 28.48046875 8.609375 C29.82044922 8.67898437 29.82044922 8.67898437 31.1875 8.75 C32.08855469 8.80671875 32.98960938 8.8634375 33.91796875 8.921875 C34.60503906 8.94765625 35.29210937 8.9734375 36 9 C35.67 9.99 35.34 10.98 35 12 C33.22925083 12.02705729 31.45838289 12.04642195 29.6875 12.0625 C28.70136719 12.07410156 27.71523437 12.08570312 26.69921875 12.09765625 C24 12 24 12 21 11 C20.67 10.01 20.34 9.02 20 8 C15.05 8 10.1 8 5 8 C5 7.34 5 6.68 5 6 C4.360625 5.7525 3.72125 5.505 3.0625 5.25 C1 4 1 4 0.25 1.875 C0.1675 1.25625 0.085 0.6375 0 0 Z " fill="#262A2E" transform="translate(68,72)"/>
<path d="M0 0 C7.07554028 0.46528496 12.8569391 1.34048693 18.4375 6.0625 C20 8 20 8 20 10 C19.46375 9.71125 18.9275 9.4225 18.375 9.125 C15.64719516 7.83288192 12.87387282 6.91441408 10 6 C11.54531144 8.70429501 13.04178822 11.04670449 15.125 13.375 C17.4202293 16.58832102 17.6948519 19.1093617 18 23 C15.84612338 20.38457838 13.89680434 17.83144708 12.125 14.9375 C9.13699544 10.80702311 5.81236788 8.60412263 1 7 C1 6.34 1 5.68 1 5 C3.64 5.33 6.28 5.66 9 6 C9 5.34 9 4.68 9 4 C6.03 3.01 3.06 2.02 0 1 C0 0.67 0 0.34 0 0 Z " fill="#788287" transform="translate(111,69)"/>
<path d="M0 0 C1.65 0 3.3 0 5 0 C3.44319124 3.56078599 1.27088852 6.18396339 -1.25 9.125 C-5.43268232 14.1496071 -8.77522956 19.33286244 -12 25 C-12.66 25.99 -13.32 26.98 -14 28 C-15.34771696 25.78023089 -16.04398726 24.49852224 -15.8125 21.875 C-15 20 -15 20 -12 18 C-11.26656572 14.93443402 -11.26656572 14.93443402 -11 12 C-10.01 12 -9.02 12 -8 12 C-8 11.01 -8 10.02 -8 9 C-3.77142857 5 -3.77142857 5 0 5 C-0.33 4.01 -0.66 3.02 -1 2 C-0.67 1.34 -0.34 0.68 0 0 Z " fill="#BEC6CE" transform="translate(254,82)"/>
<path d="M0 0 C3.92600963 1.96300481 6.09649559 3.77388399 9 7 C9 7.66 9 8.32 9 9 C9.99 9.33 10.98 9.66 12 10 C13.38671875 12.06640625 13.38671875 12.06640625 14.6875 14.5625 C15.34298828 15.80193359 15.34298828 15.80193359 16.01171875 17.06640625 C16.33785156 17.70449219 16.66398437 18.34257812 17 19 C16.34 19.33 15.68 19.66 15 20 C15 19.01 15 18.02 15 17 C14.34 17 13.68 17 13 17 C13 18.98 13 20.96 13 23 C5.72 14.16 5.72 14.16 4 9 C4.66 8.34 5.32 7.68 6 7 C4.02 4.69 2.04 2.38 0 0 Z " fill="#859BA5" transform="translate(88,165)"/>
<path d="M0 0 C1.43677473 2.87354945 0.44143492 4.37099373 -0.4375 7.4375 C-3.5677437 20.40360119 -2.61214011 34.00926749 0 47 C-0.33 47 -0.66 47 -1 47 C-1.12117187 47.92683594 -1.24234375 48.85367188 -1.3671875 49.80859375 C-1.53476562 51.00613281 -1.70234375 52.20367187 -1.875 53.4375 C-2.03742187 54.63246094 -2.19984375 55.82742187 -2.3671875 57.05859375 C-2.68042969 58.51458984 -2.68042969 58.51458984 -3 60 C-3.99 60.495 -3.99 60.495 -5 61 C-4.83757813 60.15308594 -4.67515625 59.30617187 -4.5078125 58.43359375 C-3.98855919 54.92264255 -3.86716074 51.6097669 -3.875 48.0625 C-3.87242187 46.89847656 -3.86984375 45.73445313 -3.8671875 44.53515625 C-3.92869591 41.02509422 -3.92869591 41.02509422 -4.5234375 37.6953125 C-5.12765416 33.01015707 -4.98400048 28.52133577 -4.75 23.8125 C-4.70552734 22.88791992 -4.66105469 21.96333984 -4.61523438 21.01074219 C-3.60309072 3.60309072 -3.60309072 3.60309072 0 0 Z " fill="#8496A0" transform="translate(715,117)"/>
<path d="M0 0 C0.44730469 0.39832031 0.89460937 0.79664062 1.35546875 1.20703125 C9.66979541 8.49314694 15.34588091 10.40559008 26.4375 10.359375 C31.51883201 9.84678449 34.93326592 7.96252152 39 5 C39.99 4.34 40.98 3.68 42 3 C40.50314027 7.49057919 36.89704176 9.6652467 33 12 C26.48176375 14.17274542 16.84730163 14.36702383 10.5 11.4375 C6.48683579 8.98207716 2.91005529 5.69213265 0 2 C0 1.34 0 0.68 0 0 Z " fill="#8B959C" transform="translate(145,117)"/>
<path d="M0 0 C1.38050775 3.74073069 0.5773989 6.04464559 -0.6875 9.75 C-2.30807123 14.73423111 -3.75377887 19.72288055 -5 24.8125 C-5.16169678 25.4715332 -5.32339355 26.13056641 -5.48999023 26.80957031 C-5.82171385 28.16660656 -6.15251287 29.52386912 -6.48242188 30.88134766 C-7.38881777 34.59158517 -8.32104082 38.29536055 -9.25 42 C-9.58865152 43.3541392 -9.92720374 44.70830324 -10.265625 46.0625 C-10.62914062 47.5165625 -10.62914062 47.5165625 -11 49 C-12.35295726 45.26583796 -11.61768322 42.65448199 -10.625 38.875 C-9.64442167 34.94397044 -8.86124134 31.29469842 -8.6875 27.25 C-7.97884378 17.89881898 -3.5028851 8.61337447 0 0 Z " fill="#7D8B93" transform="translate(242,105)"/>
<path d="M0 0 C2 1 2 1 2.61669922 2.73681641 C3.04519529 5.2668537 3.12961173 7.6443755 3.1328125 10.2109375 C3.13410156 11.20867187 3.13539063 12.20640625 3.13671875 13.234375 C3.13285156 14.27078125 3.12898437 15.3071875 3.125 16.375 C3.12886719 17.40367188 3.13273438 18.43234375 3.13671875 19.4921875 C3.13031499 24.46150401 2.92378339 29.10235532 2 34 C2.20625 34.680625 2.4125 35.36125 2.625 36.0625 C3 38 3 38 1.8125 40.75 C1.214375 41.4925 0.61625 42.235 0 43 C-1.32 43 -2.64 43 -4 43 C-3.46252569 40.31262846 -2.62449749 38.15511935 -1.5 35.625 C1.18301587 29.14104498 1.15548269 22.90941046 1.125 16 C1.12886719 15.1234375 1.13273438 14.246875 1.13671875 13.34375 C1.12984855 8.78193451 0.93012655 4.48822972 0 0 Z " fill="#99ABB4" transform="translate(213,78)"/>
<path d="M0 0 C1.43836751 0.11458693 2.87570966 0.24209116 4.3125 0.375 C5.51326172 0.47941406 5.51326172 0.47941406 6.73828125 0.5859375 C9 1 9 1 12 3 C12 3.66 12 4.32 12 5 C13.051875 5.0928125 13.051875 5.0928125 14.125 5.1875 C18.00216885 6.28322163 20.13925958 8.20427641 23 11 C23.875 13.3125 23.875 13.3125 24 15 C22.68 14.34 21.36 13.68 20 13 C20 12.34 20 11.68 20 11 C17.69 10.67 15.38 10.34 13 10 C13 9.34 13 8.68 13 8 C12.01 7.67 11.02 7.34 10 7 C10 6.01 10 5.02 10 4 C7.36 4 4.72 4 2 4 C1.34 2.68 0.68 1.36 0 0 Z " fill="#A2ABB3" transform="translate(101,26)"/>
<path d="M0 0 C2.89558994 4.34338491 2.38305417 8.25975126 2.375 13.375 C2.37411377 14.36201904 2.37322754 15.34903809 2.37231445 16.3659668 C2.25063238 23.90963785 1.6506125 31.22377947 -2 38 C-3.485 38.495 -3.485 38.495 -5 39 C-5.33 39.99 -5.66 40.98 -6 42 C-6.33 41.34 -6.66 40.68 -7 40 C-6.04954364 38.30459135 -5.04086497 36.64145603 -4 35 C1.58008293 23.98913402 0.39651492 11.99915146 0 0 Z " fill="#9BA5AC" transform="translate(194,78)"/>
<path d="M0 0 C0.66 0.33 1.32 0.66 2 1 C1.8125 3.3125 1.8125 3.3125 1 6 C-0.175625 6.61875 -0.175625 6.61875 -1.375 7.25 C-5.321604 9.88106933 -5.85338976 13.55338956 -7 18 C-8.65 18.33 -10.3 18.66 -12 19 C-12.33 19.99 -12.66 20.98 -13 22 C-13.65234375 20.19140625 -13.65234375 20.19140625 -14 18 C-12.68175753 16.34374664 -11.34221822 14.70011398 -9.90234375 13.1484375 C-6.26107094 9.03611707 -3.18438161 4.46944931 0 0 Z " fill="#B0BAC1" transform="translate(47,42)"/>
<path d="M0 0 C1.19367187 -0.00515625 2.38734375 -0.0103125 3.6171875 -0.015625 C7.10730337 0.24865994 9.87153337 0.99637065 13.125 2.25 C13.125 2.91 13.125 3.57 13.125 4.25 C5.205 4.25 -2.715 4.25 -10.875 4.25 C-10.875 3.59 -10.875 2.93 -10.875 2.25 C-7.26395067 -0.01364287 -4.20516734 -0.01808674 0 0 Z " fill="#778186" transform="translate(54.875,56.75)"/>
<path d="M0 0 C0.33 0 0.66 0 1 0 C2.18409447 8.46471884 1.67713011 16.24002672 0.5625 24.6875 C0.41490234 25.87794922 0.26730469 27.06839844 0.11523438 28.29492188 C-0.24620312 31.19808113 -0.61810744 34.09947317 -1 37 C-1.33 37 -1.66 37 -2 37 C-2.23302818 24.48120831 -1.79849819 12.39679111 0 0 Z " fill="#A8B1BA" transform="translate(24,87)"/>
<path d="M0 0 C0.79664063 0.32742187 1.59328125 0.65484375 2.4140625 0.9921875 C6.84710807 2.23807612 10.80195478 2.21981593 15.375 2.125 C16.62216797 2.11146484 16.62216797 2.11146484 17.89453125 2.09765625 C19.92981337 2.0742622 21.96494564 2.03839725 24 2 C23.67 2.99 23.34 3.98 23 5 C16.74191461 6.25161708 10.20789029 6.82585009 4 5 C3.34 4.34 2.68 3.68 2 3 C1.34 3 0.68 3 0 3 C0 2.01 0 1.02 0 0 Z " fill="#C4CDD2" transform="translate(154,127)"/>
<path d="M0 0 C1.1725131 0.95117134 2.33787015 1.91117009 3.5 2.875 C4.47453125 3.67550781 4.47453125 3.67550781 5.46875 4.4921875 C5.9740625 4.98976562 6.479375 5.48734375 7 6 C7 6.66 7 7.32 7 8 C7.5775 8.2475 8.155 8.495 8.75 8.75 C11.32939979 10.18299988 13.06121592 11.78424676 15 14 C15 14.66 15 15.32 15 16 C15.66 16.99 16.32 17.98 17 19 C13.00215573 17.39896758 10.32637809 14.58884625 7.375 11.5625 C6.88515625 11.07201172 6.3953125 10.58152344 5.890625 10.07617188 C0 4.11312116 0 4.11312116 0 0 Z " fill="#8B9DA5" transform="translate(50,136)"/>
<path d="M0 0 C1.33157895 5.44736842 1.33157895 5.44736842 -0.125 7.875 C-2.53722513 9.32233508 -4.2351335 9.22417836 -7 9 C-7.25 6.1875 -7.25 6.1875 -7 3 C-4.54157496 0.45680168 -3.57478534 0 0 0 Z " fill="#ABBDC3" transform="translate(85,32)"/>
<path d="M0 0 C2.07665213 2.07665213 2.71585962 3.44639754 3.8125 6.125 C5.7868663 10.72192078 8.23444622 14.84033509 11 19 C10.01 19.33 9.02 19.66 8 20 C4.39345961 17.59563974 4.14547068 16.05320393 3 12 C2.34 12 1.68 12 1 12 C0.45533613 7.915021 0 4.1274515 0 0 Z " fill="#B7BFC4" transform="translate(137,103)"/>
<path d="M0 0 C0.33 0.99 0.66 1.98 1 3 C-0.32 3 -1.64 3 -3 3 C-3.33 3.99 -3.66 4.98 -4 6 C-9.07762523 9.78605971 -13.83275229 10.44051769 -20 10 C-19.34 9.67 -18.68 9.34 -18 9 C-18 8.34 -18 7.68 -18 7 C-16.95199219 6.83564453 -16.95199219 6.83564453 -15.8828125 6.66796875 C-14.51769531 6.43013672 -14.51769531 6.43013672 -13.125 6.1875 C-11.76761719 5.96126953 -11.76761719 5.96126953 -10.3828125 5.73046875 C-7.65587522 5.16948699 -7.65587522 5.16948699 -6 2 C-2.875 1.8125 -2.875 1.8125 0 2 C0 1.34 0 0.68 0 0 Z " fill="#9FB6BF" transform="translate(175,220)"/>
<path d="M0 0 C0.66 0 1.32 0 2 0 C1.11552539 8.40250882 -1.28815696 16.02718147 -4 24 C-4.66 23.67 -5.32 23.34 -6 23 C-5.67 20.36 -5.34 17.72 -5 15 C-4.34 15 -3.68 15 -3 15 C-2.95101562 14.16855469 -2.90203125 13.33710938 -2.8515625 12.48046875 C-2.77679688 11.39378906 -2.70203125 10.30710938 -2.625 9.1875 C-2.52058594 7.56908203 -2.52058594 7.56908203 -2.4140625 5.91796875 C-2 3 -2 3 0 0 Z " fill="#9EB7C1" transform="translate(232,135)"/>
<path d="M0 0 C0.99 0 1.98 0 3 0 C3 0.66 3 1.32 3 2 C3.66 2 4.32 2 5 2 C5 3.98 5 5.96 5 8 C4.34 8 3.68 8 3 8 C2.67 7.34 2.34 6.68 2 6 C1.34 6 0.68 6 0 6 C0.33 7.32 0.66 8.64 1 10 C-2.4352048 12.29013653 -3.985331 12.17842973 -8 12 C-8.33 11.34 -8.66 10.68 -9 10 C-8.071875 9.7525 -7.14375 9.505 -6.1875 9.25 C-2.79442422 7.91938205 -1.68048479 7.17424904 0 4 C0 2.68 0 1.36 0 0 Z " fill="#3E4447" transform="translate(85,67)"/>
<path d="M0 0 C1.56393356 3.97376829 0.36145292 6.81377903 -0.9375 10.75 C-1.31777344 11.92046875 -1.69804687 13.0909375 -2.08984375 14.296875 C-2.39019531 15.18890625 -2.69054687 16.0809375 -3 17 C-3.66 17 -4.32 17 -5 17 C-5.33 17.66 -5.66 18.32 -6 19 C-7.36176066 12.34250344 -7.36176066 12.34250344 -6 9 C-5.34 8.67 -4.68 8.34 -4 8 C-3.67 7.01 -3.34 6.02 -3 5 C-2.34 5 -1.68 5 -1 5 C-0.67 3.35 -0.34 1.7 0 0 Z " fill="#96ADB4" transform="translate(229,154)"/>
<path d="M0 0 C0.99 0.495 0.99 0.495 2 1 C2.41064453 2.94946289 2.41064453 2.94946289 2.6328125 5.47265625 C2.71660156 6.37177734 2.80039062 7.27089844 2.88671875 8.19726562 C2.96535156 9.14279297 3.04398438 10.08832031 3.125 11.0625 C3.21136719 12.01189453 3.29773438 12.96128906 3.38671875 13.93945312 C3.59954368 16.29235092 3.80357031 18.64568595 4 21 C4.66 21 5.32 21 6 21 C5.67 22.32 5.34 23.64 5 25 C3 24 3 24 2.1484375 21.69921875 C0.2548992 14.32589536 -0.36382768 7.59995601 0 0 Z " fill="#B5BFC6" transform="translate(23,124)"/>
<path d="M0 0 C3.875 1.875 3.875 1.875 5 3 C6.34747084 3.23075082 7.70377565 3.41153063 9.0625 3.5625 C10.361875 3.706875 11.66125 3.85125 13 4 C11.02 4.99 11.02 4.99 9 6 C12.3 6 15.6 6 19 6 C15.57905758 8.28062828 14.31812778 8.21925007 10.3125 8.125 C8.82169922 8.09792969 8.82169922 8.09792969 7.30078125 8.0703125 C6.54152344 8.04710938 5.78226562 8.02390625 5 8 C5 7.34 5 6.68 5 6 C4.360625 5.7525 3.72125 5.505 3.0625 5.25 C1 4 1 4 0.25 1.875 C0.1675 1.25625 0.085 0.6375 0 0 Z " fill="#51565A" transform="translate(68,72)"/>
<path d="M0 0 C0.98484375 0.00902344 1.9696875 0.01804688 2.984375 0.02734375 C4.10585938 0.04474609 4.10585938 0.04474609 5.25 0.0625 C5.25 0.3925 5.25 0.7225 5.25 1.0625 C4.45335938 1.24425781 3.65671875 1.42601563 2.8359375 1.61328125 C-2.72870649 2.93336103 -7.73116806 4.23136403 -12.75 7.0625 C-13.74 7.3925 -14.73 7.7225 -15.75 8.0625 C-14.35440273 4.6898066 -12.8578412 2.98204898 -9.75 1.0625 C-6.46795923 -0.00741638 -3.43646845 -0.04091034 0 0 Z " fill="#687177" transform="translate(57.75,63.9375)"/>
<path d="M0 0 C4.75 0.875 4.75 0.875 7 2 C7 3.65 7 5.3 7 7 C4.625 7.625 4.625 7.625 2 8 C0 6 0 6 -0.125 2.875 C-0.08375 1.92625 -0.0425 0.9775 0 0 Z " fill="#AABBC0" transform="translate(104,39)"/>
<path d="M0 0 C0.66 0.33 1.32 0.66 2 1 C0.9171875 1.5878125 0.9171875 1.5878125 -0.1875 2.1875 C-3.06384011 3.90093775 -3.06384011 3.90093775 -5.3125 6.3125 C-8.57818604 9.57818604 -12.04481514 12.59213642 -16 15 C-16.99 15 -17.98 15 -19 15 C-9.6693712 5.29614604 -9.6693712 5.29614604 -4 2 C-3.2575 1.566875 -2.515 1.13375 -1.75 0.6875 C-1.1725 0.460625 -0.595 0.23375 0 0 Z " fill="#98ACB7" transform="translate(432,85)"/>
<path d="M0 0 C0.33 0 0.66 0 1 0 C1.42515028 5.11698731 0.37283083 7.66835485 -2.5 11.875 C-3.1496875 12.84179688 -3.799375 13.80859375 -4.46875 14.8046875 C-4.9740625 15.52914062 -5.479375 16.25359375 -6 17 C-6.66 16.67 -7.32 16.34 -8 16 C-7.34 14.02 -6.68 12.04 -6 10 C-5.34 10 -4.68 10 -4 10 C-3.67 8.02 -3.34 6.04 -3 4 C-2.34 4 -1.68 4 -1 4 C-0.67 2.68 -0.34 1.36 0 0 Z " fill="#9EB6C1" transform="translate(222,169)"/>
<path d="M0 0 C0.67578125 1.765625 0.67578125 1.765625 1 4 C-0.14453125 5.921875 -0.14453125 5.921875 -1.8125 7.75 C-2.35519531 8.36359375 -2.89789063 8.9771875 -3.45703125 9.609375 C-5 11 -5 11 -7 11 C-7 11.66 -7 12.32 -7 13 C-9.47775095 14.23887548 -11.23653707 14.16741669 -14 14.1875 C-15.3303125 14.20876953 -15.3303125 14.20876953 -16.6875 14.23046875 C-19 14 -19 14 -21 12 C-20.00419922 12.05220703 -20.00419922 12.05220703 -18.98828125 12.10546875 C-11.91171873 12.44374378 -11.91171873 12.44374378 -6 9 C-3.84733262 6.08847865 -1.88529169 3.0903235 0 0 Z " fill="#A1B6C1" transform="translate(157,190)"/>
<path d="M0 0 C1.98 0.66 3.96 1.32 6 2 C6 2.66 6 3.32 6 4 C6.66 4 7.32 4 8 4 C8 4.66 8 5.32 8 6 C8.99 6.33 9.98 6.66 11 7 C10.01 8.32 9.02 9.64 8 11 C6.66072279 9.54712339 5.32873153 8.08752741 4 6.625 C3.2575 5.81289062 2.515 5.00078125 1.75 4.1640625 C0 2 0 2 0 0 Z " fill="#B6C3CA" transform="translate(49,197)"/>
<path d="M0 0 C5.31055795 0.64092941 7.23646942 2.80613678 10.55078125 6.7890625 C12.62564523 9.95448841 12.92192922 12.25260277 13 16 C10.86231472 13.4042393 8.88847966 10.82732335 7.0625 8 C4.96908696 4.95503558 2.68080233 2.53186887 0 0 Z " fill="#4F595D" transform="translate(116,76)"/>
<path d="M0 0 C-1.32 0.33 -2.64 0.66 -4 1 C-4 1.66 -4 2.32 -4 3 C-6.65228812 4.07525194 -9.28368454 5.09456151 -12 6 C-12.69937532 7.31647119 -13.36729133 8.65022151 -14 10 C-14.99 10.495 -14.99 10.495 -16 11 C-15.84817368 8.34303932 -15.52675976 6.55765476 -13.66796875 4.58984375 C-8.76049353 0.4943109 -6.33312664 -0.11728012 0 0 Z " fill="#677177" transform="translate(63,69)"/>
<path d="M0 0 C1 2 1 2 0.125 4.75 C-0.24625 5.8225 -0.6175 6.895 -1 8 C-1.165 9.03125 -1.33 10.0625 -1.5 11.125 C-1.97797402 13.87335062 -2.67490127 15.5836435 -4 18 C-4.67966676 19.66140763 -5.34938905 21.32700041 -6 23 C-7.07287883 19.7617321 -6.92440102 17.91372235 -5.8203125 14.70703125 C-5.55089844 13.91232422 -5.28148438 13.11761719 -5.00390625 12.29882812 C-4.71386719 11.47833984 -4.42382812 10.65785156 -4.125 9.8125 C-3.70154297 8.56436523 -3.70154297 8.56436523 -3.26953125 7.29101562 C-1.16137422 1.16137422 -1.16137422 1.16137422 0 0 Z " fill="#ABB2B9" transform="translate(32,64)"/>
<path d="M0 0 C1.48831242 0.00667405 2.97660807 0.01863442 4.46484375 0.03515625 C5.22345703 0.03966797 5.98207031 0.04417969 6.76367188 0.04882812 C8.64326246 0.06064945 10.52281274 0.07858547 12.40234375 0.09765625 C12.07234375 0.75765625 11.74234375 1.41765625 11.40234375 2.09765625 C8.3125 2.58203125 8.3125 2.58203125 4.46484375 2.84765625 C2.56412109 2.99460938 2.56412109 2.99460938 0.625 3.14453125 C-2.59765625 3.09765625 -2.59765625 3.09765625 -4.59765625 1.09765625 C-3.59765625 0.09765625 -3.59765625 0.09765625 0 0 Z " fill="#CCD6DB" transform="translate(50.59765625,59.90234375)"/>
<path d="M0 0 C0.66 0 1.32 0 2 0 C2.185625 1.2065625 2.185625 1.2065625 2.375 2.4375 C2.58125 3.283125 2.7875 4.12875 3 5 C3.66 5.33 4.32 5.66 5 6 C6.11836665 10.19387492 6.10811426 12.26215125 4 16 C3.32815382 13.89748139 2.66269032 11.79292237 2 9.6875 C1.443125 7.92986328 1.443125 7.92986328 0.875 6.13671875 C0 3 0 3 0 0 Z " fill="#BAC1C8" transform="translate(27,151)"/>
<path d="M0 0 C3.87915244 0.57468925 6.14756605 2.37884447 9 5 C10.1577506 8.47325181 10.06866652 11.36067448 10 15 C8.04718976 12.69213336 6.99679972 10.98925619 6.125 8.0625 C4.78068077 4.40296432 2.87667171 2.57386417 0 0 Z " fill="#656F75" transform="translate(110,80)"/>
<path d="M0 0 C1.65 0 3.3 0 5 0 C3.3718356 3.75730247 0.98598083 6.616823 -1.625 9.75 C-2.85089844 11.22726563 -2.85089844 11.22726563 -4.1015625 12.734375 C-4.72804687 13.48203125 -5.35453125 14.2296875 -6 15 C-6.33 14.34 -6.66 13.68 -7 13 C-6.36771484 12.34644531 -6.36771484 12.34644531 -5.72265625 11.6796875 C-2.23634805 7.88986541 -0.26119037 5.35440266 0 0 Z " fill="#9EA7AD" transform="translate(254,82)"/>
<path d="M0 0 C3.51315888 2.34210592 3.83744694 3.54251932 5.1875 7.4375 C5.53167969 8.40558594 5.87585938 9.37367187 6.23046875 10.37109375 C7 13 7 13 7 16 C6.01 15.67 5.02 15.34 4 15 C3.4375 13.25 3.4375 13.25 3 11 C2.67 10.21625 2.34 9.4325 2 8.625 C0.90814525 5.75888129 0.42290178 3.0307961 0 0 Z " fill="#BAC4C7" transform="translate(125,41)"/>
<path d="M0 0 C8.55751015 0.41407307 8.55751015 0.41407307 12 4 C12 4.66 12 5.32 12 6 C13.32 6.66 14.64 7.32 16 8 C15.01 8.33 14.02 8.66 13 9 C13 8.34 13 7.68 13 7 C12.195625 6.731875 11.39125 6.46375 10.5625 6.1875 C9.716875 5.795625 8.87125 5.40375 8 5 C7.67 4.01 7.34 3.02 7 2 C4.03 2 1.06 2 -2 2 C-1.34 1.34 -0.68 0.68 0 0 Z " fill="#738089" transform="translate(197,61)"/>
<path d="M0 0 C2.31 0.33 4.62 0.66 7 1 C7 1.33 7 1.66 7 2 C5.35 2 3.7 2 2 2 C2 2.99 2 3.98 2 5 C3.65 5.33 5.3 5.66 7 6 C4.34501768 7.0169313 3.30844625 7.13022151 0.640625 6.00390625 C-0.14828125 5.52824219 -0.9371875 5.05257812 -1.75 4.5625 C-2.54921875 4.08941406 -3.3484375 3.61632812 -4.171875 3.12890625 C-4.77515625 2.75636719 -5.3784375 2.38382813 -6 2 C-3.50907189 0.75453595 -2.58919267 1.2232422 0 2 C0 1.34 0 0.68 0 0 Z " fill="#90A5B0" transform="translate(69,205)"/>
<path d="M0 0 C0.66 0.33 1.32 0.66 2 1 C1.67 2.65 1.34 4.3 1 6 C0.34 6 -0.32 6 -1 6 C-1.33 8.31 -1.66 10.62 -2 13 C-2.99 13 -3.98 13 -5 13 C-5.33 13.66 -5.66 14.32 -6 15 C-6.66 14.67 -7.32 14.34 -8 14 C-5.25 9.125 -5.25 9.125 -3 8 C-2.09656316 6.11736119 -2.09656316 6.11736119 -1.375 3.9375 C-0.98441406 2.83728516 -0.98441406 2.83728516 -0.5859375 1.71484375 C-0.39257812 1.14894531 -0.19921875 0.58304687 0 0 Z " fill="#BEC5CC" transform="translate(194,108)"/>
<path d="M0 0 C0.66 0 1.32 0 2 0 C0.57641609 4.54074179 -1.72132073 7.03973147 -5.125 10.3125 C-6.03507813 11.19550781 -6.94515625 12.07851562 -7.8828125 12.98828125 C-8.93082031 13.98408203 -8.93082031 13.98408203 -10 15 C-10.66 14.67 -11.32 14.34 -12 14 C-11.44570312 13.46890625 -10.89140625 12.9378125 -10.3203125 12.390625 C-9.59585938 11.68421875 -8.87140625 10.9778125 -8.125 10.25 C-7.40570313 9.55390625 -6.68640625 8.8578125 -5.9453125 8.140625 C-4.13520321 6.14877783 -3.05151914 4.4572342 -2 2 C-1.34 2 -0.68 2 0 2 C0 1.34 0 0.68 0 0 Z " fill="#B2C8CF" transform="translate(225,135)"/>
<path d="M0 0 C0.99 0.33 1.98 0.66 3 1 C2.38511719 1.67095703 2.38511719 1.67095703 1.7578125 2.35546875 C-1.30368535 5.79049863 -3.45083279 8.6106929 -5 13 C-5.99 13.495 -5.99 13.495 -7 14 C-5.83976075 4.92589006 -5.83976075 4.92589006 -2.5625 1.3125 C-1.716875 0.879375 -0.87125 0.44625 0 0 Z " fill="#B7C1C7" transform="translate(251,87)"/>
<path d="M0 0 C1.34155445 4.02466335 0.22380042 5.72149865 -1.3125 9.625 C-1.76238281 10.79289063 -2.21226562 11.96078125 -2.67578125 13.1640625 C-4 16 -4 16 -6 17 C-5.34331435 13.25141943 -4.3123267 9.82030057 -3 6.25 C-2.649375 5.28578125 -2.29875 4.3215625 -1.9375 3.328125 C-1 1 -1 1 0 0 Z " fill="#9BB3BC" transform="translate(164,173)"/>
<path d="M0 0 C2.475 0.495 2.475 0.495 5 1 C4.67 2.98 4.34 4.96 4 7 C2.68 7 1.36 7 0 7 C0 4.69 0 2.38 0 0 Z " fill="#B4C1C9" transform="translate(235,110)"/>
<path d="M0 0 C0.33 0 0.66 0 1 0 C1.66 6.27 2.32 12.54 3 19 C2.01 19 1.02 19 0 19 C-1.31909709 12.5510809 -0.69508823 6.51244208 0 0 Z " fill="#97ABB6" transform="translate(711,139)"/>
<path d="M0 0 C1.175625 0.4640625 1.175625 0.4640625 2.375 0.9375 C6.89851578 2.26335807 11.31431814 2.64811085 16 3 C16 3.33 16 3.66 16 4 C14.04310341 4.22142255 12.08438048 4.4267568 10.125 4.625 C8.48917969 4.79902344 8.48917969 4.79902344 6.8203125 4.9765625 C5.42425781 4.98816406 5.42425781 4.98816406 4 5 C3.34 4.34 2.68 3.68 2 3 C1.34 3 0.68 3 0 3 C0 2.01 0 1.02 0 0 Z " fill="#BDC8CD" transform="translate(154,127)"/>
<path d="M0 0 C0.33 0.66 0.66 1.32 1 2 C0.34 2.66 -0.32 3.32 -1 4 C-1 4.66 -1 5.32 -1 6 C-2.32 6 -3.64 6 -5 6 C-5.33 7.32 -5.66 8.64 -6 10 C-6.66 9.67 -7.32 9.34 -8 9 C-8 6 -8 6 -5.6875 3.375 C-3 1 -3 1 0 0 Z " fill="#BAC2C7" transform="translate(58,34)"/>
<path d="M0 0 C4.9095856 0.94415108 8.96423757 2.51540718 11.875 6.6875 C12.431875 7.8321875 12.431875 7.8321875 13 9 C7.97290493 7.42903279 3.97133531 4.38006951 0 1 C0 0.67 0 0.34 0 0 Z " fill="#BBC4CD" transform="translate(58,208)"/>
<path d="M0 0 C0.66 0.33 1.32 0.66 2 1 C-1.96 4.96 -5.92 8.92 -10 13 C-10 8.41771462 -7.08388033 6.1816619 -4 3 C-1.625 1.0625 -1.625 1.0625 0 0 Z " fill="#6A7A83" transform="translate(439,109)"/>
<path d="M0 0 C2.475 0.99 2.475 0.99 5 2 C5 2.66 5 3.32 5 4 C5.99 4 6.98 4 8 4 C9.35439668 6.70879335 9.06501451 9.00933268 9 12 C6 8 3 4 0 0 Z " fill="#80919A" transform="translate(205,66)"/>
<path d="M0 0 C1.29312675 2.5862535 0.84290464 3.76416975 0.25 6.5625 C0.09015625 7.36816406 -0.0696875 8.17382812 -0.234375 9.00390625 C-0.48703125 9.66261719 -0.7396875 10.32132813 -1 11 C-1.99 11.33 -2.98 11.66 -4 12 C-4.33 12.99 -4.66 13.98 -5 15 C-5.33 14.34 -5.66 13.68 -6 13 C-5.01453001 11.32470102 -4.01059521 9.66026356 -3 8 C-1.90779652 5.36010011 -0.95855423 2.69308093 0 0 Z " fill="#848F96" transform="translate(193,105)"/>
<path d="M0 0 C2.31 0.33 4.62 0.66 7 1 C7 0.67 7 0.34 7 0 C9.64 0 12.28 0 15 0 C14.67 0.99 14.34 1.98 14 3 C12.22925083 3.02705729 10.45838289 3.04642195 8.6875 3.0625 C7.70136719 3.07410156 6.71523437 3.08570312 5.69921875 3.09765625 C3 3 3 3 0 2 C0 1.34 0 0.68 0 0 Z " fill="#555C60" transform="translate(89,81)"/>
<path d="M0 0 C0.59167969 0.08378906 1.18335938 0.16757813 1.79296875 0.25390625 C6.09939457 0.80889424 9.75552644 1.23226652 14 0 C14 0.66 14 1.32 14 2 C11.67313547 3.16343227 10.15278587 3.19895988 7.5625 3.25 C6.78003906 3.27578125 5.99757813 3.3015625 5.19140625 3.328125 C2.52068491 2.92823089 1.68022561 2.05300878 0 0 Z " fill="#94A7B2" transform="translate(528,201)"/>
<path d="M0 0 C0.66 0.33 1.32 0.66 2 1 C-1.63 4.63 -5.26 8.26 -9 12 C-9 9 -9 9 -6.75 6.5625 C-5.8425 5.716875 -4.935 4.87125 -4 4 C-3.236875 3.236875 -2.47375 2.47375 -1.6875 1.6875 C-1.130625 1.130625 -0.57375 0.57375 0 0 Z " fill="#677780" transform="translate(875,109)"/>
<path d="M0 0 C0.9075 0.33 1.815 0.66 2.75 1 C6.07045807 2.19605723 6.07045807 2.19605723 10 2 C10.33 2.99 10.66 3.98 11 5 C7.37 4.34 3.74 3.68 0 3 C0 2.01 0 1.02 0 0 Z " fill="#B7C0C7" transform="translate(86,225)"/>
<path d="M0 0 C0.99 0.33 1.98 0.66 3 1 C3 1.66 3 2.32 3 3 C1.38007835 3.86375896 -0.24611861 4.71575854 -1.875 5.5625 C-3.23238281 6.27599609 -3.23238281 6.27599609 -4.6171875 7.00390625 C-5.40351563 7.33261719 -6.18984375 7.66132813 -7 8 C-7.66 7.67 -8.32 7.34 -9 7 C-8.360625 6.71125 -7.72125 6.4225 -7.0625 6.125 C-4.84793921 5.17176549 -4.84793921 5.17176549 -4 3 C-2.68 3 -1.36 3 0 3 C0 2.01 0 1.02 0 0 Z " fill="#91A3AB" transform="translate(176,220)"/>
<path d="M0 0 C1.31571603 0.2547514 2.62760376 0.52934141 3.9375 0.8125 C4.66839844 0.96332031 5.39929688 1.11414063 6.15234375 1.26953125 C6.76207031 1.51058594 7.37179688 1.75164062 8 2 C8.33 2.99 8.66 3.98 9 5 C3.46153846 4.50769231 3.46153846 4.50769231 1.125 1.9375 C0.75375 1.298125 0.3825 0.65875 0 0 Z " fill="#798E9B" transform="translate(60,202)"/>
<path d="M0 0 C1.18771723 3.42943519 0.80226223 5.37784675 -0.4375 8.75 C-0.86869141 9.94882813 -0.86869141 9.94882813 -1.30859375 11.171875 C-1.53675781 11.77515625 -1.76492187 12.3784375 -2 13 C-2.33 13 -2.66 13 -3 13 C-3.33 10.69 -3.66 8.38 -4 6 C-3.01 5.67 -2.02 5.34 -1 5 C-0.67 3.35 -0.34 1.7 0 0 Z " fill="#8FA0A9" transform="translate(229,154)"/>
<path d="M0 0 C1 2 1 2 0.375 4.0625 C-1 6 -1 6 -3.625 6.75 C-4.800625 6.87375 -4.800625 6.87375 -6 7 C-6 6.01 -6 5.02 -6 4 C-3 1.8125 -3 1.8125 0 0 Z " fill="#BFC5CB" transform="translate(185,123)"/>
<path d="M0 0 C4.455 0.99 4.455 0.99 9 2 C7.68 2.33 6.36 2.66 5 3 C5.33 3.99 5.66 4.98 6 6 C4 5 2 4 0 3 C0 2.01 0 1.02 0 0 Z " fill="#899DA6" transform="translate(57,200)"/>
<path d="M0 0 C0.66 0 1.32 0 2 0 C2 2.97 2 5.94 2 9 C2.66 9.33 3.32 9.66 4 10 C3.01 10 2.02 10 1 10 C0.63883954 8.5225254 0.28624952 7.04295325 -0.0625 5.5625 C-0.25972656 4.73878906 -0.45695313 3.91507813 -0.66015625 3.06640625 C-0.82837891 2.04353516 -0.82837891 2.04353516 -1 1 C-0.67 0.67 -0.34 0.34 0 0 Z " fill="#98ABB6" transform="translate(933,188)"/>
<path d="M0 0 C1.65 0 3.3 0 5 0 C4.1875 2.9375 4.1875 2.9375 3 6 C2.01 6.33 1.02 6.66 0 7 C0 4.69 0 2.38 0 0 Z " fill="#B6C0C2" transform="translate(90,69)"/>
<path d="M0 0 C0.99 0 1.98 0 3 0 C2.67 1.32 2.34 2.64 2 4 C-0.375 4.625 -0.375 4.625 -3 5 C-3.66 4.34 -4.32 3.68 -5 3 C-3.35 2.67 -1.7 2.34 0 2 C0 1.34 0 0.68 0 0 Z " fill="#A0B8C1" transform="translate(181,216)"/>
<path d="M0 0 C1.98 0.66 3.96 1.32 6 2 C6 2.66 6 3.32 6 4 C6.66 4.33 7.32 4.66 8 5 C7.01 5 6.02 5 5 5 C4.67 5.66 4.34 6.32 4 7 C0 2.25 0 2.25 0 0 Z " fill="#ABBBC3" transform="translate(49,197)"/>
<path d="M0 0 C0.99 0 1.98 0 3 0 C3.33 3.96 3.66 7.92 4 12 C2 9 2 9 1.5 6.4375 C1.19851753 3.83145436 1.19851753 3.83145436 -1 2 C-0.67 1.34 -0.34 0.68 0 0 Z " fill="#788993" transform="translate(832,148)"/>
<path d="M0 0 C2.7972908 2.06756277 3.02692273 3.14440371 3.6875 6.6875 C3.790625 7.780625 3.89375 8.87375 4 10 C1.74754119 7.31158141 0.11786042 5.35358125 -1 2 C-0.67 1.34 -0.34 0.68 0 0 Z " fill="#667175" transform="translate(125,82)"/>
<path d="M0 0 C2.86697492 1.28519565 4.97607712 2.57129254 7 5 C7 5.66 7 6.32 7 7 C4.13302508 5.71480435 2.02392288 4.42870746 0 2 C0 1.34 0 0.68 0 0 Z " fill="#6C767A" transform="translate(124,72)"/>
<path d="M0 0 C1.32 0.33 2.64 0.66 4 1 C4.33 2.32 4.66 3.64 5 5 C4.01 5.33 3.02 5.66 2 6 C0 3 0 3 0 0 Z " fill="#828C95" transform="translate(39,184)"/>
<path d="M0 0 C0.33 1.32 0.66 2.64 1 4 C0.01 4.33 -0.98 4.66 -2 5 C-2.3721042 6.32303717 -2.70630173 7.65737935 -3 9 C-3.99 9.495 -3.99 9.495 -5 10 C-3.84414715 6.08788267 -2.64465038 3.1254959 0 0 Z " fill="#7C8C95" transform="translate(222,175)"/>
<path d="M0 0 C3 3 3 3 3.07421875 5.69921875 C2.94660156 6.68535156 2.81898438 7.67148438 2.6875 8.6875 C2.50767578 10.17830078 2.50767578 10.17830078 2.32421875 11.69921875 C2.21722656 12.45847656 2.11023438 13.21773437 2 14 C1.67 14 1.34 14 1 14 C0.67 9.38 0.34 4.76 0 0 Z " fill="#B6C1C4" transform="translate(193,64)"/>
<path d="M0 0 C1.32 0 2.64 0 4 0 C3.67 1.98 3.34 3.96 3 6 C2.34 6 1.68 6 1 6 C0.67 4.02 0.34 2.04 0 0 Z " fill="#A2ABB3" transform="translate(36,177)"/>
<path d="M0 0 C3.6 5.4 3.6 5.4 5 8 C4.67 8.66 4.34 9.32 4 10 C3.01 9.67 2.02 9.34 1 9 C0.67 6.03 0.34 3.06 0 0 Z " fill="#8FA3AD" transform="translate(317,154)"/>
<path d="M0 0 C0.66 0.33 1.32 0.66 2 1 C-0.75 3.0625 -0.75 3.0625 -4 5 C-6.203125 4.62109375 -6.203125 4.62109375 -8 4 C-6.71349294 3.30289269 -5.42059335 2.61757124 -4.125 1.9375 C-3.40570312 1.55464844 -2.68640625 1.17179687 -1.9453125 0.77734375 C-1.30335938 0.52082031 -0.66140625 0.26429687 0 0 Z " fill="#8FA1AB" transform="translate(872,83)"/>
<path d="M0 0 C1 2 1 2 0.25 4.9375 C-0.92931463 7.82682085 -1.78177928 8.95850565 -4 11 C-3.5247412 9.35303396 -3.04468109 7.70745272 -2.5625 6.0625 C-2.29566406 5.14597656 -2.02882813 4.22945313 -1.75390625 3.28515625 C-1 1 -1 1 0 0 Z " fill="#96A1A8" transform="translate(32,64)"/>
<path d="M0 0 C3 2 3 2 3.8125 5 C3.874375 5.99 3.93625 6.98 4 8 C3.34 8.66 2.68 9.32 2 10 C1.34 6.7 0.68 3.4 0 0 Z " fill="#B3BCC0" transform="translate(125,41)"/>
<path d="M0 0 C0.33 0.99 0.66 1.98 1 3 C-0.62339805 4.70884005 -2.29319053 6.37446717 -4 8 C-4.66 8 -5.32 8 -6 8 C-6 6 -6 6 -3.5625 3.4375 C-2.716875 2.633125 -1.87125 1.82875 -1 1 C-0.67 0.67 -0.34 0.34 0 0 Z " fill="#9AAFB9" transform="translate(309,96)"/>
<path d="M0 0 C0.66 0.33 1.32 0.66 2 1 C-1.32307692 5.8 -1.32307692 5.8 -4.75 6.8125 C-5.4925 6.874375 -6.235 6.93625 -7 7 C-4.66666667 4.66666667 -2.33333333 2.33333333 0 0 Z " fill="#9BAEBA" transform="translate(858,91)"/>
<path d="M0 0 C1.32 0.33 2.64 0.66 4 1 C3.67 3.64 3.34 6.28 3 9 C1.57055055 6.64561267 0.91338739 5.51967567 1.375 2.75 C1.58125 2.1725 1.7875 1.595 2 1 C1.34 0.67 0.68 0.34 0 0 Z " fill="#BEC9CF" transform="translate(256,73)"/>
<path d="M0 0 C-0.33 0.99 -0.66 1.98 -1 3 C-2.98 3 -4.96 3 -7 3 C-7.33 2.34 -7.66 1.68 -8 1 C-5.23735711 0.40267181 -2.83967231 0 0 0 Z " fill="#1B1E23" transform="translate(84,76)"/>
</svg>
