<?xml version="1.0" encoding="UTF-8"?>
<svg version="1.1" xmlns="http://www.w3.org/2000/svg" width="801" height="256">
<path d="M0 0 C7.1671683 6.09142072 12.63236818 11.97599337 13.89453125 21.51953125 C14.04048651 24.82555163 14.04142549 28.12815155 14.03979492 31.43701172 C14.04483284 32.91134674 14.04483284 32.91134674 14.04997253 34.41546631 C14.05945034 37.65589674 14.06142401 40.89627533 14.0625 44.13671875 C14.0657146 46.39584372 14.06907883 48.65496848 14.07258606 50.91409302 C14.07856927 55.64667239 14.08042677 60.37923352 14.07983398 65.11181641 C14.07973237 71.1665618 14.09338783 77.22118991 14.11060619 83.27590752 C14.12174124 87.94113703 14.12375273 92.60633831 14.12322426 97.27157974 C14.12440197 99.50342335 14.12881203 101.73526775 14.13655663 103.96709824 C14.14638748 107.09256896 14.14346624 110.21778665 14.13745117 113.34326172 C14.14307068 114.25884857 14.14869019 115.17443542 14.15447998 116.11776733 C14.10721936 125.81408152 12.14119639 134.20228317 5.15234375 141.28515625 C-1.9819316 147.592713 -8.58795811 148.99365078 -18.10546875 148.51953125 C-19.50255101 148.34157591 -20.89839793 148.15370149 -22.29296875 147.95703125 C-26.18803388 147.45835509 -29.76319725 147.69425948 -33.66796875 148.08203125 C-40.30138217 148.69494313 -44.82936899 147.6115645 -51.10546875 145.51953125 C-52.80950777 145.93607412 -54.49550362 146.42777013 -56.16796875 146.95703125 C-74.26931211 151.71823308 -91.16587395 147.66646579 -107.10546875 138.51953125 C-109.89276651 136.64770959 -112.54486246 134.69048006 -115.10546875 132.51953125 C-115.54375 132.95523438 -115.98203125 133.3909375 -116.43359375 133.83984375 C-129.44085801 146.05398214 -145.1975508 149.31659031 -162.52734375 148.79296875 C-173.80673569 148.23132002 -182.36233581 144.71928303 -191.98828125 139.1640625 C-194.96030053 137.28622418 -194.96030053 137.28622418 -198.10546875 137.51953125 C-199.63945847 138.37810758 -201.13549099 139.30545493 -202.60546875 140.26953125 C-216.72100558 148.9988764 -233.28446875 150.77287561 -249.35546875 147.14453125 C-252.32416679 146.38312942 -254.98962453 145.57212622 -257.78125 144.3046875 C-258.54824219 144.04558594 -259.31523438 143.78648437 -260.10546875 143.51953125 C-262.15110474 144.78173218 -264.14949691 146.12240851 -266.10546875 147.51953125 C-274.63300406 149.74410568 -283.53755976 149.07756028 -291.23046875 144.76953125 C-294.51037589 142.2026474 -297.29574517 139.59684755 -300.10546875 136.51953125 C-300.10546875 135.85953125 -300.10546875 135.19953125 -300.10546875 134.51953125 C-300.76546875 134.51953125 -301.42546875 134.51953125 -302.10546875 134.51953125 C-302.35554687 135.10476562 -302.605625 135.69 -302.86328125 136.29296875 C-304.27023016 138.81485831 -305.79259679 140.27039187 -307.98046875 142.14453125 C-308.99753906 143.03011719 -308.99753906 143.03011719 -310.03515625 143.93359375 C-316.53565204 148.91321883 -324.22946081 149.20487826 -332.1484375 148.28125 C-336.32935922 147.48064797 -338.65324543 146.23178139 -341.73046875 143.26953125 C-343.38772768 141.66716318 -343.38772768 141.66716318 -345.10546875 140.51953125 C-348.13385379 140.74752132 -348.13385379 140.74752132 -351.10546875 142.51953125 C-365.67386421 149.55061014 -382.13425127 150.78889467 -397.86328125 146.7265625 C-402.53572505 144.98706234 -406.83136198 142.63467624 -411.08276367 140.03710938 C-413.07754058 138.81357038 -413.07754058 138.81357038 -416.10546875 137.51953125 C-418.21297776 137.97963757 -418.21297776 137.97963757 -420.10546875 139.51953125 C-438.239004 148.56496531 -455.62188221 151.71369233 -475.484375 145.7734375 C-485.42893347 142.32985253 -492.68945929 136.89731385 -500.10546875 129.51953125 C-501.04519531 128.63201172 -501.04519531 128.63201172 -502.00390625 127.7265625 C-513.25514796 116.19531251 -518.0615044 100.06348154 -518.11279297 84.26318359 C-517.63095269 69.88136804 -512.99296861 56.14766781 -503.10546875 45.51953125 C-502.25210937 44.55273438 -501.39875 43.5859375 -500.51953125 42.58984375 C-489.36423695 30.37624138 -475.67812587 23.17545551 -458.97265625 22.24609375 C-444.21410566 21.7428481 -432.89694959 25.05333639 -420.10546875 32.51953125 C-418.77875697 33.19927979 -417.4483229 33.87225623 -416.10546875 34.51953125 C-415.57179688 34.1328125 -415.038125 33.74609375 -414.48828125 33.34765625 C-400.14977985 23.32558952 -383.94486707 20.46925002 -366.73046875 23.01953125 C-360.53987129 24.43820983 -355.08276051 26.750345 -349.48046875 29.7265625 C-347.15139802 30.76893466 -347.15139802 30.76893466 -345.0078125 29.81640625 C-343.18837273 28.57604896 -341.4326164 27.27363919 -339.66796875 25.95703125 C-333.19225146 21.85372627 -325.07920233 21.96688003 -317.66796875 23.01953125 C-314.05006608 23.52730706 -311.67422318 23.13106812 -308.10546875 22.51953125 C-295.76416652 21.74259697 -285.25905017 23.41580936 -274.359375 29.3359375 C-271.94044998 30.60618755 -269.73348779 31.75004727 -267.10546875 32.51953125 C-265.17258246 31.82393551 -265.17258246 31.82393551 -263.48046875 30.39453125 C-251.17867567 21.86715196 -235.99615395 21.21072785 -221.5625 22.9453125 C-213.21904422 24.60180859 -206.40060465 28.26147021 -199.10546875 32.51953125 C-197.77875697 33.19927979 -196.4483229 33.87225623 -195.10546875 34.51953125 C-194.57179688 34.1328125 -194.038125 33.74609375 -193.48828125 33.34765625 C-179.07655704 23.27440957 -163.11501027 20.67837287 -145.8359375 22.94921875 C-134.82064189 25.33807804 -124.17642195 30.6407436 -116.10546875 38.51953125 C-113.24083261 37.16696363 -110.74316155 35.60824857 -108.16796875 33.76953125 C-93.07094013 23.63863047 -77.26658364 20.47304102 -59.40234375 23.0546875 C-53.10181696 24.39538099 -47.70095 26.33778701 -42.10546875 29.51953125 C-42.16734375 27.78703125 -42.16734375 27.78703125 -42.23046875 26.01953125 C-42.18457966 17.33119594 -39.53834865 10.01204631 -33.36328125 3.75390625 C-24.61925008 -3.97686809 -10.19096465 -7.16581744 0 0 Z " fill="#56646C" transform="translate(781.10546875,46.48046875)"/>
<path d="M0 0 C16.89436475 13.32594744 22.96470441 30.00070572 25.60546875 50.93359375 C26.07667169 55.34340338 26.24935002 59.7583102 26.4375 64.1875 C27.0203462 78.77623192 27.0203462 78.77623192 34 91 C36.84699341 91.49180308 39.07967894 91.29203211 42 91 C47.34394699 79.8667771 45.04338891 67.31963947 43.53637695 55.46020508 C42.74452473 48.52279105 43.28691813 43.22850045 46.625 36.9375 C51.10950731 31.39087254 55.68275316 26.49827683 62.93359375 25.20703125 C74.29004895 24.06923895 82.65512635 26.44416239 92 33 C93.84049933 34.58521754 95.38920805 36.17443579 97 38 C100.98148683 36.77759229 100.98148683 36.77759229 104.734375 35.01171875 C113.1806014 31.24004179 123.86313665 31.33656738 132.51953125 34.0234375 C139.15701233 36.63661903 145.35559654 41.74751336 149.15625 47.859375 C151.83697961 54.66048531 151.86811068 63.26790687 149 70 C146.150472 75.72793635 142.6093398 80.5426189 138.4375 85.375 C129.12259851 96.54975598 126.60210979 110.81905267 123.8515625 124.76171875 C118.9573561 149.54939977 111.07530023 175.40529459 93 194 C92.37351563 194.66837891 91.74703125 195.33675781 91.1015625 196.02539062 C67.61569176 221.03827311 38.18450177 236.81350255 3.3203125 238.21875 C-26.97751426 238.99508753 -57.56134452 230.18648489 -79.9765625 209.14453125 C-96.61172378 193.25467289 -96.61172378 193.25467289 -102 184 C-102.34434082 183.42459473 -102.68868164 182.84918945 -103.04345703 182.25634766 C-125.21359012 145.09237721 -131.89490386 100.84504007 -121.37353516 58.74316406 C-115.16839866 36.18929495 -101.13461068 13.01699683 -80.875 0.4375 C-79.2662406 -0.40670048 -77.64003829 -1.21829951 -76 -2 C-75.00742188 -2.51820312 -74.01484375 -3.03640625 -72.9921875 -3.5703125 C-50.5874764 -14.74567442 -21.04664145 -14.73441221 0 0 Z " fill="#C3D2D9" transform="translate(127,12)"/>
<path d="M0 0 C16.89436475 13.32594744 22.96470441 30.00070572 25.60546875 50.93359375 C26.07667169 55.34340338 26.24935002 59.7583102 26.4375 64.1875 C27.0203462 78.77623192 27.0203462 78.77623192 34 91 C36.84699341 91.49180308 39.07967894 91.29203211 42 91 C47.34394699 79.8667771 45.04338891 67.31963947 43.53637695 55.46020508 C42.74452473 48.52279105 43.28691813 43.22850045 46.625 36.9375 C51.10950731 31.39087254 55.68275316 26.49827683 62.93359375 25.20703125 C74.29004895 24.06923895 82.65512635 26.44416239 92 33 C93.84049933 34.58521754 95.38920805 36.17443579 97 38 C100.98148683 36.77759229 100.98148683 36.77759229 104.734375 35.01171875 C113.1806014 31.24004179 123.86313665 31.33656738 132.51953125 34.0234375 C139.15701233 36.63661903 145.35559654 41.74751336 149.15625 47.859375 C151.83697961 54.66048531 151.86811068 63.26790687 149 70 C146.150472 75.72793635 142.6093398 80.5426189 138.4375 85.375 C129.12259851 96.54975598 126.60210979 110.81905267 123.8515625 124.76171875 C118.9573561 149.54939977 111.07530023 175.40529459 93 194 C92.37351563 194.66837891 91.74703125 195.33675781 91.1015625 196.02539062 C67.61569176 221.03827311 38.18450177 236.81350255 3.3203125 238.21875 C-26.97751426 238.99508753 -57.56134452 230.18648489 -79.9765625 209.14453125 C-96.61172378 193.25467289 -96.61172378 193.25467289 -102 184 C-102.34434082 183.42459473 -102.68868164 182.84918945 -103.04345703 182.25634766 C-125.21359012 145.09237721 -131.89490386 100.84504007 -121.37353516 58.74316406 C-115.16839866 36.18929495 -101.13461068 13.01699683 -80.875 0.4375 C-79.2662406 -0.40670048 -77.64003829 -1.21829951 -76 -2 C-75.00742188 -2.51820312 -74.01484375 -3.03640625 -72.9921875 -3.5703125 C-50.5874764 -14.74567442 -21.04664145 -14.73441221 0 0 Z M-85.87890625 31.13671875 C-93.07215339 40.39591154 -98.58551844 50.63325531 -101.625 61.9375 C-101.8415625 62.71029297 -102.058125 63.48308594 -102.28125 64.27929688 C-107.01258507 81.55451102 -107.02366636 101.26684121 -105 119 C-104.79697266 120.82917969 -104.79697266 120.82917969 -104.58984375 122.6953125 C-103.85605769 128.50393826 -102.96397762 134.00980121 -100.91796875 139.50390625 C-100.15619143 141.57529223 -99.46861131 143.67378782 -98.80078125 145.77734375 C-98.47944214 146.78873413 -98.47944214 146.78873413 -98.15161133 147.82055664 C-97.72501601 149.16555461 -97.30405341 150.51235525 -96.8894043 151.86108398 C-95.74849469 155.39007175 -94.6607 157.48256846 -92 160 C-91.00009243 162.04266832 -90.04822512 164.10904759 -89.125 166.1875 C-82.54522034 180.13256671 -68.78170523 198.3688742 -54 204 C-52.82413016 204.75672006 -51.65860105 205.52959595 -50.5 206.3125 C-39.50391367 213.31940463 -25.88639094 216.91063363 -12.9609375 217.7890625 C-11 218 -11 218 -9 219 C-0.72409456 219.47831174 6.9738406 218.97284223 15 217 C16.04027344 216.78214844 17.08054687 216.56429687 18.15234375 216.33984375 C27.34946637 214.37593075 35.60370584 211.40030822 43.91796875 207.02734375 C45.6727913 206.1614557 47.48104904 205.40512367 49.296875 204.67578125 C53.23996951 202.99906194 56.60311587 200.75820829 60.0625 198.25 C60.67665771 197.80897949 61.29081543 197.36795898 61.92358398 196.91357422 C66.31005147 193.68748892 69.64194549 190.30519808 73 186 C73.79792969 185.37351563 74.59585938 184.74703125 75.41796875 184.1015625 C79.89898364 180.45438245 82.82279155 175.78295588 86 171 C86.36673828 170.4539209 86.73347656 169.9078418 87.11132812 169.34521484 C98.39222602 152.18353583 102.69629222 131.96056008 106.28051758 112.01196289 C109.17282961 96.10363676 113.97166829 82.0435827 125.16015625 69.99609375 C127.53600979 67.41846921 129.37253766 65.11340622 131 62 C130.82455283 58.65316604 130.82455283 58.65316604 129 56 C119.26158173 55.02134512 111.89135407 56.80180695 103.75 62.125 C96.57084779 69.63047731 93.35884765 78.77500267 89.97900391 88.42382812 C87.97927411 93.99311153 85.8034784 98.43457683 82 103 C81.34 103 80.68 103 80 103 C80.34933594 102.16855469 80.69867188 101.33710937 81.05859375 100.48046875 C81.51363281 99.39378906 81.96867188 98.30710937 82.4375 97.1875 C83.11619141 95.56908203 83.11619141 95.56908203 83.80859375 93.91796875 C87.60461472 84.62082888 87.93380903 70.76482768 84.5 61.25 C81.65883685 55.59822385 77.1319907 49.0439969 71 47 C67.41656024 46.83322718 67.41656024 46.83322718 64 47 C63.67 47.33 63.34 47.66 63 48 C63.06447566 50.12769662 63.20171192 52.25339183 63.375 54.375 C63.51035156 56.11910156 63.51035156 56.11910156 63.6484375 57.8984375 C63.89484716 61.03015232 63.89484716 61.03015232 65 64 C66.07956785 77.41281263 65.86744223 90.73015467 57.7421875 101.98828125 C52.73415612 107.77109775 48.04955608 110.52684651 40.45703125 111.23828125 C32.741268 111.45482409 25.91894647 110.46098529 19.9609375 105.19921875 C7.48869793 91.53282858 6.73181333 75.40310006 5.97094727 57.82202148 C5.60009044 49.51579175 4.93386972 41.84459728 2 34 C1.5875 32.80375 1.175 31.6075 0.75 30.375 C-1.5444088 25.95006875 -4.56672699 22.58094067 -8 19 C-8.58394531 18.32710937 -9.16789062 17.65421875 -9.76953125 16.9609375 C-12.6346257 14.44206287 -15.73610641 13.16264873 -19.25 11.8125 C-19.88035156 11.55275391 -20.51070313 11.29300781 -21.16015625 11.02539062 C-25.79178661 9.20009434 -30.04178432 8.44889195 -35 8 C-36.19109375 7.88205078 -36.19109375 7.88205078 -37.40625 7.76171875 C-57.03921372 7.06577414 -73.29129208 16.82190596 -85.87890625 31.13671875 Z " fill="#57656D" transform="translate(127,12)"/>
<path d="M0 0 C6.17524202 5.25389152 6.17524202 5.25389152 6.72265625 9.234375 C6.91246607 13.5780998 6.87260036 15.63592613 4.32421875 19.30859375 C1.44921875 21.24609375 1.44921875 21.24609375 -1.55078125 21.87109375 C-5.53658078 21.04071885 -6.83911754 19.22892383 -9.55078125 16.24609375 C-14.63147845 11.42594513 -19.65489658 11.80534549 -26.30859375 11.8125 C-29.7236137 12.26920749 -31.19533212 12.76300944 -33.55078125 15.24609375 C-33.88475912 18.3719625 -33.88475912 18.3719625 -33.55078125 21.24609375 C-29.18938818 23.66613502 -25.46654235 24.75449186 -20.55078125 25.49609375 C-8.15307442 27.7154268 1.87158897 32.86803557 9.44921875 43.24609375 C9.475 42.29089844 9.50078125 41.33570313 9.52734375 40.3515625 C10.18424548 25.37718904 14.1190545 14.94093458 25.26171875 4.49609375 C35.70231801 -4.20777139 47.12094572 -6.76679069 60.44921875 -5.75390625 C71.57349271 -3.84367739 81.42839772 2.49550522 88.44921875 11.24609375 C91.80336896 16.39309348 94.74493379 21.73250305 97.44921875 27.24609375 C97.65675781 26.55644531 97.86429688 25.86679688 98.078125 25.15625 C102.00217811 13.18706707 109.2214719 4.36894531 120.38671875 -1.50390625 C131.23632373 -6.56271757 142.67662443 -7.80586817 154.13671875 -3.75390625 C168.12538513 2.30216273 176.53964897 11.40216135 182.44921875 25.24609375 C183.34262829 28.23447992 183.58478736 30.92881146 183.61035156 34.04296875 C183.61995911 34.99075195 183.62956665 35.93853516 183.63946533 36.91503906 C183.64584015 38.44016113 183.64584015 38.44016113 183.65234375 39.99609375 C183.65804382 41.04635742 183.6637439 42.09662109 183.6696167 43.17871094 C183.67905515 45.39777624 183.68559609 47.61685548 183.68945312 49.8359375 C183.69918217 53.23331972 183.73022637 56.63010285 183.76171875 60.02734375 C183.76824676 62.18359016 183.77349802 64.33984089 183.77734375 66.49609375 C183.78969055 67.5128418 183.80203735 68.52958984 183.8147583 69.57714844 C183.8117572 70.52493164 183.8087561 71.47271484 183.80566406 72.44921875 C183.81113251 73.69687012 183.81113251 73.69687012 183.81671143 74.96972656 C183.36159629 77.78885532 182.36535546 79.15912145 180.44921875 81.24609375 C177.44191986 82.42873938 174.64824659 82.6830888 171.44921875 82.24609375 C168.92209719 80.49163235 168.07713812 78.97679722 166.44921875 76.24609375 C166.44921875 75.25609375 166.44921875 74.26609375 166.44921875 73.24609375 C165.4128125 73.81199219 164.37640625 74.37789063 163.30859375 74.9609375 C161.93892898 75.70205748 160.56913026 76.44292995 159.19921875 77.18359375 C158.51730469 77.55677734 157.83539062 77.92996094 157.1328125 78.31445312 C156.46894531 78.67216797 155.80507813 79.02988281 155.12109375 79.3984375 C154.51362305 79.72835693 153.90615234 80.05827637 153.28027344 80.39819336 C145.34405104 84.07319341 133.63753916 83.39492197 125.51171875 80.62109375 C112.15730495 74.91493493 104.10731831 66.51690908 98.44921875 53.24609375 C97.33148237 50.26266205 96.36542254 47.30010637 95.44921875 44.24609375 C94.45921875 44.90609375 93.46921875 45.56609375 92.44921875 46.24609375 C89.6587677 46.48660278 89.6587677 46.48660278 86.23364258 46.47314453 C84.95254105 46.47299347 83.67143951 46.47284241 82.35151672 46.47268677 C80.95309291 46.46247348 79.55467067 46.45204149 78.15625 46.44140625 C76.7256439 46.43767553 75.29503523 46.43482884 73.86442566 46.43283081 C70.10129731 46.42519897 66.33832364 46.40555444 62.57525635 46.38342285 C58.73443697 46.36295469 54.89359258 46.35382702 51.05273438 46.34375 C43.51815869 46.32230804 35.98371041 46.28817762 28.44921875 46.24609375 C29.35683675 47.84501414 30.27573485 49.43753422 31.19921875 51.02734375 C31.7096875 51.91486328 32.22015625 52.80238281 32.74609375 53.71679688 C36.41120846 59.15982847 42.00248036 62.9820274 48.44921875 64.24609375 C56.67560352 65.19779912 62.49399444 63.7182143 69.44921875 59.24609375 C70.77953125 58.10140625 70.77953125 58.10140625 72.13671875 56.93359375 C75.41039858 54.54469225 77.49103289 54.68063863 81.44921875 55.24609375 C84.38671875 56.74609375 84.38671875 56.74609375 86.44921875 59.24609375 C87.29354627 63.46773135 87.37620607 65.64305517 85.22265625 69.3671875 C79.62872704 76.37948265 71.74956604 80.35286611 62.9921875 81.96484375 C48.0269136 83.61998925 35.77911904 80.8601815 23.82421875 71.62109375 C18.75136585 67.08160155 14.59726116 60.69022099 12.44921875 54.24609375 C12.07796875 55.97859375 12.07796875 55.97859375 11.69921875 57.74609375 C9.49560569 66.30396092 5.89004854 72.24321501 -1.55078125 77.24609375 C-11.72992767 82.28981495 -22.76534154 84.25785859 -33.921875 81.375 C-41.94903019 78.256169 -48.78537853 73.90308405 -53.05078125 66.24609375 C-54.68718166 62.45228652 -55.2539361 59.38689455 -54.55078125 55.24609375 C-51.95862042 51.55422833 -50.50929061 50.41725614 -46.05078125 49.62109375 C-41.63498041 50.40962961 -40.32334367 51.78039073 -37.55078125 55.24609375 C-37.11765625 56.09171875 -36.68453125 56.93734375 -36.23828125 57.80859375 C-33.72691396 61.43612428 -30.69840875 62.89250502 -26.55078125 64.24609375 C-20.11520772 65.37374292 -13.95497997 63.94791275 -8.55078125 60.24609375 C-6.92200501 57.68804705 -6.55659692 56.38276206 -6.42578125 53.30859375 C-7.74691134 49.71218407 -9.34666711 48.26903691 -12.65625 46.390625 C-17.19590492 44.59559276 -21.90776433 43.78847289 -26.68212891 42.83105469 C-34.76541559 41.13862175 -43.01286966 38.5319298 -48.67578125 32.18359375 C-52.64763663 25.96102032 -53.47829685 20.52953202 -52.55078125 13.24609375 C-50.26690475 5.83146214 -46.31279569 0.97813451 -39.55078125 -2.75390625 C-27.8816007 -8.78336496 -10.7486892 -7.39075261 0 0 Z " fill="#ADC3CE" transform="translate(569.55078125,93.75390625)"/>
<path d="M0 0 C8.78730661 7.1544163 14.14551672 16.85751642 16 28 C17.17799943 41.51894588 13.33446234 53.76111394 4.75 64.375 C-2.82398512 72.36331691 -13.62561299 77.27237201 -24.5234375 78.34765625 C-37.69881412 78.67632617 -49.44033067 74.77927063 -59.3046875 65.85546875 C-67.67574693 56.69359495 -71.58784418 46.39521619 -71.4375 34.125 C-71.42920166 33.24803467 -71.42090332 32.37106934 -71.41235352 31.4675293 C-71.09026962 19.09423531 -66.65320388 10.86068425 -58.12109375 2.0625 C-41.01935192 -13.96822365 -18.32773847 -13.56252647 0 0 Z " fill="#ADC3CE" transform="translate(430,98)"/>
<path d="M0 0 C6.17524202 5.25389152 6.17524202 5.25389152 6.72265625 9.234375 C6.91246607 13.5780998 6.87260036 15.63592613 4.32421875 19.30859375 C1.44921875 21.24609375 1.44921875 21.24609375 -1.55078125 21.87109375 C-5.53658078 21.04071885 -6.83911754 19.22892383 -9.55078125 16.24609375 C-14.63147845 11.42594513 -19.65489658 11.80534549 -26.30859375 11.8125 C-29.7236137 12.26920749 -31.19533212 12.76300944 -33.55078125 15.24609375 C-33.88475912 18.3719625 -33.88475912 18.3719625 -33.55078125 21.24609375 C-29.18938818 23.66613502 -25.46654235 24.75449186 -20.55078125 25.49609375 C-9.35087272 27.50100704 0.75508848 31.89779601 7.95703125 41.0625 C11.7206639 46.57001479 13.04785662 50.91223883 12.078125 57.62890625 C10.04917019 66.07238278 5.73468454 72.49854586 -1.55078125 77.24609375 C-11.74636326 82.27489209 -22.75089821 84.26159076 -33.921875 81.375 C-41.94903019 78.256169 -48.78537853 73.90308405 -53.05078125 66.24609375 C-54.68718166 62.45228652 -55.2539361 59.38689455 -54.55078125 55.24609375 C-51.95862042 51.55422833 -50.50929061 50.41725614 -46.05078125 49.62109375 C-41.63498041 50.40962961 -40.32334367 51.78039073 -37.55078125 55.24609375 C-37.11765625 56.09171875 -36.68453125 56.93734375 -36.23828125 57.80859375 C-33.72691396 61.43612428 -30.69840875 62.89250502 -26.55078125 64.24609375 C-20.11520772 65.37374292 -13.95497997 63.94791275 -8.55078125 60.24609375 C-6.92200501 57.68804705 -6.55659692 56.38276206 -6.42578125 53.30859375 C-7.74691134 49.71218407 -9.34666711 48.26903691 -12.65625 46.390625 C-17.19590492 44.59559276 -21.90776433 43.78847289 -26.68212891 42.83105469 C-34.76541559 41.13862175 -43.01286966 38.5319298 -48.67578125 32.18359375 C-52.64763663 25.96102032 -53.47829685 20.52953202 -52.55078125 13.24609375 C-50.26690475 5.83146214 -46.31279569 0.97813451 -39.55078125 -2.75390625 C-27.8816007 -8.78336496 -10.7486892 -7.39075261 0 0 Z " fill="#ADC3CE" transform="translate(569.55078125,93.75390625)"/>
<path d="M0 0 C3.0625 0.5625 3.0625 0.5625 5.875 2.8125 C6.926875 3.39 7.97875 3.9675 9.0625 4.5625 C11.06950081 3.96955074 11.06950081 3.96955074 13.125 2.8125 C20.6024674 -1.05818901 28.84315191 -0.42685437 36.75 2 C46.50837176 6.0825841 52.19426908 12.83772032 56.75959778 22.1489563 C58.92615596 27.82523876 58.90140188 33.23071759 58.82421875 39.24609375 C58.82758743 40.50462662 58.83095612 41.76315948 58.83442688 43.05982971 C58.83405445 46.3677811 58.80523646 49.67396955 58.76593018 52.98162842 C58.74460407 55.68367 58.76433486 58.38480111 58.78402996 61.0868063 C58.80163485 64.32752592 58.78024201 67.56790945 58.76171875 70.80859375 C58.7721949 72.61643593 58.7721949 72.61643593 58.78288269 74.46080017 C58.64260032 82.75055448 58.64260032 82.75055448 55.73754883 86.81665039 C52.14952906 89.15834331 50.26372403 89.38774043 46.0625 88.5625 C42.89875748 85.85709971 41.34054712 84.13705409 40.61102295 80.00582886 C40.43699087 76.84691808 40.4229986 73.72208245 40.4609375 70.55859375 C40.45293121 69.40255142 40.44492493 68.24650909 40.43667603 67.05543518 C40.41362773 63.36993178 40.42306674 59.68553295 40.4375 56 C40.44134686 52.31110392 40.43792092 48.62269437 40.41690063 44.93385315 C40.40480731 42.64118867 40.40748705 40.34838754 40.42660522 38.05577087 C40.42294952 37.01441483 40.41929382 35.97305878 40.41552734 34.90014648 C40.41950531 33.98780746 40.42348328 33.07546844 40.42758179 32.13548279 C39.98847593 29.0408014 38.74189484 27.16623994 37.0625 24.5625 C37.0625 23.9025 37.0625 23.2425 37.0625 22.5625 C36.27875 22.253125 35.495 21.94375 34.6875 21.625 C32.0625 20.5625 32.0625 20.5625 30.0625 19.5625 C24.80699329 19.03866682 20.39783814 18.94252158 15.5625 21.1875 C11.19283671 25.33868013 9.89543764 29.09174136 9.69360352 35.02954102 C9.67924434 37.2084489 9.67934643 39.38748442 9.69140625 41.56640625 C9.67403086 43.93945462 9.65644641 46.31250146 9.63867188 48.68554688 C9.62858231 52.41400893 9.62500793 56.14237443 9.62670898 59.87084961 C9.62314391 63.47799403 9.59582615 67.08439406 9.56640625 70.69140625 C9.57458878 71.8060878 9.5827713 72.92076935 9.59120178 74.06922913 C9.516651 81.80511641 9.516651 81.80511641 7.15600586 85.74194336 C4.65861376 87.91372796 3.54161691 88.49861775 0.25 88.9375 C-4.09796196 88.42597506 -5.24604071 86.95909166 -7.9375 83.5625 C-8.43356821 80.80540511 -8.62403282 78.66390689 -8.58447266 75.9140625 C-8.59323425 75.16058533 -8.60199585 74.40710815 -8.61102295 73.63079834 C-8.63296498 71.14910681 -8.61848439 68.66920848 -8.6015625 66.1875 C-8.60493217 64.45784159 -8.60978605 62.72818548 -8.61605835 60.99853516 C-8.62342258 57.37704886 -8.61273913 53.75618003 -8.58935547 50.13476562 C-8.56086739 45.49731295 -8.57727385 40.86130708 -8.60721779 36.22390747 C-8.62530326 32.6532912 -8.61952713 29.08301682 -8.60657883 25.51239014 C-8.60324824 23.80279366 -8.60731971 22.09316594 -8.61897659 20.38360596 C-8.63170671 17.99188273 -8.61228212 15.60248768 -8.58447266 13.2109375 C-8.59459381 12.5074115 -8.60471497 11.8038855 -8.61514282 11.07904053 C-8.53278269 7.24729402 -8.00693105 5.64919509 -5.58065796 2.61962891 C-2.9375 0.5625 -2.9375 0.5625 0 0 Z " fill="#ADC3CE" transform="translate(454.9375,87.4375)"/>
<path d="M0 0 C2.68359375 2.49609375 2.68359375 2.49609375 5 5 C5.57105469 5.56203125 6.14210938 6.1240625 6.73046875 6.703125 C10.86902705 11.09687591 12.21816131 15.05532993 13 21 C11.109375 21.58984375 11.109375 21.58984375 9 22 C7.25 20.5625 7.25 20.5625 6 19 C2.10587648 21.59608235 2.23401329 23.60382764 1 28 C-0.1875 30 -0.1875 30 -2 31 C-6.55675083 31 -8.47458525 30.45834052 -11.9375 27.4375 C-12.618125 26.633125 -13.29875 25.82875 -14 25 C-14.495 25.99 -14.495 25.99 -15 27 C-15 26.34 -15 25.68 -15 25 C-15.61875 25.495 -16.2375 25.99 -16.875 26.5 C-19 28 -19 28 -21 28 C-20.95875 28.94875 -20.9175 29.8975 -20.875 30.875 C-21 34 -21 34 -23 36 C-25.625 36.125 -25.625 36.125 -28 36 C-27.24077483 42.13412901 -27.24077483 42.13412901 -23.875 47.0625 C-20.06219756 48.30580514 -17.00194689 48.20348883 -13 48 C-13.33 48.99 -13.66 49.98 -14 51 C-20.21917776 52.2001922 -23.42253354 52.06213845 -29 49 C-30.9375 47.3125 -30.9375 47.3125 -32 46 C-32.99 46.495 -32.99 46.495 -34 47 C-35.62165752 47.12148305 -37.24884327 47.17543652 -38.875 47.1875 C-39.73867187 47.20167969 -40.60234375 47.21585938 -41.4921875 47.23046875 C-44.1241288 46.98859252 -45.73980544 46.32983541 -48 45 C-48.495 45.99 -48.495 45.99 -49 47 C-51.97 46.505 -51.97 46.505 -55 46 C-55 46.66 -55 47.32 -55 48 C-55.99 47.505 -55.99 47.505 -57 47 C-56.34 45.02 -55.68 43.04 -55 41 C-54.67 41.99 -54.34 42.98 -54 44 C-53.01 43.67 -52.02 43.34 -51 43 C-51.2784375 42.1028125 -51.2784375 42.1028125 -51.5625 41.1875 C-52 39 -52 39 -51 36 C-59.67875472 38.75656822 -59.67875472 38.75656822 -67 44 C-67.598125 44.5775 -68.19625 45.155 -68.8125 45.75 C-69.204375 46.1625 -69.59625 46.575 -70 47 C-69.67 44.36 -69.34 41.72 -69 39 C-70.98 39 -72.96 39 -75 39 C-71.6468495 33.75159053 -67.56354845 32.19104997 -62 30 C-61.01 29.505 -61.01 29.505 -60 29 C-62.29629994 27.85185003 -64.07698086 27.69230191 -66.625 27.4375 C-67.44226563 27.35371094 -68.25953125 27.26992188 -69.1015625 27.18359375 C-70.04128906 27.09271484 -70.04128906 27.09271484 -71 27 C-70.67 26.01 -70.34 25.02 -70 24 C-72.91044936 22.76865604 -74.10516463 23.03299283 -77.1875 24 C-80.3838181 25.78567657 -80.3838181 25.78567657 -80.6875 29.5625 C-80.8421875 31.2640625 -80.8421875 31.2640625 -81 33 C-81.99 33.66 -82.98 34.32 -84 35 C-84.33 35.99 -84.66 36.98 -85 38 C-85.66 38 -86.32 38 -87 38 C-87.33 38.66 -87.66 39.32 -88 40 C-84.83706958 24.62161414 -72.43624814 9.75479483 -59.625 1.25 C-40.68669337 -10.21747119 -19.37066439 -11.3809076 0 0 Z " fill="#C7D3D9" transform="translate(116,28)"/>
<path d="M0 0 C4.17034717 3.46500304 7.12292798 6.00771056 8 11.5625 C7.4375 15 7.4375 15 5.3125 17.4375 C1.91151972 19.28585885 0.26574019 19.37623982 -3.5625 19 C-6.484375 17.50390625 -6.484375 17.50390625 -9.3125 15.5625 C-10.25609375 14.92441406 -11.1996875 14.28632812 -12.171875 13.62890625 C-12.96078125 13.09136719 -13.7496875 12.55382812 -14.5625 12 C-20.1159647 9.22326765 -30.39300407 9.97416895 -36.25390625 11.87109375 C-38.29144619 13.08723794 -39.87562662 14.33410763 -41.5625 16 C-42.12195313 16.54269531 -42.68140625 17.08539063 -43.2578125 17.64453125 C-49.1021752 23.89828167 -51.28822186 30.26717393 -51.03125 38.80078125 C-50.05619848 45.45550785 -47.36350191 51.46435617 -42.3359375 56.015625 C-35.10747406 60.99577038 -28.35840326 63.31433037 -19.5625 62 C-14.72852224 60.17357455 -9.59023577 58.11181262 -5.9609375 54.33203125 C-4.5625 53 -4.5625 53 -0.6875 52.5 C2.67875878 52.64311267 3.5400078 53.06903587 6.5 55.0625 C8.4375 58 8.4375 58 8.6875 61.3125 C6.64089006 67.34999932 3.2940315 71.36297182 -2.26171875 74.546875 C-5.00149892 75.81771437 -7.72755194 76.95957809 -10.5625 78 C-11.49578125 78.36609375 -12.4290625 78.7321875 -13.390625 79.109375 C-24.79083659 82.31041963 -36.81324926 80.33708065 -46.984375 74.64453125 C-57.72765093 67.92097098 -64.58829962 59.07719932 -67.9375 46.6875 C-70.13388888 33.90220475 -68.8248021 22.56593097 -61.98828125 11.4375 C-55.29827163 2.20559862 -45.2280402 -5.26826051 -33.94140625 -7.67578125 C-21.37184222 -9.38887454 -10.44140598 -7.44987561 0 0 Z " fill="#ADC3CE" transform="translate(351.5625,96)"/>
<path d="M0 0 C6.7047686 3.04388268 11.86003654 7.87033918 15.21484375 14.4453125 C17.12179871 20.65858359 17.31363993 29.89675502 14.984375 36.09375 C9.72814272 44.40198812 4.35998401 49.05188033 -4.953125 52.15625 C-13.03781879 53.09789487 -19.26643264 51.87224768 -25.953125 47.15625 C-31.64027634 42.03674277 -35.46703155 36.62940211 -36.30078125 28.95703125 C-36.67810214 20.00775381 -35.42865368 13.05851513 -29.2734375 6.31640625 C-20.87900673 -1.3131986 -10.96765294 -3.13361513 0 0 Z " fill="#56646C" transform="translate(411.953125,106.84375)"/>
<path d="M0 0 C7.02614367 4.0908797 12.26161227 10.14991244 14.5625 18 C15.75613793 26.68371597 13.32321651 34.46453716 8.8125 41.875 C2.20506702 48.11535337 -5.26688586 51.63477004 -14.390625 51.4375 C-21.69982264 50.38797419 -28.41013776 46.89071616 -33 41.0625 C-33.84978795 39.73141621 -34.66597211 38.37792174 -35.4375 37 C-36.05625 35.9275 -36.675 34.855 -37.3125 33.75 C-39.46159137 26.5863621 -39.57560244 19.6568027 -36.5 12.75 C-28.94554154 -0.59405767 -14.43840417 -6.57700312 0 0 Z " fill="#56656D" transform="translate(721.4375,108)"/>
<path d="M0 0 C2.69990662 1.79993774 4.5418865 3.083773 6 6 C6.09979216 7.35694612 6.13935428 8.71858969 6.14717102 10.07917786 C6.15432632 10.9329451 6.16148163 11.78671234 6.16885376 12.66635132 C6.17288712 14.07444565 6.17288712 14.07444565 6.17700195 15.51098633 C6.18357315 16.49811111 6.19014435 17.4852359 6.19691467 18.50227356 C6.21667458 21.77886017 6.22831587 25.0554009 6.23828125 28.33203125 C6.24235678 29.44927771 6.2464323 30.56652416 6.25063133 31.71762657 C6.2715029 37.63018994 6.2858003 43.54273001 6.29516602 49.45532227 C6.30623671 55.56888606 6.34064145 61.6820865 6.38033772 67.79552174 C6.40645552 72.49066352 6.41485353 77.18571808 6.41844749 81.88092613 C6.42332544 84.13480777 6.43497355 86.38868521 6.45348549 88.64249611 C6.47777503 91.79556885 6.47693035 94.94769286 6.4699707 98.10083008 C6.48278076 99.03348694 6.49559082 99.9661438 6.50878906 100.92706299 C6.47476345 105.15208633 6.37482187 107.39847405 4.09562683 111.05619812 C1.58987387 113.38041312 0.58846245 113.93461528 -2.8125 114.3125 C-6.7307645 113.92835642 -8.21293267 112.70743683 -11 110 C-12.13915284 107.72169432 -12.13262802 106.452188 -12.14717102 103.92082214 C-12.15432632 103.0670549 -12.16148163 102.21328766 -12.16885376 101.33364868 C-12.17154266 100.39491913 -12.17423157 99.45618958 -12.17700195 98.48901367 C-12.18357315 97.50188889 -12.19014435 96.5147641 -12.19691467 95.49772644 C-12.21667458 92.22113983 -12.22831587 88.9445991 -12.23828125 85.66796875 C-12.24235678 84.55072229 -12.2464323 83.43347584 -12.25063133 82.28237343 C-12.2715029 76.36981006 -12.2858003 70.45726999 -12.29516602 64.54467773 C-12.30623671 58.43111394 -12.34064145 52.3179135 -12.38033772 46.20447826 C-12.40645552 41.50933648 -12.41485353 36.81428192 -12.41844749 32.11907387 C-12.42332544 29.86519223 -12.43497355 27.61131479 -12.45348549 25.35750389 C-12.47777503 22.20443115 -12.47693035 19.05230714 -12.4699707 15.89916992 C-12.48278076 14.96651306 -12.49559082 14.0338562 -12.50878906 13.07293701 C-12.47476345 8.84791367 -12.37482187 6.60152595 -10.09562683 2.94380188 C-6.73101255 -0.17705125 -4.5535312 -0.44642463 0 0 Z " fill="#ABC1CB" transform="translate(770,62)"/>
<path d="M0 0 C0.495 2.475 0.495 2.475 1 5 C2.32 5 3.64 5 5 5 C7.25 6 7.25 6 9 7 C8.62403791 9.78211944 8.32681541 11.5879284 6.5625 13.8125 C5 15 5 15 3 15 C2.67 16.32 2.34 17.64 2 19 C1.34 18.67 0.68 18.34 0 18 C-0.185625 19.423125 -0.185625 19.423125 -0.375 20.875 C-1 24 -1 24 -3 26 C-5.34765625 26.4140625 -5.34765625 26.4140625 -8.0625 26.625 C-8.96097656 26.69976562 -9.85945313 26.77453125 -10.78515625 26.8515625 C-13 27 -13 27 -14 27 C-14.33 28.32 -14.66 29.64 -15 31 C-14.01 31.33 -13.02 31.66 -12 32 C-12.99 32.495 -12.99 32.495 -14 33 C-14 34.32 -14 35.64 -14 37 C-16.31 37 -18.62 37 -21 37 C-20.67 38.32 -20.34 39.64 -20 41 C-18.02 41 -16.04 41 -14 41 C-16 43 -16 43 -19.3125 44.3125 C-23.02799238 45.82191878 -25.27941705 48.04622422 -28 51 C-28.99 51.495 -28.99 51.495 -30 52 C-29.67 49.36 -29.34 46.72 -29 44 C-30.98 44 -32.96 44 -35 44 C-31.6468495 38.75159053 -27.56354845 37.19104997 -22 35 C-21.01 34.505 -21.01 34.505 -20 34 C-22.29629994 32.85185003 -24.07698086 32.69230191 -26.625 32.4375 C-27.44226563 32.35371094 -28.25953125 32.26992188 -29.1015625 32.18359375 C-30.04128906 32.09271484 -30.04128906 32.09271484 -31 32 C-30.67 31.01 -30.34 30.02 -30 29 C-32.91044936 27.76865604 -34.10516463 28.03299283 -37.1875 29 C-40.3838181 30.78567657 -40.3838181 30.78567657 -40.6875 34.5625 C-40.8421875 36.2640625 -40.8421875 36.2640625 -41 38 C-41.99 38.66 -42.98 39.32 -44 40 C-44.33 40.99 -44.66 41.98 -45 43 C-45.66 43 -46.32 43 -47 43 C-47.33 43.66 -47.66 44.32 -48 45 C-44.83706958 29.62161414 -32.43624814 14.75479483 -19.625 6.25 C-5.93147556 -2.05372275 -5.93147556 -2.05372275 0 0 Z " fill="#C5D1D7" transform="translate(76,23)"/>
<path d="M0 0 C0.5878125 0.9590625 0.5878125 0.9590625 1.1875 1.9375 C3.38472296 4.43778819 4.75791433 4.64950425 8 5 C9.81488974 9.64445963 10.29480343 13.80031782 10.265625 18.734375 C10.26849518 19.81322968 10.26849518 19.81322968 10.27142334 20.91387939 C10.27277672 22.42322137 10.26913985 23.93257531 10.26074219 25.44189453 C10.24996696 27.7570985 10.26069788 30.07153766 10.2734375 32.38671875 C10.27211698 33.85677255 10.26955683 35.32682587 10.265625 36.796875 C10.26967346 37.48956482 10.27372192 38.18225464 10.27789307 38.89593506 C10.2299682 43.7700318 10.2299682 43.7700318 8 46 C5.09973937 44.54986969 4.95045604 42.69479373 3.875 39.6875 C3.52179688 38.72199219 3.16859375 37.75648437 2.8046875 36.76171875 C2 34 2 34 2 30 C3.65 30 5.3 30 7 30 C3.34372865 24.85836841 0.20072222 22.41419981 -6 21 C-9.3347049 20.7464579 -9.3347049 20.7464579 -12 21 C-11.67 21.99 -11.34 22.98 -11 24 C-11.66 24.33 -12.32 24.66 -13 25 C-11.68 25.66 -10.36 26.32 -9 27 C-12 29 -12 29 -15 29 C-15.33 30.32 -15.66 31.64 -16 33 C-14.02 33.33 -12.04 33.66 -10 34 C-9.67 34.99 -9.34 35.98 -9 37 C-12.63423209 39.32590854 -15.77088331 39.16265833 -20 39 C-20.33 38.34 -20.66 37.68 -21 37 C-20.505 36.505 -20.505 36.505 -20 36 C-20.66 36 -21.32 36 -22 36 C-22 35.34 -22 34.68 -22 34 C-21.34 34 -20.68 34 -20 34 C-20 33.34 -20 32.68 -20 32 C-21.5778125 32.0928125 -21.5778125 32.0928125 -23.1875 32.1875 C-27.21353023 31.98949851 -28.85623579 31.42518953 -32 29 C-34.4294516 25.3558226 -34.16179575 23.28758728 -34 19 C-32.02 18.34 -30.04 17.68 -28 17 C-28.103125 16.071875 -28.20625 15.14375 -28.3125 14.1875 C-28 11 -28 11 -25.8125 9.125 C-22.86406657 7.94562663 -21.12957214 7.50585703 -18 8 C-16.1875 9.375 -16.1875 9.375 -15 11 C-15 11.66 -15 12.32 -15 13 C-12.03 13 -9.06 13 -6 13 C-5.7525 11.5975 -5.505 10.195 -5.25 8.75 C-4.3796605 4.74517692 -3.34249171 2.56257698 0 0 Z " fill="#CAD5DA" transform="translate(122,45)"/>
<path d="M0 0 C1.32 0.66 2.64 1.32 4 2 C4 2.66 4 3.32 4 4 C4.99 4.33 5.98 4.66 7 5 C8.12683534 6.16098187 9.25287768 7.32274348 10.375 8.48828125 C14.70456133 12.5160222 19.90098014 15.64940116 24.859375 18.83984375 C30.4897092 22.4816869 35.80729696 26.31577592 40.9375 30.625 C41.46899658 31.06811523 42.00049316 31.51123047 42.5480957 31.96777344 C48.51307372 37.07980211 52.65556373 42.6708597 56.25 49.5625 C56.600625 50.20896484 56.95125 50.85542969 57.3125 51.52148438 C60.44084751 57.43526439 61.9758926 63.31784653 61 70 C58.65666672 73.90555547 56.05318833 76.001475 52 78 C34.94556517 80.11513102 18.34289396 74.52755397 4.75 64.25 C-0.24230045 60.08167147 -4.16470896 55.22799449 -8 50 C-7.67 49.34 -7.34 48.68 -7 48 C-6.55011719 48.4846875 -6.10023437 48.969375 -5.63671875 49.46875 C2.39613367 57.83965833 10.8985374 64.38720175 22 68 C22.84691406 68.28617187 23.69382812 68.57234375 24.56640625 68.8671875 C32.45233915 71.39550186 43.20306729 74.33316263 51.203125 71.11328125 C53.15924827 70.11882754 53.15924827 70.11882754 54 68 C54.55401136 61.43709621 53.26101537 57.45776499 50.125 51.75 C49.76019531 51.05648437 49.39539063 50.36296875 49.01953125 49.6484375 C48.3231534 48.32658573 47.61824071 47.00918141 46.90332031 45.69726562 C46.18800557 44.35324722 45.54512159 42.97071308 44.9296875 41.578125 C44.02208532 39.6424286 44.02208532 39.6424286 41 39 C41 38.34 41 37.68 41 37 C40.443125 36.773125 39.88625 36.54625 39.3125 36.3125 C37 35 37 35 34.76953125 32.71484375 C31.84959814 29.852568 28.73066936 27.55484797 25.375 25.25 C15.42882335 18.23934052 6.2368939 11.72830897 0 1 C0 0.67 0 0.34 0 0 Z " fill="#798F9A" transform="translate(48,131)"/>
<path d="M0 0 C0.99 0.33 1.98 0.66 3 1 C3.05871491 5.29160791 3.09383483 9.58311058 3.125 13.875 C3.14175781 15.07898438 3.15851563 16.28296875 3.17578125 17.5234375 C3.20976534 23.77651073 2.85957346 29.42495038 1.45849609 35.51123047 C0.56781975 40.34592409 0.71301648 45.22468301 0.75 50.125 C0.74226562 51.15753906 0.73453125 52.19007813 0.7265625 53.25390625 C0.74171878 59.20274423 1.29293479 64.30122592 3 70 C3.28875 71.11375 3.5775 72.2275 3.875 73.375 C4.77391039 76.03279222 4.77391039 76.03279222 6.6875 77.375 C10.17919988 78.31870267 12.38418588 78.62341623 16 78 C28.19650402 67.40750272 32.21740659 46.95907226 33.34375 31.6796875 C33.60261013 27.78824227 33.81214719 23.895474 34 20 C37.05585017 23.05585017 36.3217923 26.12287515 36.38012695 30.30395508 C36.36304691 41.57597308 35.9557495 51.3349891 32 62 C31.62617188 63.07378906 31.25234375 64.14757812 30.8671875 65.25390625 C28.21952147 72.25882398 24.62981288 80.1751824 17.99609375 84.22265625 C13.87801076 85.82637154 10.1015938 85.31474108 5.9375 84.125 C-0.27786146 79.62878107 -3.35897004 72.62257739 -4.67578125 65.203125 C-4.78277344 64.47609375 -4.88976562 63.7490625 -5 63 C-5.17144531 62.03320312 -5.34289062 61.06640625 -5.51953125 60.0703125 C-7.21203744 49.25478517 -5.24480107 39.86956346 -2.86010742 29.33447266 C-0.72760297 19.55724199 -0.12147805 9.98328681 0 0 Z " fill="#778D98" transform="translate(128,112)"/>
<path d="M0 0 C7.69052252 3.53600656 11.90161815 8.34584225 15.01171875 16.12109375 C-1.48828125 16.12109375 -17.98828125 16.12109375 -34.98828125 16.12109375 C-30.46781341 7.08015808 -30.46781341 7.08015808 -27.61328125 4.80859375 C-27.06929687 4.35871094 -26.5253125 3.90882812 -25.96484375 3.4453125 C-17.99280392 -1.89563908 -9.24397537 -2.71881629 0 0 Z " fill="#56656D" transform="translate(632.98828125,106.87890625)"/>
<path d="M0 0 C2.8125 1.75 2.8125 1.75 5 4 C5.64195312 4.59554687 6.28390625 5.19109375 6.9453125 5.8046875 C9.17513811 8.18712475 10.54755595 10.49054652 12.0625 13.375 C12.57167969 14.33792969 13.08085937 15.30085938 13.60546875 16.29296875 C15.09500878 19.1844288 16.57710779 22.07516602 18 25 C18.66 25 19.32 25 20 25 C20.21269531 24.43410156 20.42539063 23.86820313 20.64453125 23.28515625 C24.41729816 16.92472789 33.91658813 10.96761441 41 9 C45.55829408 8.64234923 49.64014136 8.54671379 54 10 C54 10.66 54 11.32 54 12 C53.32195312 12.02578125 52.64390625 12.0515625 51.9453125 12.078125 C43.23655399 12.60885267 34.22908552 14.42485417 28 21 C22.62831796 27.92869133 19.888835 36.13645379 17.06713867 44.33569336 C14.90608902 50.39324041 12.15536223 55.08801557 8 60 C6.515 59.505 6.515 59.505 5 59 C5.34933594 58.16855469 5.69867188 57.33710937 6.05859375 56.48046875 C6.51363281 55.39378906 6.96867187 54.30710938 7.4375 53.1875 C7.88996094 52.10855469 8.34242188 51.02960938 8.80859375 49.91796875 C12.61627415 40.59227281 12.94091291 26.70959662 9.4375 17.1875 C6.7314051 11.8139687 2.84482839 5.94827613 -3 4 C-5.33299825 3.96045766 -7.66708189 3.95598268 -10 4 C-9.85890014 6.10448938 -9.71195825 8.2085877 -9.5625 10.3125 C-9.44068359 12.07013672 -9.44068359 12.07013672 -9.31640625 13.86328125 C-9.1132629 17.02590958 -9.1132629 17.02590958 -8 20 C-7.90774626 21.49520682 -7.86932539 22.9941389 -7.8671875 24.4921875 C-7.86589844 25.36230469 -7.86460937 26.23242188 -7.86328125 27.12890625 C-7.86714844 28.03511719 -7.87101563 28.94132812 -7.875 29.875 C-7.87113281 30.77347656 -7.86726562 31.67195313 -7.86328125 32.59765625 C-7.86956779 36.85364451 -7.90709244 40.85389036 -9 45 C-9.33 45 -9.66 45 -10 45 C-10.02505615 44.26064209 -10.0501123 43.52128418 -10.07592773 42.75952148 C-10.19396563 39.31875708 -10.31558794 35.87812927 -10.4375 32.4375 C-10.4797168 31.20580078 -10.52193359 29.97410156 -10.56542969 28.70507812 C-10.84421711 20.97635827 -11.29033579 13.31684652 -12.109375 5.625 C-12 3 -12 3 -10.7890625 1.15234375 C-7.43958356 -1.00507172 -3.82343789 -0.61363818 0 0 Z " fill="#7D8F9A" transform="translate(201,56)"/>
<path d="M0 0 C2.62361607 2.54865561 4.96674157 4.95628892 7.1875 7.875 C15.43196141 17.86052779 29.16267298 23.91135023 41.6015625 26.1640625 C44 27 44 27 45.38671875 28.921875 C46.42228171 32.43091637 44.5554596 34.88908081 43 38 C43.99 38.495 43.99 38.495 45 39 C45 39.66 45 40.32 45 41 C40.35264766 39.67218505 36.96713076 37.7274024 33 35 C32.07445312 34.57074219 31.14890625 34.14148438 30.1953125 33.69921875 C26.62716417 31.80173156 23.80432737 29.48960994 20.875 26.75 C20.32094482 26.23493896 19.76688965 25.71987793 19.19604492 25.18920898 C14.89658263 21.08221447 11.03734939 16.69314687 7.3125 12.0625 C6.8076709 11.43633789 6.3028418 10.81017578 5.78271484 10.16503906 C3.24050352 6.91009907 1.29131688 3.9796725 0 0 Z " fill="#BCCAD2" transform="translate(40,181)"/>
<path d="M0 0 C1.31677734 0.14695313 1.31677734 0.14695313 2.66015625 0.296875 C3.97306641 0.42835937 3.97306641 0.42835937 5.3125 0.5625 C7.72265625 1.046875 7.72265625 1.046875 10.72265625 3.046875 C9.84765625 7.921875 9.84765625 7.921875 8.72265625 9.046875 C7.0564851 9.08751332 5.3887753 9.089596 3.72265625 9.046875 C4.48188142 15.18100401 4.48188142 15.18100401 7.84765625 20.109375 C11.66045869 21.35268014 14.72070936 21.25036383 18.72265625 21.046875 C18.22765625 22.531875 18.22765625 22.531875 17.72265625 24.046875 C11.50347849 25.2470672 8.30012271 25.10901345 2.72265625 22.046875 C0.78515625 20.359375 0.78515625 20.359375 -0.27734375 19.046875 C-0.93734375 19.376875 -1.59734375 19.706875 -2.27734375 20.046875 C-7.2909433 20.58816628 -11.07981769 20.81329168 -15.40234375 18.046875 C-16.02109375 17.386875 -16.63984375 16.726875 -17.27734375 16.046875 C-16.94734375 15.056875 -16.61734375 14.066875 -16.27734375 13.046875 C-15.57609375 13.541875 -14.87484375 14.036875 -14.15234375 14.546875 C-10.76484042 16.31426804 -9.04381795 16.6746207 -5.27734375 16.046875 C-2.17569606 13.49663135 -0.55167959 11.86988253 0.72265625 8.046875 C0.08328125 7.799375 -0.55609375 7.551875 -1.21484375 7.296875 C-3.27734375 6.046875 -3.27734375 6.046875 -4.15234375 4.046875 C-4.19359375 3.386875 -4.23484375 2.726875 -4.27734375 2.046875 C-2.27734375 0.046875 -2.27734375 0.046875 0 0 Z " fill="#1B2022" transform="translate(84.27734375,54.953125)"/>
<path d="M0 0 C6.68569826 -0.35816241 12.51713689 0.08773361 17.8359375 4.53515625 C19.28003786 5.96908689 20.64796117 7.47895631 22 9 C21.67 9.66 21.34 10.32 21 11 C18.525 10.505 18.525 10.505 16 10 C16.30035156 10.84304687 16.60070312 11.68609375 16.91015625 12.5546875 C17.29042969 13.65039062 17.67070313 14.74609375 18.0625 15.875 C18.63677734 17.51082031 18.63677734 17.51082031 19.22265625 19.1796875 C20 22 20 22 19 24 C18.43732422 22.87851563 18.43732422 22.87851563 17.86328125 21.734375 C14.17552276 14.31305939 14.17552276 14.31305939 8 9 C7.34 9 6.68 9 6 9 C5.67 9.66 5.34 10.32 5 11 C5.45375 11.5775 5.9075 12.155 6.375 12.75 C9.1936566 16.65275529 10.27085087 19.12468426 10 24 C8 22 8 22 6.875 18.4375 C5.45048624 14.90730818 5.45048624 14.90730818 3.02734375 14.3203125 C0.55284316 13.99511386 0.55284316 13.99511386 -3 14 C-2.3125 11.625 -2.3125 11.625 -1 9 C1.625 7.6875 1.625 7.6875 4 7 C2.68 6.34 1.36 5.68 0 5 C0.66 3.68 1.32 2.36 2 1 C1.34 0.67 0.68 0.34 0 0 Z " fill="#C2CDD1" transform="translate(108,65)"/>
<path d="M0 0 C2.8125 1.75 2.8125 1.75 5 4 C5.64195312 4.59554687 6.28390625 5.19109375 6.9453125 5.8046875 C9.17513811 8.18712475 10.54755595 10.49054652 12.0625 13.375 C12.57296875 14.34050781 13.0834375 15.30601563 13.609375 16.30078125 C15.09738941 19.18903393 16.57698839 22.07908142 18 25 C18.33 25.66 18.66 26.32 19 27 C18.01 27.33 17.02 27.66 16 28 C15.34 25.69 14.68 23.38 14 21 C13.01 21.33 12.02 21.66 11 22 C10.56300781 21.03900391 10.56300781 21.03900391 10.1171875 20.05859375 C7.45577128 14.44283814 4.69162612 9.19169875 0 5 C-3.47325181 3.8422494 -6.36067448 3.93133348 -10 4 C-9.85890014 6.10448938 -9.71195825 8.2085877 -9.5625 10.3125 C-9.44068359 12.07013672 -9.44068359 12.07013672 -9.31640625 13.86328125 C-9.1132629 17.02590958 -9.1132629 17.02590958 -8 20 C-7.90774626 21.49520682 -7.86932539 22.9941389 -7.8671875 24.4921875 C-7.86589844 25.36230469 -7.86460937 26.23242188 -7.86328125 27.12890625 C-7.86714844 28.03511719 -7.87101563 28.94132812 -7.875 29.875 C-7.87113281 30.77347656 -7.86726562 31.67195313 -7.86328125 32.59765625 C-7.86956779 36.85364451 -7.90709244 40.85389036 -9 45 C-9.33 45 -9.66 45 -10 45 C-10.02505615 44.26064209 -10.0501123 43.52128418 -10.07592773 42.75952148 C-10.19396563 39.31875708 -10.31558794 35.87812927 -10.4375 32.4375 C-10.4797168 31.20580078 -10.52193359 29.97410156 -10.56542969 28.70507812 C-10.84421711 20.97635827 -11.29033579 13.31684652 -12.109375 5.625 C-12 3 -12 3 -10.7890625 1.15234375 C-7.43958356 -1.00507172 -3.82343789 -0.61363818 0 0 Z " fill="#75828B" transform="translate(201,56)"/>
<path d="M0 0 C1.65603262 0.46691386 3.29348001 0.99886834 4.92578125 1.54296875 C4.59578125 2.16171875 4.26578125 2.78046875 3.92578125 3.41796875 C2.7838489 5.45315219 2.7838489 5.45315219 2.92578125 7.54296875 C0.61578125 7.54296875 -1.69421875 7.54296875 -4.07421875 7.54296875 C-3.74421875 8.86296875 -3.41421875 10.18296875 -3.07421875 11.54296875 C-1.09421875 11.54296875 0.88578125 11.54296875 2.92578125 11.54296875 C0.92578125 13.54296875 0.92578125 13.54296875 -2.38671875 14.85546875 C-6.10221113 16.36488753 -8.3536358 18.58919297 -11.07421875 21.54296875 C-11.73421875 21.87296875 -12.39421875 22.20296875 -13.07421875 22.54296875 C-12.74421875 19.90296875 -12.41421875 17.26296875 -12.07421875 14.54296875 C-14.05421875 14.54296875 -16.03421875 14.54296875 -18.07421875 14.54296875 C-14.72106825 9.29455928 -10.6377672 7.73401872 -5.07421875 5.54296875 C-4.41421875 5.21296875 -3.75421875 4.88296875 -3.07421875 4.54296875 C-5.37051869 3.39481878 -7.15119961 3.23527066 -9.69921875 2.98046875 C-10.51648437 2.89667969 -11.33375 2.81289063 -12.17578125 2.7265625 C-12.80226563 2.66597656 -13.42875 2.60539062 -14.07421875 2.54296875 C-10.04137447 -1.48987553 -5.23374386 -1.1531978 0 0 Z " fill="#939DA3" transform="translate(59.07421875,52.45703125)"/>
<path d="M0 0 C0 0.99 0 1.98 0 3 C-1.43419674 4.23407626 -2.87722434 5.45996555 -4.37109375 6.62109375 C-6.24518821 8.11301827 -6.24518821 8.11301827 -8.25 10.875 C-11.70297725 15.21077726 -16.42293599 17.97323187 -21 21 C-22.051875 21.7425 -23.10375 22.485 -24.1875 23.25 C-27.35887657 25.22330098 -30.54040047 26.59270528 -34 28 C-35.35730662 28.62905355 -36.71403858 29.25934798 -38.0703125 29.890625 C-43.11646272 32.1377026 -48.25489854 33.74342522 -53.5625 35.25 C-54.45646484 35.518125 -55.35042969 35.78625 -56.27148438 36.0625 C-61.70419263 37.62037976 -66.35085172 38.29003795 -72 38 C-72 37.67 -72 37.34 -72 37 C-70.86820313 36.75765625 -69.73640625 36.5153125 -68.5703125 36.265625 C-67.08834148 35.92796072 -65.60658117 35.58937073 -64.125 35.25 C-63.00544922 35.01410156 -63.00544922 35.01410156 -61.86328125 34.7734375 C-57.57595107 33.89673774 -57.57595107 33.89673774 -54.64453125 30.90625 C-54.43183594 30.2771875 -54.21914062 29.648125 -54 29 C-51.20402714 28.13970066 -48.92828926 28 -46 28 C-40.64769754 27.70933189 -36.38921709 27.35646013 -32 24 C-31.319375 23.195625 -31.319375 23.195625 -30.625 22.375 C-29 21 -29 21 -25.4375 20.5625 C-24.303125 20.376875 -23.16875 20.19125 -22 20 C-20.72510734 18.20072961 -20.72510734 18.20072961 -20 16 C-17.85662709 13.41317062 -16.79370474 12.13551056 -13.4375 11.5625 C-10.75549178 11.22073213 -10.75549178 11.22073213 -9.1875 8.5625 C-7.85984633 6.16827661 -7.85984633 6.16827661 -8 4 C-6.8553125 3.8453125 -6.8553125 3.8453125 -5.6875 3.6875 C-2.82940576 2.95635961 -1.84257115 2.23048087 0 0 Z " fill="#9FB3BC" transform="translate(204,192)"/>
<path d="M0 0 C-0.20625 0.7425 -0.4125 1.485 -0.625 2.25 C-1.05697922 5.41784763 -0.41722453 6.25412747 1 9 C0.625 11.25 0.625 11.25 0 13 C-7.25 12.6375 -7.25 12.6375 -10.5 9.875 C-12.33014743 6.36721742 -12.30615 3.90341251 -12 0 C-10.56359829 -0.19573608 -9.12580496 -0.38127816 -7.6875 -0.5625 C-6.88699219 -0.66691406 -6.08648437 -0.77132812 -5.26171875 -0.87890625 C-3 -1 -3 -1 0 0 Z " fill="#CBD9DE" transform="translate(100,64)"/>
<path d="M0 0 C3.375 0.9375 3.375 0.9375 5.375 3.9375 C5.87951649 7.21685719 5.65022753 8.51915416 3.8125 11.3125 C1.375 12.9375 1.375 12.9375 -2.25 12.875 C-5.625 11.9375 -5.625 11.9375 -7.625 8.9375 C-8.12951649 5.65814281 -7.90022753 4.35584584 -6.0625 1.5625 C-3.625 -0.0625 -3.625 -0.0625 0 0 Z " fill="#202428" transform="translate(112.625,46.0625)"/>
<path d="M0 0 C2 1.625 2 1.625 3 4 C2.77962372 7.67293796 2.63033454 9.36966546 0 12 C-6.05240175 12.55021834 -6.05240175 12.55021834 -8.9375 10.875 C-10.50422245 8.11019567 -10.38976435 6.11811483 -10 3 C-7.72375139 -1.01690931 -4.20725277 -0.5259066 0 0 Z " fill="#191D21" transform="translate(73,37)"/>
<path d="M0 0 C2.12663421 4.25326842 -0.42688195 10.43260818 -1.3125 14.9375 C-1.53873047 16.14341797 -1.76496094 17.34933594 -1.99804688 18.59179688 C-2.22169922 19.74615234 -2.44535156 20.90050781 -2.67578125 22.08984375 C-2.88114502 23.15066162 -3.08650879 24.21147949 -3.2980957 25.30444336 C-4 28 -4 28 -6 31 C-6 27.04 -6 23.08 -6 19 C-7.65 19 -9.3 19 -11 19 C-10.34 17.02 -9.68 15.04 -9 13 C-8.34 13 -7.68 13 -7 13 C-6.34 11.35 -5.68 9.7 -5 8 C-4.34 8 -3.68 8 -3 8 C-2.87625 7.236875 -2.7525 6.47375 -2.625 5.6875 C-2 3 -2 3 0 0 Z " fill="#A6BEC5" transform="translate(234,113)"/>
<path d="M0 0 C5.49886849 0.40235623 9.05823809 2.2782879 13 6 C16.07023736 9.96726454 17.51279847 14.0061843 18 19 C15.23847728 17.61923864 14.94186713 15.97816042 13.6875 13.1875 C11.70526355 9.08814118 10.01628781 6.38806302 6 4 C5.34 4 4.68 4 4 4 C3.67 4.66 3.34 5.32 3 6 C3.680625 6.86625 3.680625 6.86625 4.375 7.75 C7.1936566 11.65275529 8.27085087 14.12468426 8 19 C6 17 6 17 4.875 13.4375 C3.45048624 9.90730818 3.45048624 9.90730818 1.02734375 9.3203125 C-1.44715684 8.99511386 -1.44715684 8.99511386 -5 9 C-4.3125 6.625 -4.3125 6.625 -3 4 C-0.375 2.6875 -0.375 2.6875 2 2 C1.34 1.34 0.68 0.68 0 0 Z " fill="#5A6469" transform="translate(110,70)"/>
<path d="M0 0 C1.65603262 0.46691386 3.29348001 0.99886834 4.92578125 1.54296875 C4.59578125 2.16171875 4.26578125 2.78046875 3.92578125 3.41796875 C2.7838489 5.45315219 2.7838489 5.45315219 2.92578125 7.54296875 C1.97316406 7.713125 1.02054688 7.88328125 0.0390625 8.05859375 C-1.84232422 8.42210937 -1.84232422 8.42210937 -3.76171875 8.79296875 C-5.00308594 9.025 -6.24445312 9.25703125 -7.5234375 9.49609375 C-11.23065738 10.58909147 -13.26254354 11.94095957 -16.07421875 14.54296875 C-16.73421875 14.21296875 -17.39421875 13.88296875 -18.07421875 13.54296875 C-13.38070736 9.01079681 -9.30559901 6.51077304 -3.07421875 4.54296875 C-5.37051869 3.39481878 -7.15119961 3.23527066 -9.69921875 2.98046875 C-10.51648437 2.89667969 -11.33375 2.81289063 -12.17578125 2.7265625 C-12.80226563 2.66597656 -13.42875 2.60539062 -14.07421875 2.54296875 C-10.04137447 -1.48987553 -5.23374386 -1.1531978 0 0 Z " fill="#515A5F" transform="translate(59.07421875,52.45703125)"/>
<path d="M0 0 C2.62361607 2.54865561 4.96674157 4.95628892 7.1875 7.875 C10.09858446 11.46286524 13.78629335 13.83210726 17.59765625 16.38671875 C19.78977443 17.85882413 21.90269739 19.3967502 24 21 C23.360625 21.309375 22.72125 21.61875 22.0625 21.9375 C20.06389179 22.8345163 20.06389179 22.8345163 19 24 C14.14468563 20.30573907 10.39899151 16.23865948 6.6875 11.4375 C6.25518066 10.88360596 5.82286133 10.32971191 5.37744141 9.7590332 C3.01446801 6.63955495 1.25123746 3.71223491 0 0 Z " fill="#BECCD4" transform="translate(40,181)"/>
<path d="M0 0 C0.33 0.66 0.66 1.32 1 2 C1.66 2 2.32 2 3 2 C3.556875 2.9590625 3.556875 2.9590625 4.125 3.9375 C6.62175192 6.68392711 8.47601365 6.58647818 12.0625 6.82421875 C14 7 14 7 17 8 C16.67 8.66 16.34 9.32 16 10 C9.92844493 11.36086579 6.37265794 11.22359476 1 8 C-0.5 5.5 -0.5 5.5 -1 3 C-0.67 2.01 -0.34 1.02 0 0 Z " fill="#23282C" transform="translate(86,69)"/>
<path d="M0 0 C1.98 0 3.96 0 6 0 C6 0.66 6 1.32 6 2 C6.66 2 7.32 2 8 2 C8.04254356 3.99954746 8.04080783 6.00041636 8 8 C7 9 7 9 4.5625 9.1875 C2 9 2 9 0 7 C-0.125 3.375 -0.125 3.375 0 0 Z " fill="#ADBDC3" transform="translate(102,34)"/>
<path d="M0 0 C0.9375 3.6875 0.9375 3.6875 1 7 C-3 2.25 -3 2.25 -3 0 C-14.68888794 -0.47458643 -20.70077696 0.9781377 -30 8 C-30 7.01 -30 6.02 -30 5 C-21.74722444 -2.50773332 -10.01340641 -6.08658037 0 0 Z " fill="#63707A" transform="translate(258,66)"/>
<path d="M0 0 C0.86625 0.556875 0.86625 0.556875 1.75 1.125 C1.4375 3.5 1.4375 3.5 0.75 6.125 C-2.25 8.125 -2.25 8.125 -4.9375 7.75 C-5.700625 7.54375 -6.46375 7.3375 -7.25 7.125 C-7 4.25 -7 4.25 -6.25 1.125 C-3.81898759 -0.88687234 -2.96224678 -1.15198486 0 0 Z " fill="#AABBC1" transform="translate(83.25,28.875)"/>
<path d="M0 0 C0.99 0.66 1.98 1.32 3 2 C2.67 2.66 2.34 3.32 2 4 C4.97 4.495 4.97 4.495 8 5 C8.33 5.99 8.66 6.98 9 8 C5.36576791 10.32590854 2.22911669 10.16265833 -2 10 C-2.33 9.34 -2.66 8.68 -3 8 C-2.67 7.67 -2.34 7.34 -2 7 C-2.66 7 -3.32 7 -4 7 C-4 6.34 -4 5.68 -4 5 C-2.68 4.67 -1.36 4.34 0 4 C0 2.68 0 1.36 0 0 Z " fill="#D0DBE1" transform="translate(104,74)"/>
<path d="M0 0 C1.32 0.33 2.64 0.66 4 1 C3.01 1 2.02 1 1 1 C1 1.66 1 2.32 1 3 C1.99 2.67 2.98 2.34 4 2 C4 2.66 4 3.32 4 4 C4.66 4.33 5.32 4.66 6 5 C5.67 6.65 5.34 8.3 5 10 C6.32 10 7.64 10 9 10 C9 10.66 9 11.32 9 12 C9.99 12.33 10.98 12.66 12 13 C4.75 12.6375 4.75 12.6375 1.5 9.875 C-0.33014743 6.36721742 -0.30615 3.90341251 0 0 Z " fill="#B9C2C5" transform="translate(88,64)"/>
<path d="M0 0 C-0.33 1.65 -0.66 3.3 -1 5 C-3.31 5 -5.62 5 -8 5 C-8.33 5.99 -8.66 6.98 -9 8 C-9.99 7.67 -10.98 7.34 -12 7 C-11.67 4.69 -11.34 2.38 -11 0 C-10.34 0 -9.68 0 -9 0 C-8.67 0.66 -8.34 1.32 -8 2 C-7.34 2 -6.68 2 -6 2 C-6 1.34 -6 0.68 -6 0 C-2.25 -1.125 -2.25 -1.125 0 0 Z " fill="#CCD8DE" transform="translate(48,67)"/>
<path d="M0 0 C0.33 2.97 0.66 5.94 1 9 C-0.32 8.67 -1.64 8.34 -3 8 C-3 7.01 -3 6.02 -3 5 C-4.98 5.33 -6.96 5.66 -9 6 C-9.66 5.01 -10.32 4.02 -11 3 C-9.73160474 2.49384702 -8.46016898 1.99530901 -7.1875 1.5 C-6.12595703 1.08234375 -6.12595703 1.08234375 -5.04296875 0.65625 C-3 0 -3 0 0 0 Z " fill="#BFCCD1" transform="translate(65,64)"/>
<path d="M0 0 C0.33 0 0.66 0 1 0 C0.67 4.29 0.34 8.58 0 13 C0.33 13 0.66 13 1 13 C1 14.98 1 16.96 1 19 C0.34 19 -0.32 19 -1 19 C-1.33 21.31 -1.66 23.62 -2 26 C-2.33 26 -2.66 26 -3 26 C-3.4490156 16.91990679 -2.18842083 8.80578857 0 0 Z " fill="#BFC6CF" transform="translate(25,76)"/>
<path d="M0 0 C1.6875 2.4375 1.6875 2.4375 1.6875 5.5625 C0.6875 8.4375 0.6875 8.4375 -1.375 9.8125 C-2.014375 10.01875 -2.65375 10.225 -3.3125 10.4375 C-3.1475 9.81875 -2.9825 9.2 -2.8125 8.5625 C-2.23615356 6.47686614 -2.23615356 6.47686614 -2.3125 4.4375 C-3.6325 3.7775 -4.9525 3.1175 -6.3125 2.4375 C-6.3125 1.4475 -6.3125 0.4575 -6.3125 -0.5625 C-3.40467821 -1.80870934 -2.68901159 -1.81689972 0 0 Z " fill="#23272B" transform="translate(74.3125,38.5625)"/>
<path d="M0 0 C2.64 0.33 5.28 0.66 8 1 C8 1.66 8 2.32 8 3 C8.99 3.33 9.98 3.66 11 4 C9 6 9 6 5.5 6.1875 C2 6 2 6 0 5 C0 3.35 0 1.7 0 0 Z " fill="#728A95" transform="translate(135,191)"/>
<path d="M0 0 C1.11378736 3.31822704 0.87728255 5.24820779 -0.21484375 8.546875 C-0.48876953 9.39121094 -0.76269531 10.23554688 -1.04492188 11.10546875 C-1.48674805 12.41451172 -1.48674805 12.41451172 -1.9375 13.75 C-2.22818359 14.63816406 -2.51886719 15.52632812 -2.81835938 16.44140625 C-3.53639318 18.63082079 -4.26385523 20.81662189 -5 23 C-6.72962823 19.76037886 -7.37095533 17.70955333 -7 14 C-5.55172414 10.27586207 -5.55172414 10.27586207 -3 9 C-2.09274566 6.88672575 -2.09274566 6.88672575 -1.375 4.4375 C-0.98441406 3.19806641 -0.98441406 3.19806641 -0.5859375 1.93359375 C-0.39257812 1.29550781 -0.19921875 0.65742188 0 0 Z " fill="#A5BAC4" transform="translate(227,144)"/>
<path d="M0 0 C1.32 0.66 2.64 1.32 4 2 C4 2.66 4 3.32 4 4 C4.99 4.33 5.98 4.66 7 5 C6.01 6.485 6.01 6.485 5 8 C5 8.66 5 9.32 5 10 C4.01 10.33 3.02 10.66 2 11 C2 10.01 2 9.02 2 8 C1.01 7.67 0.02 7.34 -1 7 C-1.125 2.25 -1.125 2.25 0 0 Z " fill="#C8D3D9" transform="translate(37,59)"/>
<path d="M0 0 C3.375 0.3125 3.375 0.3125 7 1 C9.1519437 4.22791555 9.20086443 5.28400809 9 9 C8.01 8.34 7.02 7.68 6 7 C5.01 7 4.02 7 3 7 C1.3125 5 1.3125 5 0 3 C0.66 3 1.32 3 2 3 C2 2.34 2 1.68 2 1 C1.34 0.67 0.68 0.34 0 0 Z " fill="#27292D" transform="translate(109,46)"/>
<path d="M0 0 C0.33 0.99 0.66 1.98 1 3 C2.65 2.01 4.3 1.02 6 0 C7.23076923 5.41538462 7.23076923 5.41538462 6.0625 8.375 C5.711875 8.91125 5.36125 9.4475 5 10 C4.34 10 3.68 10 3 10 C0.96564469 6.27034861 0 4.33094958 0 0 Z " fill="#C9D8E2" transform="translate(204,100)"/>
<path d="M0 0 C6.68569826 -0.35816241 12.51713689 0.08773361 17.8359375 4.53515625 C19.28003786 5.96908689 20.64796117 7.47895631 22 9 C21.67 9.66 21.34 10.32 21 11 C20.21625 10.2575 19.4325 9.515 18.625 8.75 C13.32132387 4.31557245 6.72745236 2.19918937 0 1 C0 0.67 0 0.34 0 0 Z " fill="#384146" transform="translate(108,65)"/>
<path d="M0 0 C0.845625 0.45375 1.69125 0.9075 2.5625 1.375 C6.06046645 3.02858414 9.26959695 4.03009521 13 5 C13 5.66 13 6.32 13 7 C5.80714661 7.48765108 5.80714661 7.48765108 2 5.1875 C0 3 0 3 0 0 Z " fill="#181C20" transform="translate(67,68)"/>
<path d="M0 0 C2.1875 2 2.1875 2 4 4 C3.67 4.66 3.34 5.32 3 6 C2.34 6 1.68 6 1 6 C0.67 6.66 0.34 7.32 0 8 C-0.33 7.01 -0.66 6.02 -1 5 C-2.31647119 4.30062468 -3.65022151 3.63270867 -5 3 C-5.33 2.34 -5.66 1.68 -6 1 C-3 0 -3 0 0 0 Z " fill="#7E97A0" transform="translate(90,163)"/>
<path d="M0 0 C0.66 0.33 1.32 0.66 2 1 C1.979375 1.763125 1.95875 2.52625 1.9375 3.3125 C1.87057159 6.10185786 1.87057159 6.10185786 3 9 C2.67 9.66 2.34 10.32 2 11 C-0.97 10.505 -0.97 10.505 -4 10 C-4 10.66 -4 11.32 -4 12 C-4.66 11.67 -5.32 11.34 -6 11 C-5.34 9.02 -4.68 7.04 -4 5 C-3.67 5.99 -3.34 6.98 -3 8 C-2.01 7.67 -1.02 7.34 0 7 C-0.185625 6.401875 -0.37125 5.80375 -0.5625 5.1875 C-1 3 -1 3 0 0 Z " fill="#CEDBE1" transform="translate(65,64)"/>
<path d="M0 0 C0.99 0.66 1.98 1.32 3 2 C1.02 4.64 -0.96 7.28 -3 10 C-3.66 9.67 -4.32 9.34 -5 9 C-4.50769231 3.46153846 -4.50769231 3.46153846 -1.9375 1.125 C-1.298125 0.75375 -0.65875 0.3825 0 0 Z " fill="#7A8A92" transform="translate(227,74)"/>
<path d="M0 0 C1.65 0.33 3.3 0.66 5 1 C4.54625 1.5775 4.0925 2.155 3.625 2.75 C2.15886484 4.7800333 1.05142216 6.73539843 0 9 C-0.66 8.67 -1.32 8.34 -2 8 C-2.33 8.66 -2.66 9.32 -3 10 C-2.67 7.69 -2.34 5.38 -2 3 C-1.34 3 -0.68 3 0 3 C0 2.01 0 1.02 0 0 Z " fill="#C1CDD0" transform="translate(104,45)"/>
<path d="M0 0 C2.475 0.495 2.475 0.495 5 1 C5 1.66 5 2.32 5 3 C6.65 2.67 8.3 2.34 10 2 C10 3.32 10 4.64 10 6 C9.34 6 8.68 6 8 6 C7.67 6.99 7.34 7.98 7 9 C4.86906094 7.93453047 3.63412443 6.70840281 2 5 C2.33 4.01 2.66 3.02 3 2 C2.01 1.34 1.02 0.68 0 0 Z " fill="#BFCBD1" transform="translate(97,69)"/>
<path d="M0 0 C0.66 0 1.32 0 2 0 C2.33 3.63 2.66 7.26 3 11 C1.68 11 0.36 11 -1 11 C-0.67 7.37 -0.34 3.74 0 0 Z " fill="#7C959F" transform="translate(161,148)"/>
<path d="M0 0 C2.015625 1.14453125 2.015625 1.14453125 4 3 C4.171875 5.69921875 4.171875 5.69921875 3.75 8.6875 C3.62109375 9.68136719 3.4921875 10.67523438 3.359375 11.69921875 C3.24078125 12.45847656 3.1221875 13.21773437 3 14 C2.67 14 2.34 14 2 14 C1.67 12.02 1.34 10.04 1 8 C0.34 8 -0.32 8 -1 8 C-0.67 5.36 -0.34 2.72 0 0 Z " fill="#849AA1" transform="translate(127,132)"/>
<path d="M0 0 C4.82360189 -0.19294408 8.49646738 0.24252386 13 2 C13 2.33 13 2.66 13 3 C7.06 3.495 7.06 3.495 1 4 C0.67 2.68 0.34 1.36 0 0 Z " fill="#D0D9DF" transform="translate(47,55)"/>
<path d="M0 0 C1.57432497 3.14864995 0.71895552 5.64487425 0 9 C-0.99 9.66 -1.98 10.32 -3 11 C-3.33 11.99 -3.66 12.98 -4 14 C-4.66 14 -5.32 14 -6 14 C-6.33 14.66 -6.66 15.32 -7 16 C-6.28028381 12.24654344 -4.66887798 9.13908031 -2.9375 5.75 C-2.11572266 4.13351563 -2.11572266 4.13351563 -1.27734375 2.484375 C-0.64505859 1.25460938 -0.64505859 1.25460938 0 0 Z " fill="#AAB3B9" transform="translate(35,52)"/>
<path d="M0 0 C1.58294782 -0.05437607 3.16644256 -0.09296271 4.75 -0.125 C5.63171875 -0.14820313 6.5134375 -0.17140625 7.421875 -0.1953125 C10.1135858 0.00860498 11.69904974 0.63448279 14 2 C13.34 2.66 12.68 3.32 12 4 C7.65093573 3.67176873 3.9657368 2.80260764 0 1 C0 0.67 0 0.34 0 0 Z " fill="#AEBAC1" transform="translate(86,222)"/>
<path d="M0 0 C0.99 0.33 1.98 0.66 3 1 C5.14255793 0.61067144 5.14255793 0.61067144 7 0 C7.99 1.65 8.98 3.3 10 5 C7.8125 5.8125 7.8125 5.8125 5 6 C2.1875 3.625 2.1875 3.625 0 1 C0 0.67 0 0.34 0 0 Z " fill="#C8D5DD" transform="translate(58,202)"/>
<path d="M0 0 C2.96404505 2.80804268 5.44499019 5.18315774 7 9 C5.68 9 4.36 9 3 9 C2.731875 8.360625 2.46375 7.72125 2.1875 7.0625 C1.11332248 4.66868314 1.11332248 4.66868314 -2 4 C-1.34 2.68 -0.68 1.36 0 0 Z " fill="#7C949D" transform="translate(95,168)"/>
<path d="M0 0 C0.99 0.33 1.98 0.66 3 1 C2.01 1.33 1.02 1.66 0 2 C0 1.34 0 0.68 0 0 Z M-2 2 C-1.34 2.33 -0.68 2.66 0 3 C-1.375 5 -1.375 5 -3 7 C-3.66 7 -4.32 7 -5 7 C-5.33 7.99 -5.66 8.98 -6 10 C-7.32 9.67 -8.64 9.34 -10 9 C-6.25 6 -6.25 6 -4 6 C-3.34 4.68 -2.68 3.36 -2 2 Z " fill="#B0C4CB" transform="translate(216,138)"/>
<path d="M0 0 C0.66 0 1.32 0 2 0 C2.91457003 5.56157448 3.32086397 9.675665 1 15 C0.67 15 0.34 15 0 15 C0 10.05 0 5.1 0 0 Z " fill="#CAD9DF" transform="translate(165,140)"/>
<path d="M0 0 C0.66 0 1.32 0 2 0 C3.0625 1.8125 3.0625 1.8125 4 4 C3.67 4.99 3.34 5.98 3 7 C3 6.34 3 5.68 3 5 C2.34 5 1.68 5 1 5 C1 9.29 1 13.58 1 18 C0.67 18 0.34 18 0 18 C-0.19384179 15.18780295 -0.38036603 12.37545804 -0.5625 9.5625 C-0.61857422 8.76005859 -0.67464844 7.95761719 -0.73242188 7.13085938 C-0.8616295 5.08937889 -0.9351273 3.04453631 -1 1 C-0.67 0.67 -0.34 0.34 0 0 Z " fill="#869BA5" transform="translate(213,77)"/>
<path d="M0 0 C1.32 0 2.64 0 4 0 C4 0.66 4 1.32 4 2 C4.99 2.33 5.98 2.66 7 3 C7.33 3.66 7.66 4.32 8 5 C4.535 6.485 4.535 6.485 1 8 C1.020625 7.05125 1.04125 6.1025 1.0625 5.125 C1.22551826 2.09333717 1.22551826 2.09333717 0 0 Z " fill="#B7C2C8" transform="translate(43,55)"/>
<path d="M0 0 C3 2 3 2 3.73046875 4.1640625 C3.88128906 4.97617187 4.03210938 5.78828125 4.1875 6.625 C4.34605469 7.44226562 4.50460938 8.25953125 4.66796875 9.1015625 C4.83232422 10.04128906 4.83232422 10.04128906 5 11 C4.01 11.33 3.02 11.66 2 12 C1.34 8.04 0.68 4.08 0 0 Z " fill="#BAC3C7" transform="translate(124,38)"/>
<path d="M0 0 C0.33 0.66 0.66 1.32 1 2 C-0.14453125 4.56640625 -0.14453125 4.56640625 -1.8125 7.5625 C-2.35519531 8.55378906 -2.89789063 9.54507813 -3.45703125 10.56640625 C-5 13 -5 13 -7 14 C-6.33333333 12 -5.66666667 10 -5 8 C-4.5359375 6.39125 -4.5359375 6.39125 -4.0625 4.75 C-3 2 -3 2 0 0 Z " fill="#9CB0B9" transform="translate(218,170)"/>
<path d="M0 0 C2.125 0.9375 2.125 0.9375 4 2 C-0.625 6 -0.625 6 -4 6 C-2.25 1.125 -2.25 1.125 0 0 Z " fill="#A7BBC4" transform="translate(188,204)"/>
<path d="M0 0 C0.99 0.33 1.98 0.66 3 1 C3 2.65 3 4.3 3 6 C2.67 6 2.34 6 2 6 C1.67 9.63 1.34 13.26 1 17 C0.67 17 0.34 17 0 17 C0 11.39 0 5.78 0 0 Z " fill="#8798A0" transform="translate(128,112)"/>
<path d="M0 0 C1.32 0 2.64 0 4 0 C4 0.66 4 1.32 4 2 C4.99 2.33 5.98 2.66 7 3 C6.67 4.65 6.34 6.3 6 8 C3.33264727 5.51047079 1.44253657 3.36591866 0 0 Z " fill="#82939D" transform="translate(204,63)"/>
<path d="M0 0 C0.99 0 1.98 0 3 0 C2.64950425 3.24208567 2.43778819 4.61527704 -0.0625 6.8125 C-0.701875 7.204375 -1.34125 7.59625 -2 8 C-2.33 7.34 -2.66 6.68 -3 6 C-2.06553465 3.96855359 -1.06775224 1.96466413 0 0 Z " fill="#C2CACF" transform="translate(82,63)"/>
<path d="M0 0 C2.97 0 5.94 0 9 0 C9.33 0.99 9.66 1.98 10 3 C7.03 3 4.06 3 1 3 C0.67 2.01 0.34 1.02 0 0 Z " fill="#D0DBDF" transform="translate(55,61)"/>
<path d="M0 0 C0.33 1.32 0.66 2.64 1 4 C2.65 3.67 4.3 3.34 6 3 C5.67 4.98 5.34 6.96 5 9 C4.34 8.34 3.68 7.68 3 7 C1.68 7 0.36 7 -1 7 C-0.67 4.69 -0.34 2.38 0 0 Z " fill="#8298A2" transform="translate(103,194)"/>
<path d="M0 0 C4 0 4 0 7 2 C1.25 6 1.25 6 -1 6 C-0.67 4.02 -0.34 2.04 0 0 Z " fill="#CCD9DF" transform="translate(53,68)"/>
<path d="M0 0 C1.98 0 3.96 0 6 0 C6 0.33 6 0.66 6 1 C4.35 1.33 2.7 1.66 1 2 C2.06546953 4.13093906 3.29159719 5.36587557 5 7 C3.68 7.33 2.36 7.66 1 8 C0.01 6.68 -0.98 5.36 -2 4 C-1.34 2.68 -0.68 1.36 0 0 Z " fill="#2C3137" transform="translate(82,55)"/>
<path d="M0 0 C0 0.66 0 1.32 0 2 C-5.17578125 5.22265625 -5.17578125 5.22265625 -7 6 C-7.99 5.67 -8.98 5.34 -10 5 C-7.89591568 0.79183137 -4.43462228 0 0 0 Z " fill="#A6BBC4" transform="translate(162,220)"/>
<path d="M0 0 C0.98120464 3.05263664 0.98120464 4.94736336 0 8 C-0.99 7.34 -1.98 6.68 -3 6 C-3 5.34 -3 4.68 -3 4 C-4.65 4 -6.3 4 -8 4 C-8 3.67 -8 3.34 -8 3 C-6.865625 2.690625 -5.73125 2.38125 -4.5625 2.0625 C-1.21224901 1.37075469 -1.21224901 1.37075469 0 0 Z " fill="#8198A3" transform="translate(146,188)"/>
<path d="M0 0 C1.32 0 2.64 0 4 0 C6 3 6 3 6 7 C5.34 7 4.68 7 4 7 C0 2.52941176 0 2.52941176 0 0 Z " fill="#738894" transform="translate(98,177)"/>
<path d="M0 0 C1.29922995 2.5984599 0.81286289 3.75961451 0.1875 6.5625 C0.01605469 7.36816406 -0.15539062 8.17382812 -0.33203125 9.00390625 C-1 11 -1 11 -3 12 C-3.2954439 6.97745369 -2.98514628 4.10457614 0 0 Z " fill="#A5B1BC" transform="translate(234,113)"/>
<path d="M0 0 C1.65 0.33 3.3 0.66 5 1 C4.01 1.495 4.01 1.495 3 2 C2.59270772 4.32156597 2.25561323 6.6568787 2 9 C1.34 8.67 0.68 8.34 0 8 C0 7.34 0 6.68 0 6 C-0.66 5.67 -1.32 5.34 -2 5 C-1.34 3.35 -0.68 1.7 0 0 Z " fill="#C2CCD3" transform="translate(118,51)"/>
<path d="M0 0 C0.99 0 1.98 0 3 0 C1.55746343 3.36591866 -0.33264727 5.51047079 -3 8 C-3.33 6.35 -3.66 4.7 -4 3 C-3.01 3.495 -3.01 3.495 -2 4 C-1.34 2.68 -0.68 1.36 0 0 Z " fill="#A5B7C2" transform="translate(208,184)"/>
<path d="M0 0 C0.99 0.99 1.98 1.98 3 3 C3.66 2.67 4.32 2.34 5 2 C4.49396008 4.16874252 4.00016187 5.99967627 3 8 C2.34 8 1.68 8 1 8 C0.67 5.36 0.34 2.72 0 0 Z " fill="#CBDBE2" transform="translate(144,180)"/>
<path d="M0 0 C0.33 0 0.66 0 1 0 C1 2.31 1 4.62 1 7 C0.34 6.67 -0.32 6.34 -1 6 C-1.33 7.65 -1.66 9.3 -2 11 C-2.33 11 -2.66 11 -3 11 C-3.33 8.36 -3.66 5.72 -4 3 C-2.68 3 -1.36 3 0 3 C0 2.01 0 1.02 0 0 Z " fill="#718793" transform="translate(127,169)"/>
<path d="M0 0 C0.66 0.99 1.32 1.98 2 3 C1.375 6.125 1.375 6.125 0 9 C-1.32 9.33 -2.64 9.66 -4 10 C-2.68 6.7 -1.36 3.4 0 0 Z " fill="#8797A1" transform="translate(210,106)"/>
<path d="M0 0 C1.98 0.495 1.98 0.495 4 1 C3.6875 2.875 3.6875 2.875 3 5 C2.01 5.66 1.02 6.32 0 7 C-1.125 2.25 -1.125 2.25 0 0 Z " fill="#728995" transform="translate(147,188)"/>
<path d="M0 0 C6.75 0.875 6.75 0.875 9 2 C9.40729228 4.32156597 9.74438677 6.6568787 10 9 C6 4.25 6 4.25 6 2 C3.03 1.505 3.03 1.505 0 1 C0 0.67 0 0.34 0 0 Z " fill="#747E89" transform="translate(249,64)"/>
<path d="M0 0 C0.598125 0.350625 1.19625 0.70125 1.8125 1.0625 C1.8125 2.0525 1.8125 3.0425 1.8125 4.0625 C-0.5625 3.75 -0.5625 3.75 -3.1875 3.0625 C-3.8475 2.0725 -4.5075 1.0825 -5.1875 0.0625 C-2.1875 -0.9375 -2.1875 -0.9375 0 0 Z " fill="#728994" transform="translate(87.1875,160.9375)"/>
<path d="M0 0 C0.66 0.33 1.32 0.66 2 1 C2.36923077 5.55384615 2.36923077 5.55384615 0.5 7.8125 C0.005 8.204375 -0.49 8.59625 -1 9 C-1.33 6.36 -1.66 3.72 -2 1 C-1.34 0.67 -0.68 0.34 0 0 Z " fill="#CADCE3" transform="translate(159,145)"/>
<path d="M0 0 C0 3.20395416 -0.74335022 5.09399739 -2 8 C-2.66 7.34 -3.32 6.68 -4 6 C-3.625 3.375 -3.625 3.375 -3 1 C-2.01 0.67 -1.02 0.34 0 0 Z " fill="#CFDADF" transform="translate(122,81)"/>
<path d="M0 0 C0 2.97 0 5.94 0 9 C-0.99 8.34 -1.98 7.68 -3 7 C-3.1875 3.875 -3.1875 3.875 -3 1 C-1 0 -1 0 0 0 Z " fill="#D0D9E1" transform="translate(27,83)"/>
<path d="M0 0 C2.0625 1.75 2.0625 1.75 4 4 C3.75 6.25 3.75 6.25 3 8 C0.52557871 5.84832931 -0.56238367 4.28212246 -1 1 C-0.67 0.67 -0.34 0.34 0 0 Z " fill="#C8D9DF" transform="translate(206,67)"/>
<path d="M0 0 C2.93200474 2.85276137 5.64315404 5.65079784 8 9 C7.01 9 6.02 9 5 9 C3.61328125 7.5390625 3.61328125 7.5390625 2.3125 5.625 C1.65701172 4.68527344 1.65701172 4.68527344 0.98828125 3.7265625 C0 2 0 2 0 0 Z " fill="#A9B4BD" transform="translate(40,181)"/>
<path d="M0 0 C2.475 0.99 2.475 0.99 5 2 C5 2.99 5 3.98 5 5 C3.66666667 5.66666667 2.33333333 6.33333333 1 7 C0.31292445 4.50935112 0 2.62113708 0 0 Z " fill="#D1D7DE" transform="translate(84,75)"/>
<path d="M0 0 C2.00720923 0.28674418 4.0085944 0.61866701 6 1 C6 1.66 6 2.32 6 3 C5.34 3 4.68 3 4 3 C4 3.66 4 4.32 4 5 C2.68 4.67 1.36 4.34 0 4 C0.33 3.34 0.66 2.68 1 2 C0.34 1.67 -0.32 1.34 -1 1 C-0.67 0.67 -0.34 0.34 0 0 Z " fill="#D1DCDE" transform="translate(61,48)"/>
<path d="M0 0 C0.6875 1.75 0.6875 1.75 1 4 C-0.3125 6.25 -0.3125 6.25 -2 8 C-2.66 8 -3.32 8 -4 8 C-3.40072174 4.64404172 -2.15377564 2.62198774 0 0 Z " fill="#2E3136" transform="translate(75,41)"/>
<path d="M0 0 C1.32 0 2.64 0 4 0 C3.34 2.97 2.68 5.94 2 9 C0.11656068 5.23312136 -0.22057835 3.97041037 0 0 Z " fill="#9CB3BA" transform="translate(220,158)"/>
<path d="M0 0 C1.98 0.495 1.98 0.495 4 1 C3 4 3 4 1 5 C0.34 5.66 -0.32 6.32 -1 7 C-0.67 4.69 -0.34 2.38 0 0 Z " fill="#CED7DF" transform="translate(24,95)"/>
<path d="M0 0 C0.66 0 1.32 0 2 0 C2 0.99 2 1.98 2 3 C1.01 3.33 0.02 3.66 -1 4 C-0.67 2.68 -0.34 1.36 0 0 Z M-3 3 C-2.34 3.33 -1.68 3.66 -1 4 C-1.66 5.32 -2.32 6.64 -3 8 C-3.5625 6.0625 -3.5625 6.0625 -4 4 C-3.67 3.67 -3.34 3.34 -3 3 Z " fill="#CCDCE2" transform="translate(227,81)"/>
<path d="M0 0 C0.66 0 1.32 0 2 0 C2.66 1.32 3.32 2.64 4 4 C3.01 5.485 3.01 5.485 2 7 C1.34 7 0.68 7 0 7 C-0.38133299 5.0085944 -0.71325582 3.00720923 -1 1 C-0.67 0.67 -0.34 0.34 0 0 Z " fill="#D2DAE1" transform="translate(116,57)"/>
<path d="M0 0 C0.99 0.99 1.98 1.98 3 3 C2.01 4.485 2.01 4.485 1 6 C0.01 5.01 -0.98 4.02 -2 3 C-1.34 2.01 -0.68 1.02 0 0 Z M-2 6 C-1.01 6 -0.02 6 1 6 C0.67 6.66 0.34 7.32 0 8 C-0.66 7.34 -1.32 6.68 -2 6 Z " fill="#8097A2" transform="translate(134,188)"/>
<path d="M0 0 C0.99 0.33 1.98 0.66 3 1 C3 1.99 3 2.98 3 4 C1.68 4.33 0.36 4.66 -1 5 C-1.33 3.68 -1.66 2.36 -2 1 C-1.34 0.67 -0.68 0.34 0 0 Z " fill="#23262B" transform="translate(81,70)"/>
<path d="M0 0 C2.0625 0.4375 2.0625 0.4375 4 1 C3.01 2.485 3.01 2.485 2 4 C2 4.66 2 5.32 2 6 C1.01 6.33 0.02 6.66 -1 7 C-1.04254356 5.00045254 -1.04080783 2.99958364 -1 1 C-0.67 0.67 -0.34 0.34 0 0 Z " fill="#ACB8BE" transform="translate(40,63)"/>
<path d="M0 0 C0.99 0.33 1.98 0.66 3 1 C2.01 1 1.02 1 0 1 C0 0.67 0 0.34 0 0 Z M-2 1 C-1.01 1.33 -0.02 1.66 1 2 C0.67 3.32 0.34 4.64 0 6 C-1.32 5.67 -2.64 5.34 -4 5 C-3.34 3.68 -2.68 2.36 -2 1 Z " fill="#B8C5C6" transform="translate(97,58)"/>
<path d="M0 0 C0.99 0 1.98 0 3 0 C3 1.32 3 2.64 3 4 C1.68 4.33 0.36 4.66 -1 5 C-1 1 -1 1 0 0 Z " fill="#141A1D" transform="translate(108,47)"/>
</svg>
