<?xml version="1.0" encoding="UTF-8"?>
<svg xmlns="http://www.w3.org/2000/svg" xmlns:xlink="http://www.w3.org/1999/xlink" width="20px" height="20px" viewBox="0 0 20 20" version="1.1">
<g id="surface1">
<path style=" stroke:none;fill-rule:nonzero;fill:rgb(71.764708%,8.627451%,8.627451%);fill-opacity:1;" d="M 0.382812 15.121094 L 7.371094 1.855469 L 7.398438 1.804688 C 7.6875 1.289062 8.074219 0.847656 8.539062 0.515625 C 8.980469 0.199219 9.496094 0.0351562 10.023438 0.03125 C 10.546875 0.03125 11.0625 0.199219 11.503906 0.511719 C 11.96875 0.847656 12.355469 1.289062 12.644531 1.808594 C 12.664062 1.847656 12.683594 1.882812 12.703125 1.925781 L 19.578125 15.03125 L 19.613281 15.109375 C 19.871094 15.675781 20.003906 16.300781 20 16.933594 C 19.996094 17.453125 19.875 17.964844 19.648438 18.425781 C 19.390625 18.9375 18.996094 19.347656 18.519531 19.605469 L 18.425781 19.652344 C 17.957031 19.875 17.449219 19.980469 16.941406 19.964844 L 2.867188 19.964844 C 2.832031 19.964844 2.796875 19.964844 2.761719 19.964844 C 2.414062 19.960938 2.074219 19.890625 1.75 19.757812 C 1.238281 19.542969 0.796875 19.164062 0.488281 18.664062 C 0.175781 18.160156 0.0078125 17.5625 0 16.953125 C -0.0078125 16.417969 0.078125 15.890625 0.253906 15.390625 C 0.289062 15.296875 0.332031 15.207031 0.378906 15.121094 Z M 0.382812 15.121094 "/>
<path style=" stroke:none;fill-rule:evenodd;fill:rgb(88.627452%,10.588235%,10.588235%);fill-opacity:1;" d="M 1.464844 15.894531 L 8.488281 2.5625 C 9.339844 1.085938 10.6875 1.050781 11.558594 2.5625 L 18.464844 15.734375 C 19.015625 16.953125 18.742188 18.59375 16.945312 18.554688 L 2.867188 18.554688 C 1.683594 18.585938 0.914062 17.445312 1.460938 15.894531 Z M 1.464844 15.894531 "/>
<path style=" stroke:none;fill-rule:nonzero;fill:rgb(100%,100%,100%);fill-opacity:1;" d="M 9.371094 14.8125 C 9.519531 14.648438 9.722656 14.546875 9.9375 14.53125 C 10.070312 14.519531 10.203125 14.542969 10.328125 14.59375 C 10.449219 14.644531 10.558594 14.726562 10.652344 14.828125 C 10.808594 14.996094 10.902344 15.222656 10.914062 15.460938 C 10.921875 15.542969 10.914062 15.628906 10.902344 15.710938 C 10.828125 16.199219 10.433594 16.550781 9.984375 16.535156 C 9.855469 16.53125 9.730469 16.5 9.613281 16.441406 C 9.40625 16.335938 9.242188 16.148438 9.15625 15.914062 C 9.128906 15.84375 9.109375 15.765625 9.097656 15.6875 C 9.089844 15.609375 9.085938 15.53125 9.089844 15.453125 C 9.101562 15.328125 9.132812 15.210938 9.183594 15.097656 C 9.226562 14.992188 9.289062 14.894531 9.367188 14.816406 Z M 10.699219 12.980469 C 10.664062 13.839844 9.34375 13.839844 9.3125 12.980469 C 9.179688 11.515625 8.839844 7.730469 8.851562 6.351562 C 8.863281 5.925781 9.175781 5.671875 9.59375 5.578125 C 9.859375 5.519531 10.136719 5.519531 10.40625 5.578125 C 10.832031 5.675781 11.164062 5.933594 11.164062 6.371094 L 11.164062 6.414062 Z M 10.699219 12.980469 "/>
</g>
</svg>
